<?xml version="1.0" standalone="no"?>
<!DOCTYPE svg PUBLIC "-//W3C//DTD SVG 1.1//EN" "http://www.w3.org/Graphics/SVG/1.1/DTD/svg11.dtd" >
<svg>
<metadata>
Created by FontForge 20090622 at Wed Mar  5 04:56:11 2014
 By ffonts
1.2, Copyright Copr. Castcraft Software, Inc. 1990-1991.
</metadata>
<defs>
<font id="OPTINaval" horiz-adv-x="193" >
  <font-face 
    font-family="OPTINaval"
    font-weight="400"
    font-stretch="normal"
    units-per-em="1000"
    panose-1="2 0 6 5 8 0 0 2 0 2"
    ascent="800"
    descent="-200"
    x-height="276"
    cap-height="693"
    bbox="-5.51878 -433.59 1048.19 917.755"
    underline-thickness="54"
    underline-position="-45"
    stemh="26"
    stemv="118"
    unicode-range="U+0020-U+FB02"
  />
<missing-glyph 
 />
    <glyph glyph-name=".notdef" 
 />
    <glyph glyph-name="eth" unicode="&#xf0;" 
 />
    <glyph glyph-name="Scaron" unicode="&#x160;" 
 />
    <glyph glyph-name="scaron" unicode="&#x161;" 
 />
    <glyph glyph-name="Yacute" unicode="&#xdd;" 
 />
    <glyph glyph-name="yacute" unicode="&#xfd;" 
 />
    <glyph glyph-name="Thorn" unicode="&#xde;" 
 />
    <glyph glyph-name="thorn" unicode="&#xfe;" 
 />
    <glyph glyph-name="onehalf" unicode="&#xbd;" 
 />
    <glyph glyph-name="onequarter" unicode="&#xbc;" 
 />
    <glyph glyph-name="onesuperior" unicode="&#xb9;" 
 />
    <glyph glyph-name="threequarters" unicode="&#xbe;" 
 />
    <glyph glyph-name="threesuperior" unicode="&#xb3;" 
 />
    <glyph glyph-name="twosuperior" unicode="&#xb2;" 
 />
    <glyph glyph-name="brokenbar" unicode="&#xa6;" 
 />
    <glyph glyph-name="minus" unicode="&#x2212;" 
 />
    <glyph glyph-name="multiply" unicode="&#xd7;" 
 />
    <glyph glyph-name="space" unicode=" " 
 />
    <glyph glyph-name="exclam" unicode="!" horiz-adv-x="191" 
d="M151 119c1 -3 4 -5 0 -7s-6 0 -7 2c-26 38 -39 95 -39 154v316c0 28 0 68 -19 78c-4 2 -9 4 -15 3c-5 -1 -13 -4 -17 -1c0 0 -3 0 -3 4s3 6 3 6c27 16 94 46 117 31c23 -16 17 -76 14 -106l-40 -367c-5 -47 -3 -75 6 -113zM128 91c15 4 31 2 45 -10c13 -12 21 -27 18 -46
c-2 -16 -11 -34 -29 -43c-14 -7 -29 -6 -45 3s-27 24 -28 42c-2 23 12 47 39 54z" />
    <glyph glyph-name="quotedbl" unicode="&#x22;" horiz-adv-x="276" 
d="M114 438h-22l-20 161c-3 23 -22 102 11 123c10 6 27 8 41 -2c27 -19 13 -95 10 -117zM258 436h-22l-20 166c-3 24 -20 99 10 118c12 7 31 8 45 -3c28 -17 11 -92 8 -118z" />
    <glyph glyph-name="numbersign" unicode="#" horiz-adv-x="764" 
d="M384 719h77l-75 -218l21 -1h124l78 218h78l-75 -218c5 -1 4 0 10 0c4 -2 6 -2 9 -2h131l-21 -67h-154l-51 -146h153l-24 -69h-151l-78 -217h-80l74 220h-143l-80 -219h-78l74 221h-150l22 66h151l52 144l-16 2h-133l23 67h153zM310 287h146l48 145h-141z" />
    <glyph glyph-name="dollar" unicode="$" horiz-adv-x="539" 
d="M318 269v-236v0s18 2 28 6c51 24 77 72 77 121c0 46 -41 75 -84 98c-9 5 -21 11 -21 11zM333 409c29 -15 47 -23 80 -45c60 -40 121 -88 122 -160c1 -58 -25 -126 -97 -171c-36 -23 -73 -32 -99 -35c-8 -1 -21 -1 -21 -1v-136l-1 -1l-21 -3l1 140l-14 1
c-15 1 -40 6 -48 8c-39 8 -47 11 -110 33c-16 5 -24 6 -33 2c-3 -2 -10 -6 -16 -10c-5 -5 -13 -10 -21 -9c-6 1 -4 7 -4 7c4 23 1 14 9 40l39 125c0 9 7 24 7 35c5 14 5 24 14 27c4 1 6 -1 8 -4c15 -57 -6 -132 65 -187c27 -22 56 -35 83 -35c9 -4 21 0 21 0v251
c-13 5 -32 17 -46 24l-28 15c-96 52 -125 72 -134 166c-4 48 12 136 84 191c34 26 68 35 103 43c9 2 24 2 24 2v0l-1 163c0 4 4 8 10 8c7 0 11 -3 11 -7l1 -163v0s12 0 21 -1c16 -2 41 -6 68 -15c13 -5 20 -6 26 -4c6 3 20 10 27 10c9 -5 9 -11 10 -22l2 -23l2 -23v-23v-107
c0 -17 0 -37 -6 -37c-9 0 -11 12 -14 22l-6 17c-18 52 -31 138 -101 162c-9 4 -29 5 -29 5v-269zM230 657c-38 -27 -58 -65 -55 -100c5 -54 45 -89 109 -119l13 -6v68v182s-42 -7 -67 -25z" />
    <glyph glyph-name="percent" unicode="%" horiz-adv-x="620" 
d="M186 696c40 7 106 -11 146 -52c29 -29 30 -101 27 -117c-7 -30 -66 -84 -96 -95c-39 -15 -111 -14 -148 13c-52 38 -66 80 -64 122s26 77 81 109c21 13 34 16 54 20zM63 10c0 7 6 16 11 25l434 576c7 9 60 88 77 86c6 -1 11 -4 14 -13c3 -10 -52 -77 -59 -87l-431 -574
c-6 -7 -12 -20 -22 -23s-17 0 -24 10zM433 272c43 9 114 -8 157 -53c24 -25 32 -86 24 -116c-9 -32 -69 -84 -108 -95c-42 -11 -107 -14 -151 28s-57 76 -47 124c11 53 73 101 125 112zM133 520c13 -40 36 -62 73 -72c26 -7 46 -5 58 6c29 27 28 89 21 133
c-7 41 -14 67 -52 84c-21 9 -64 5 -74 -1c-40 -26 -41 -105 -26 -150zM397 77c18 -33 52 -51 79 -54c23 -2 36 3 48 17c27 34 19 121 11 150c-8 32 -23 50 -52 60c-20 7 -61 4 -72 -4c-38 -27 -37 -128 -14 -169z" />
    <glyph glyph-name="ampersand" unicode="&#x26;" horiz-adv-x="815" 
d="M395 458l21 -24c68 -78 59 -58 117 -143l45 -66c19 32 77 146 60 182c-6 12 -15 18 -37 22l-26 2c-7 1 -20 1 -27 7c0 0 -1 4 -1 6s1 5 1 5c4 7 7 7 18 7h210l21 2c3 -1 18 1 18 -10c-3 -9 -10 -10 -19 -10c-6 0 -15 -2 -22 -2c-28 -1 -34 -1 -45 -9
c-19 -14 -48 -73 -55 -88l-40 -84c-23 -48 -46 -67 -26 -115c16 -36 51 -102 98 -114c7 -2 44 -4 51 -4c9 0 17 -1 26 -1c1 0 20 -1 27 -8v-8c-5 -3 -24 -5 -28 -5h-152c-20 0 -80 -6 -99 17c-4 5 -10 19 -25 49l-14 -6c-85 -53 -87 -62 -152 -72c-50 -8 -104 -8 -151 8
c-53 18 -112 92 -129 145c-15 49 -7 118 35 172c51 67 90 91 171 127c-59 55 -85 75 -75 140c7 45 51 98 98 119c39 18 110 22 149 -2c38 -24 49 -53 50 -91c1 -61 -17 -92 -93 -148zM421 587c2 32 -8 61 -38 82c-24 16 -62 17 -86 6c-28 -13 -42 -31 -45 -55
c-6 -42 72 -106 106 -132c44 35 61 68 63 99zM167 285c-17 -72 7 -141 78 -208c45 -42 114 -43 153 -31c40 13 81 34 88 67c3 11 -53 137 -63 154c-17 30 -80 110 -120 144c-44 -20 -123 -69 -136 -126z" />
    <glyph glyph-name="quotesingle" unicode="'" horiz-adv-x="185" 
d="M60 497c44 48 77 69 65 122c-10 46 -29 48 -65 44c0 10 1 20 12 30c4 4 12 11 29 15c18 6 54 3 69 -9c13 -9 18 -21 18 -43c0 -42 -28 -105 -77 -143c-4 -3 -12 -8 -25 -14c-9 -4 -17 -9 -26 -2z" />
    <glyph glyph-name="parenleft" unicode="(" horiz-adv-x="304" 
d="M290 710c13 0 15 -17 -9 -22c-2 0 -23 -13 -32 -19c-83 -52 -101 -239 -103 -300l-1 -29c-6 -170 16 -406 126 -506c4 -4 25 -26 33 -33c2 -2 4 -6 3 -9c-2 -5 -3 -5 -8 -6c-4 -1 -12 1 -15 3c-219 130 -246 396 -225 572c12 102 64 277 199 340c8 5 22 9 32 9z" />
    <glyph glyph-name="parenright" unicode=")" horiz-adv-x="300" 
d="M96 701c134 -63 186 -238 198 -340c22 -176 -6 -442 -225 -572c-3 -2 -11 -4 -15 -3c-5 1 -6 1 -8 6c-1 3 1 7 3 9c8 7 29 29 33 33c110 100 132 336 126 506l-1 29c-2 61 -19 248 -102 300c-9 6 -31 19 -33 19c-24 5 -22 22 -9 22c10 0 25 -4 33 -9z" />
    <glyph glyph-name="asterisk" unicode="*" horiz-adv-x="277" 
d="M192 592c7 0 27 20 37 31c18 16 27 24 37 21c7 -1 17 -7 21 -16c2 -5 3 -15 -5 -25c-8 -8 -14 -12 -40 -18l-21 -5c-5 -2 -16 -8 -19 -13c12 -3 77 -16 86 -34c2 -5 3 -15 -5 -25c-6 -6 -14 -11 -23 -10c-12 1 -21 11 -35 23l-18 15c-5 4 -9 7 -10 8c-4 3 -3 4 -8 0
c2 -23 3 -26 7 -44c6 -24 9 -35 1 -44c-5 -8 -13 -13 -23 -12c-7 1 -17 6 -22 19c-3 8 -1 14 5 41l5 21c2 4 1 4 1 10l2 5l-3 5c-5 -1 -13 -7 -18 -14c-6 -6 -12 -12 -18 -16c-13 -14 -27 -23 -38 -21c-9 2 -15 3 -21 17c-2 5 -2 17 3 24c9 13 28 15 39 18l21 5
c6 3 15 5 19 11c-3 5 -16 11 -20 12c-12 4 -11 2 -22 7c-21 6 -35 11 -40 24c-3 9 -1 18 4 25c5 5 14 11 24 9c14 -3 22 -19 35 -30c10 -6 25 -27 37 -23c-2 8 -21 81 -12 91c3 5 13 10 24 9c9 -1 16 -6 21 -17c5 -9 -3 -31 -6 -42c0 -3 -3 -17 -4 -22c0 -5 -4 -15 2 -20z
" />
    <glyph glyph-name="plus" unicode="+" horiz-adv-x="647" 
d="M323 592h64v-263h263v-71h-263v-258h-66v258h-263v70h265v264z" />
    <glyph glyph-name="comma" unicode="," horiz-adv-x="185" 
d="M49 -123l-4 8c52 44 76 69 69 118c-1 7 -5 18 -17 30c-15 16 -20 19 -30 17c-4 -1 -6 -4 -10 -5c-6 -1 -9 3 -9 3c-4 9 -4 17 10 30c5 6 16 12 32 16c15 3 62 -3 75 -20c15 -18 13 -50 2 -79c-23 -58 -49 -95 -118 -118z" />
    <glyph glyph-name="hyphen" unicode="-" horiz-adv-x="299" 
d="M294 207l5 -7c-27 -89 -63 -74 -130 -74h-59c-9 0 -15 1 -27 -3c-8 -5 -17 -14 -28 -4c-4 10 9 28 18 38c14 18 25 28 35 32h37c5 1 30 1 37 1h49c7 0 23 -2 32 1c17 7 11 16 31 16z" />
    <glyph glyph-name="period" unicode="." horiz-adv-x="158" 
d="M91 91c16 6 32 5 45 -5c14 -10 23 -26 22 -46c-1 -18 -10 -36 -24 -45c-12 -7 -28 -10 -47 -1c-15 7 -29 21 -32 39c-4 22 10 48 36 58z" />
    <glyph glyph-name="slash" unicode="/" horiz-adv-x="397" 
d="M410 684l-11 -31c-3 -7 -9 -23 -15 -32l-9 -19c0 -11 -11 -34 -13 -37l-206 -471c-9 -20 -33 -92 -63 -95c-15 -2 -22 2 -25 6c-4 7 28 80 32 89l233 534c3 8 25 67 47 70c2 0 24 0 30 -14z" />
    <glyph glyph-name="zero" unicode="0" horiz-adv-x="548" 
d="M260 293c36 8 113 -7 152 -45c45 -42 45 -111 40 -139c-6 -38 -69 -89 -101 -103c-47 -20 -122 -22 -168 8c-30 19 -48 37 -60 62c-2 3 -16 65 -16 69c-1 34 38 96 69 115c5 4 77 31 84 33zM192 190c-8 -44 3 -114 43 -149c29 -26 59 -31 89 -22c19 5 26 14 34 29
c1 2 12 29 15 39c10 39 2 119 -35 156c-23 24 -67 28 -85 24c-38 -9 -56 -45 -61 -77z" />
    <glyph glyph-name="one" unicode="1" horiz-adv-x="548" 
d="M410 21l1 -9l-6 -8c-6 0 -12 -4 -18 -4h-115c-3 0 -83 0 -88 5c-2 3 -6 8 -4 16c5 7 8 10 17 10c5 1 52 2 59 9c12 12 9 93 9 106v43c0 21 -4 33 -6 54l-71 -29c-5 -3 -9 -5 -17 -5l-6 8v5l59 33c16 9 86 49 103 38c15 -11 11 -77 11 -89v-96c0 -15 -2 -66 16 -77
c0 -1 54 -10 56 -10z" />
    <glyph glyph-name="two" unicode="2" horiz-adv-x="548" 
d="M292 66h17c12 0 57 1 68 3c2 1 12 2 16 4c11 8 13 11 18 14c9 9 23 21 35 14l-15 -35c-6 -14 -12 -27 -16 -40l-6 -20c-3 -5 -2 -12 -9 -18c-4 -1 -15 -3 -21 -1v12l-6 6c-32 2 -76 -1 -113 -5h-27l-27 -3c-15 -5 -11 2 -26 -3c-9 -1 -16 -5 -25 3c-11 11 -8 17 -8 27
c68 37 163 67 190 174c5 20 5 43 -10 59c-14 14 -33 18 -54 14c-14 -3 -28 -11 -31 -22c-3 -10 4 -16 6 -26c3 -12 3 -20 0 -27c-7 -18 -15 -24 -33 -27c-15 -3 -27 2 -36 11c-8 9 -13 20 -8 37c8 31 43 53 80 65c52 17 113 12 149 -18c24 -20 29 -41 26 -66
c-6 -56 -125 -127 -134 -132z" />
    <glyph glyph-name="three" unicode="3" horiz-adv-x="548" 
d="M465 551c0 0 4 0 4 -4s-3 -7 -3 -7l-213 -256c52 7 142 1 181 -49c27 -34 30 -97 16 -135c-25 -64 -83 -97 -146 -108c-33 -6 -126 -2 -166 45c-13 15 -20 33 -14 49c3 10 13 20 25 22c13 2 27 -4 42 -22c30 -38 43 -72 92 -71c28 1 58 15 77 51c17 30 19 94 0 126
c-25 43 -67 59 -108 60c-16 0 -25 -1 -34 -4c-2 -1 -29 -15 -32 -14c-4 1 -10 5 -10 14c0 11 62 75 73 88l122 141h-36c-15 0 -17 -2 -34 -2h-34c-26 1 -46 6 -66 -22c-8 -10 -6 -10 -12 -22c-3 -4 -8 -16 -16 -19c-4 -2 -9 -2 -11 5c-2 6 -2 9 2 19c0 0 12 29 17 47l10 34
c1 8 10 34 21 34h253z" />
    <glyph glyph-name="four" unicode="4" horiz-adv-x="548" 
d="M206 73c8 0 16 -1 23 -1c3 0 22 -3 26 -3h19h37h46l1 7c13 90 -1 119 12 159c9 10 22 26 53 49c7 5 9 1 9 -15v-405c0 -17 3 -65 -14 -81c-2 -1 -25 -11 -28 -13c-8 -2 -20 -9 -28 -6c-6 6 -4 15 -4 25v120l1 28v63h-45h-21h-33c-3 0 -31 2 -36 3h-33c-4 0 -67 -6 -72 -3
c0 0 -8 -3 -10 4c-1 4 2 9 2 9c1 5 61 74 65 79l243 276c10 11 65 85 81 81c6 -1 14 -6 17 -18c4 -17 -56 -75 -72 -92z" />
    <glyph glyph-name="five" unicode="5" horiz-adv-x="548" 
d="M446 558c-20 -49 -59 -73 -104 -84c-10 -3 -34 -7 -68 -7l-48 -122c-13 -33 -19 -52 -26 -88c52 38 118 60 178 37c35 -13 71 -45 80 -85c10 -48 1 -103 -43 -149c-48 -51 -127 -75 -181 -66c-26 4 -75 24 -91 59c-7 16 -8 30 -2 39c5 8 15 15 27 15c20 -1 27 -16 51 -49
c19 -28 37 -41 64 -40c22 1 58 17 77 49c20 32 23 103 5 141c-12 27 -31 52 -64 56c-19 3 -37 -1 -56 -9c-13 -6 -22 -10 -28 -15c-12 -8 -24 -22 -26 -27c-12 -12 -24 -18 -32 1c0 11 1 18 5 29l86 273c1 5 10 28 16 35c80 -24 85 -10 165 7h15z" />
    <glyph glyph-name="six" unicode="6" horiz-adv-x="548" 
d="M201 262c76 40 129 53 208 9c42 -23 61 -76 63 -114c2 -58 -17 -93 -85 -142c-41 -29 -121 -30 -157 -15c-71 30 -99 96 -109 157c-24 139 -1 328 153 466c58 52 140 79 191 66c14 -3 26 -10 29 -19c3 -6 2 -14 -5 -21c-9 -8 -51 1 -60 2c-62 5 -123 -14 -176 -85
c-56 -76 -65 -226 -52 -304zM220 245c-25 -25 -22 -67 -18 -91c8 -40 38 -111 86 -133c20 -9 44 -8 58 1c29 19 37 79 38 99c1 37 -9 102 -49 133c-26 19 -57 20 -82 12c-13 -5 -23 -11 -33 -21z" />
    <glyph glyph-name="seven" unicode="7" horiz-adv-x="548" 
d="M217 308c6 1 10 0 16 -6c4 -4 8 -8 13 -16c0 0 42 3 69 3c73 1 186 -5 186 -5c9 0 6 -14 0 -21c-2 -8 -5 -12 -10 -20l-221 -357c-5 -10 -27 -45 -42 -81c-5 -12 -11 -28 -14 -40c-4 -11 -6 -32 -17 -38c-5 -4 -40 -4 -45 -3c0 0 -9 2 -12 4c-6 3 -6 13 -6 13
c-10 21 41 99 65 132l204 286c17 23 16 25 30 50l-47 5c-49 5 -88 7 -121 3c-61 -7 -56 -31 -104 -88c0 0 -7 -6 -12 0c-4 4 1 13 3 20l46 128c3 9 7 29 19 31z" />
    <glyph glyph-name="eight" unicode="8" horiz-adv-x="548" 
d="M357 322c68 -36 122 -71 127 -149c2 -34 -25 -111 -71 -142c-52 -36 -145 -51 -197 -27c-57 26 -78 53 -84 109c-8 65 8 87 79 141c11 11 25 17 38 30c-68 42 -95 57 -99 122c-2 45 18 91 66 128c37 29 101 42 138 31c45 -14 83 -45 99 -93c9 -27 4 -59 -17 -86
c-17 -23 -53 -45 -79 -64zM394 454c-8 37 -45 74 -73 84c-22 7 -65 -1 -82 -16c-23 -19 -26 -54 -22 -77c13 -74 36 -80 117 -110c43 43 69 78 60 119zM207 210c-16 -29 -2 -107 11 -133c16 -33 45 -52 72 -56c25 -4 73 10 95 33c28 29 29 59 24 85c-14 79 -62 96 -134 129
c-33 -22 -57 -39 -68 -58z" />
    <glyph glyph-name="nine" unicode="9" horiz-adv-x="548" 
d="M78 -268c0 0 -5 1 -3 7c1 2 6 2 6 2c51 6 162 17 243 136c32 48 41 90 40 153c-65 -44 -127 -36 -164 -18c-30 15 -71 63 -74 105c-4 53 9 100 77 149c33 24 103 32 139 16c79 -34 112 -86 122 -159c13 -94 -18 -219 -128 -310c-79 -66 -178 -110 -258 -81zM203 182
c-4 -36 8 -94 51 -128c24 -18 57 -29 83 -19c23 9 31 27 35 47c6 35 -1 122 -45 161c-28 24 -55 26 -73 20c-34 -10 -49 -58 -51 -81z" />
    <glyph glyph-name="colon" unicode=":" horiz-adv-x="158" 
d="M91 275c16 6 31 5 45 -6c13 -9 23 -24 22 -46c-1 -16 -9 -35 -24 -45c-12 -7 -27 -9 -45 -1c-19 8 -31 23 -34 40c-4 22 10 47 36 58zM99 95c13 3 31 1 45 -15c13 -13 17 -30 13 -49c-4 -15 -15 -32 -34 -39c-14 -5 -32 -2 -47 9s-24 29 -22 45c2 23 20 44 45 49z" />
    <glyph glyph-name="semicolon" unicode=";" horiz-adv-x="185" 
d="M103 271c16 6 34 3 48 -7c12 -9 21 -25 20 -46c-1 -16 -8 -34 -27 -45c-13 -8 -29 -9 -45 -1c-18 9 -30 23 -33 42c-3 22 11 48 37 57zM48 -118c44 41 77 76 68 122c-1 10 -5 21 -16 31c-14 14 -16 16 -30 16l-9 -5l-12 4c0 15 -1 15 13 30c6 5 14 10 29 14
c23 4 60 -2 72 -13c11 -10 17 -28 14 -54c-4 -42 -40 -106 -91 -137c-12 -7 -16 -10 -19 -11c-6 -2 -14 -5 -19 3z" />
    <glyph glyph-name="less" unicode="&#x3c;" horiz-adv-x="694" 
d="M694 576v-71l-540 -211l540 -213v-70l-639 254v61z" />
    <glyph glyph-name="equal" unicode="=" horiz-adv-x="647" 
d="M55 426h592v-69h-592v69zM55 227h592v-65h-592v65z" />
    <glyph glyph-name="greater" unicode="&#x3e;" horiz-adv-x="696" 
d="M55 575l641 -254v-56l-641 -250v68l536 210l-536 213v69z" />
    <glyph glyph-name="question" unicode="?" horiz-adv-x="353" 
d="M196 125c-94 77 -42 185 -6 263l24 52c38 83 71 139 31 206c-14 24 -33 38 -63 39c-21 0 -41 -6 -50 -20c-17 -26 4 -39 8 -64c2 -15 -4 -30 -19 -43c-12 -9 -25 -15 -39 -9c-11 4 -23 16 -27 36c-6 29 4 54 32 81c40 38 101 48 147 36c49 -13 94 -34 113 -92
c23 -73 -18 -143 -75 -230l-36 -55c-55 -84 -57 -109 -34 -196c3 -6 -2 -8 -6 -4zM187 89c15 4 33 1 49 -17c11 -12 17 -30 10 -50c-5 -17 -17 -32 -37 -36c-20 -5 -40 2 -52 17c-10 10 -17 28 -11 47s22 34 41 39z" />
    <glyph glyph-name="at" unicode="@" horiz-adv-x="921" 
d="M565 162c-50 -71 -99 -98 -169 -91c-46 4 -90 27 -117 84c-32 69 -7 183 37 248c55 82 114 118 189 115c38 -2 76 -17 101 -60c3 -5 11 -27 12 -35l23 79h80l-56 -202c-18 -67 -31 -121 -8 -146c17 -18 41 -20 67 -15c58 11 97 56 123 120c28 70 30 204 -27 284
c-75 107 -221 137 -313 132c-123 -6 -255 -52 -342 -208c-61 -108 -70 -264 -8 -380c67 -125 208 -181 316 -188c112 -8 222 19 354 101l26 -36c-186 -123 -391 -148 -553 -74c-156 71 -228 175 -247 324c-15 111 18 290 154 400c139 113 346 130 476 85
c120 -41 201 -131 225 -245c19 -87 6 -237 -86 -326c-48 -45 -126 -66 -173 -54c-45 12 -69 35 -84 88zM360 263c-5 -26 -10 -90 20 -118c23 -20 50 -22 73 -16c69 20 110 125 123 166c7 32 21 108 -7 140c-20 23 -50 30 -73 26c-81 -16 -126 -152 -136 -198z" />
    <glyph glyph-name="A" unicode="A" horiz-adv-x="777" 
d="M434 705c10 3 15 1 21 -15c0 0 7 -16 10 -25c15 -39 33 -102 33 -102c1 -4 16 -41 20 -52c2 -7 1 -11 4 -20l119 -351c13 -38 33 -99 88 -116c16 -5 40 -5 64 -5c0 0 5 -1 7 -7c1 -4 -1 -9 -1 -9c-4 -7 -12 -8 -22 -9c-3 -1 -11 -2 -24 -2l-158 5l-22 3h-60
c-13 0 -29 -5 -36 -4c-14 0 -27 -2 -27 18c1 7 11 9 23 9h24c28 0 19 4 49 10c0 50 -40 187 -55 201c-10 8 -78 3 -87 3h-14c-9 0 -22 2 -32 2h-68c-37 -56 -59 -139 -65 -195c8 -12 26 -13 34 -14c0 0 25 -1 31 -3c6 0 9 0 16 -1c7 1 30 -1 32 -12c1 -8 -6 -12 -15 -14
c-6 -1 -20 0 -26 0h-205c-4 0 -17 -1 -22 -1c-9 0 -12 -3 -22 5c-6 5 -4 13 3 18c8 6 13 3 20 4c7 0 14 1 21 1c2 0 11 1 21 3c32 5 28 3 51 34c26 34 21 29 32 58l151 413c2 5 20 59 20 66c0 4 -13 56 -11 65c0 6 -1 14 9 18c7 3 11 -13 21 -5c0 0 8 9 15 12c6 3 16 4 22 2
c3 5 7 11 11 12zM372 500l-72 -224c11 -4 28 -3 37 -3h139l-89 260c-8 -11 -11 -20 -15 -33z" />
    <glyph glyph-name="B" unicode="B" horiz-adv-x="720" 
d="M539 402c61 -16 146 -73 168 -145c15 -51 10 -137 -36 -189c-22 -25 -24 -22 -48 -32c-6 -3 -12 -5 -24 -12c-6 -3 -9 -7 -23 -12c-28 -10 -59 -12 -99 -12h-234h-27h-124c-5 0 -27 -5 -35 3c-5 5 -4 7 -4 12c1 12 22 13 35 13c11 0 22 -1 34 -1c21 0 56 1 66 8
c21 13 18 70 18 88v437c0 16 3 81 -22 96c-12 7 -31 6 -72 5c-11 0 -30 -1 -35 0c-14 0 -30 6 -23 20c5 10 18 8 28 8c9 0 18 1 28 1l254 6c65 2 189 5 253 -81c11 -15 24 -38 22 -64c0 0 -3 -21 -3 -34s2 -25 -1 -33c-17 -45 -51 -66 -96 -82zM331 640
c-3 -15 -4 -10 -4 -25v-21c0 -11 -3 -25 -3 -34v-126c0 -5 3 -19 3 -22c36 -1 23 -5 58 -1c38 5 102 15 129 73c15 31 2 83 -18 113c-46 69 -87 57 -150 68c-17 -7 -12 -15 -15 -25zM318 263v-120c0 -15 -2 -92 15 -103c3 -2 15 0 32 1c16 1 18 -8 32 -4c10 2 20 5 32 7
c7 1 32 -3 33 -3c53 7 92 67 109 108c19 48 18 100 -22 151c-77 100 -107 72 -189 72h-34c-5 -37 -8 -74 -8 -109z" />
    <glyph glyph-name="C" unicode="C" horiz-adv-x="691" 
d="M669 465c-2 -4 -7 -5 -10 -2c-6 7 -7 11 -10 17l-14 27c-49 95 -55 145 -161 163c-69 11 -164 2 -233 -72c-80 -86 -60 -240 -44 -327c15 -81 85 -186 180 -226c62 -27 152 -15 214 27c19 13 27 19 46 40c10 10 22 26 32 34c8 6 15 3 17 -6c-32 -107 -162 -154 -236 -162
c-116 -12 -242 2 -340 156c-77 121 -84 286 -8 411c102 169 232 177 358 164c0 0 52 -5 59 -6l41 -7c2 0 24 -3 27 -2c9 3 11 13 25 22c3 1 11 2 20 -5c8 -7 21 -90 22 -100l14 -116c2 -16 4 -24 1 -30z" />
    <glyph glyph-name="D" unicode="D" horiz-adv-x="857" 
d="M42 8c-2 4 0 10 0 10c7 12 29 9 36 9h15c15 0 84 -2 99 10c11 12 18 83 18 97l5 415c0 21 6 74 -19 99c-20 19 -81 11 -98 18c0 0 -14 1 -16 7c-1 4 -1 6 0 10c2 7 11 9 20 9h21h24l46 -3h293c99 0 244 -18 322 -160c54 -98 60 -285 -5 -389
c-81 -130 -183 -140 -306 -140h-410l-23 -2c-6 -1 -19 2 -22 10zM331 616c-4 -34 -3 -61 -3 -65v-420c0 -13 1 -88 17 -98c16 -11 173 -3 191 4c88 35 162 130 175 200c20 113 26 242 -95 366c-66 67 -206 70 -249 62c-30 -6 -33 -20 -36 -49z" />
    <glyph glyph-name="E" unicode="E" horiz-adv-x="705" 
d="M589 536c-1 -5 -5 -8 -11 -4s-9 20 -12 37c-5 26 -5 36 -9 43c-16 29 -53 34 -85 37c-18 1 -92 6 -140 2l-5 -5c-4 -9 -5 -16 -5 -23l-6 -191c0 -5 -1 -14 0 -21c1 -9 0 -19 6 -23c5 -3 18 0 18 0c26 0 95 -12 117 18l11 15c5 7 5 7 9 16c7 16 11 26 27 22
c7 -2 7 -9 7 -20c0 -10 -1 -10 -3 -21c-2 -13 -3 -19 -4 -39c-2 -29 -1 -63 -1 -80v-40c0 -5 -1 -18 -5 -20c-11 -4 -12 5 -12 5c-7 29 -13 88 -56 101c-12 4 -52 4 -104 0c-6 -6 -9 -6 -9 -18v-20c0 -15 -2 -23 -2 -40v-24c0 -13 1 -26 1 -39v-50c0 -20 -11 -100 15 -119
c31 -22 201 6 235 18c23 8 59 23 77 39c8 7 17 16 37 39l17 20c3 5 5 6 9 7c5 1 7 1 11 -3c7 -7 -1 -23 -4 -28l-11 -17c-6 -9 -12 -18 -17 -29c-7 -14 -12 -21 -19 -37c-11 -23 -22 -57 -22 -57c-2 -6 -7 -21 -18 -21c-5 0 -8 1 -12 4c-6 5 -10 12 -14 21l-3 9h-417h-21
h-24c-13 0 -16 -2 -21 0c-8 2 -8 7 -5 12c4 8 27 9 36 10c23 1 34 3 41 9c12 11 13 54 13 78l5 461c0 21 7 67 -21 88c-7 6 -27 8 -34 11c-5 2 -32 2 -24 19c3 5 13 6 19 6h22h45l28 -1h262c20 0 40 -5 62 -3l30 3c8 3 22 17 32 13c7 -3 11 -11 8 -18c-1 -3 -14 -32 -16 -37
c-4 -11 -7 -22 -12 -39c-10 -30 -13 -45 -16 -76z" />
    <glyph glyph-name="F" unicode="F" horiz-adv-x="601" 
d="M615 542c0 0 1 -7 -5 -8c-10 -2 -13 6 -13 6c-9 27 -47 106 -85 116c-10 3 -166 10 -176 2c-12 -8 -16 -87 -16 -100v-133c0 -14 -3 -19 -2 -32c6 -10 22 -9 23 -9c9 -2 18 -2 24 -2c18 1 39 2 51 13c22 20 9 74 12 97c1 9 5 16 7 24c4 16 11 22 22 15c6 -4 9 -13 10 -19
c1 -7 2 -12 3 -22l3 -56c0 -7 11 -73 3 -104c-13 -54 -4 -93 -8 -104c-5 -15 -11 -20 -17 -22c-5 -2 -14 -3 -17 8c-1 3 1 44 1 46s0 29 -4 46c-5 23 -9 32 -34 40c-11 3 -65 8 -74 0c-8 -8 -6 -82 -6 -91v-135c0 -9 -6 -71 22 -87c6 -4 18 -7 51 -7h26c11 0 17 -7 15 -15
c-1 -4 -3 -5 -6 -7c-6 -4 -24 -2 -30 -2h-109h-22h-118c-6 0 -16 -1 -24 -1s-21 -4 -25 6c-2 5 0 9 2 13c4 7 13 8 18 8c5 1 8 0 23 1c26 1 40 4 48 12c15 14 14 66 14 89v417c0 18 5 96 -20 113s-55 -2 -79 7c-4 0 -14 2 -17 11c-1 3 0 5 1 8l2 4l3 2c6 5 82 4 88 4h140h25
h148c26 0 39 -3 43 -2c5 1 15 1 22 5c10 10 8 14 19 19c7 3 15 2 20 -2c9 -8 19 -94 19 -112z" />
    <glyph glyph-name="G" unicode="G" horiz-adv-x="780" 
d="M712 457c0 -4 -5 -12 -15 -4c-7 5 -15 24 -17 27c-4 8 -13 23 -22 40l-8 15c-52 98 -57 125 -163 145c-62 12 -167 9 -230 -60c-84 -92 -80 -293 -53 -386c25 -85 77 -184 189 -213c36 -10 152 2 177 27c14 13 16 104 13 119c-5 24 -6 21 -29 28c-20 6 -53 8 -67 9
c-11 0 -22 1 -34 1c-9 0 -30 1 -32 13c-2 9 2 15 12 17c5 1 45 4 45 4c8 0 15 -2 23 -2l168 8c1 0 22 -1 40 -1c5 0 15 0 21 -1h20c17 0 34 -3 40 -6c7 0 14 -4 16 -14c2 -11 -4 -18 -12 -17c-12 0 -89 4 -100 -15c-4 -5 -3 -43 -3 -48c0 -10 0 -18 1 -25c0 -2 1 -7 3 -11
c3 -6 7 -8 6 -13c-2 -19 -54 -49 -72 -59c-125 -67 -283 -70 -407 -5c-107 57 -165 196 -173 274c-12 116 19 237 141 339c118 100 288 80 376 56l54 -15c8 -2 16 -5 22 -1c12 8 13 15 19 19c7 2 9 2 16 -4c7 -7 16 -78 20 -111z" />
    <glyph glyph-name="H" unicode="H" horiz-adv-x="944" 
d="M333 371c4 0 11 0 14 -1h324v178c0 16 7 94 -16 109c-21 15 -61 1 -81 6c-11 3 -16 3 -19 12c-2 6 0 12 6 18c9 9 79 5 98 5h233c5 0 29 1 36 -7c4 -5 5 -13 1 -19c-7 -10 -31 -6 -31 -6c-16 -3 -78 3 -94 -14c-16 -16 -14 -63 -14 -87v-440c0 -20 -9 -74 19 -90
c24 -13 51 -1 105 -13c7 -2 9 -20 -9 -21c0 0 -22 -1 -24 -1h-191h-22h-70c-33 0 -31 0 -36 4c-4 3 -5 9 -3 13c5 9 10 9 17 11c1 1 65 1 78 12c24 19 18 93 18 114v162c-7 9 -11 10 -21 10c-10 2 -9 1 -21 1h-215c-6 0 -83 4 -91 -5c-5 -6 -6 -81 -6 -88v-103
c0 -15 -4 -82 20 -98c5 -3 30 -2 37 -2c22 0 35 2 41 -5c3 -3 6 -6 6 -12c0 -8 -6 -12 -11 -13c-13 -3 -27 -1 -33 -1h-301c-5 0 -11 7 -10 13c2 11 8 12 14 12c22 1 78 -8 99 12c18 18 18 53 18 84v467c0 13 -1 26 -1 38c0 22 -1 33 -9 39c-5 3 -38 2 -45 2
c-15 1 -19 1 -23 2c-5 0 -14 -1 -19 7c-2 3 -3 8 0 12c8 11 29 9 33 9h194c41 0 82 1 91 -5c3 -2 4 -8 3 -16c-3 -10 -10 -9 -20 -11c-6 -2 -62 0 -70 -7c-12 -10 -12 -87 -12 -98v-147l-1 -23c0 -7 3 -14 14 -19z" />
    <glyph glyph-name="I" unicode="I" horiz-adv-x="466" 
d="M461 684c4 -3 4 -14 0 -18c-6 -5 -22 -5 -32 -4c-5 1 -27 0 -31 0c-22 0 -47 3 -62 -11c-14 -13 -19 -42 -18 -70c0 0 3 -45 2 -75c-1 -44 -2 -380 -2 -380c0 -21 -2 -73 30 -91c10 -6 28 -8 58 -8h29c4 0 23 2 30 -5c3 -3 3 -10 1 -14c-5 -12 -28 -8 -37 -8h-335
c-7 0 -17 0 -25 1c-7 1 -11 1 -13 9c-1 4 3 9 7 11c40 14 86 -3 110 15c25 18 25 88 26 99v298c0 7 4 33 1 45c-4 17 0 92 0 92c0 16 -3 68 -28 86c-15 10 -67 9 -87 10c-15 1 -16 25 0 26c2 0 26 1 28 1h239c5 0 23 -1 28 -1l50 -2c6 0 22 2 31 -6z" />
    <glyph glyph-name="J" unicode="J" horiz-adv-x="576" 
d="M552 690c2 -3 3 -8 1 -12c-5 -9 -14 -8 -23 -9l-23 -3c-14 -2 -31 -7 -45 -22c-19 -20 -15 -48 -16 -77l-9 -274c-3 -106 -18 -199 -145 -270c-42 -23 -143 -61 -193 -36c-26 13 -46 37 -50 66c-3 20 5 47 23 64c14 12 31 16 48 11c16 -4 31 -16 38 -38
c7 -21 2 -31 2 -72c7 -12 17 -6 29 -6c3 0 14 2 28 7c19 7 44 19 61 32c50 41 47 138 47 150v346c0 34 8 80 -28 105c-27 18 -68 5 -111 14c-5 1 -7 10 -4 15c5 9 21 9 30 9h28l274 7h19c7 0 15 -1 19 -7z" />
    <glyph glyph-name="K" unicode="K" horiz-adv-x="847" 
d="M320 385c26 29 36 40 45 53c14 19 18 34 38 54l58 46l57 64l29 35c7 7 7 7 10 16c0 0 0 6 -5 8c-6 3 -10 1 -15 1h-28c-9 0 -24 -2 -27 9c-1 6 0 11 2 16c4 5 11 6 17 7h38h18l29 3c14 0 19 4 28 4c37 2 19 -4 58 -8h14c29 0 36 3 75 3h18c4 0 23 4 30 -4
c10 -9 5 -18 -10 -23c-8 -4 -20 -3 -29 -3h-33c-33 0 -99 0 -138 -36c-36 -35 -98 -95 -124 -135c-16 -24 -12 -35 0 -60l37 -62l158 -255c28 -45 34 -64 86 -78c27 -8 25 -6 52 -12c15 -3 10 -3 25 -6c11 -2 23 -4 21 -16c-1 -8 -26 -6 -36 -6h-121c-110 0 -74 -31 -141 81
l-123 205c-19 32 -28 43 -69 95c-33 -27 -48 -36 -49 -69c0 0 -3 -74 -3 -76v-102c0 -6 -8 -74 18 -95c9 -8 21 -11 52 -13c5 -2 14 -2 25 -2c7 0 19 3 26 -5c4 -5 3 -10 1 -13c-6 -8 -14 -6 -18 -6h-20h-308c-8 0 -22 -4 -30 4c-3 3 -5 9 -1 17c4 7 20 5 20 5
c19 5 75 -6 95 13c24 21 21 86 21 109l6 410c0 10 8 78 -24 98c-29 17 -37 7 -98 15c-8 1 -7 9 -6 14c1 10 21 9 35 9h18l33 2h29c24 0 70 6 74 6h15c43 -7 33 -11 69 -10c7 0 64 4 70 -2c5 -4 9 -9 7 -16c-2 -8 -8 -12 -19 -12c-12 -3 -61 4 -76 -10
c-13 -13 -6 -92 -6 -105v-162z" />
    <glyph glyph-name="L" unicode="L" horiz-adv-x="667" 
d="M466 687c4 -6 4 -19 -21 -20c-23 -1 -74 9 -99 -11c-18 -15 -15 -69 -15 -87c0 0 -10 -139 -3 -229c6 -75 -2 -194 -2 -194c0 -13 -3 -86 10 -100c12 -13 91 -13 105 -13h68c59 0 87 1 132 63c12 17 32 53 43 71c0 0 1 6 10 3c7 -2 8 -8 8 -8c-1 -16 -2 -23 -3 -28
l-19 -80c-3 -11 -17 -85 -35 -91c-5 -2 -13 -3 -18 4c-4 7 -2 17 -4 23c-4 7 -15 9 -23 9l-25 1h-438h-17h-17h-30c-25 2 -21 23 -9 27c64 13 106 -3 124 12c17 13 19 97 19 100c0 0 4 130 0 214c-4 83 -2 109 -2 109c0 14 2 122 2 127v23c0 20 -1 33 -16 45
c-16 12 -64 14 -81 17c-10 2 -10 22 10 22c6 0 25 1 30 1h276c10 0 34 -1 40 -10z" />
    <glyph glyph-name="M" unicode="M" horiz-adv-x="1030" 
d="M560 216l125 383c5 15 19 86 42 98c2 1 28 -5 76 -5c35 0 31 1 76 4l18 1c20 1 33 3 36 -7c3 -11 -12 -15 -27 -18l-25 -5c-6 -1 -34 -11 -35 -11l-41 -16c-3 -38 -4 -55 3 -87l95 -414c5 -24 13 -89 55 -108c9 -4 24 -7 44 -9c5 0 14 -1 22 -1c13 0 18 1 22 -6
s3 -15 -7 -15h-310c-6 0 -23 -2 -31 -1c-18 3 -18 7 -17 16c1 8 27 9 28 9c10 0 21 2 31 2c18 1 51 1 60 11c15 16 -5 79 -9 97l-79 329c-1 3 -10 24 -10 25l-155 -433c-3 -9 -8 -22 -16 -28h-5c-8 5 -20 28 -22 36l-196 445c-2 3 -9 17 -13 22c-3 -14 -3 -9 -5 -24
l-39 -334c-1 -12 -16 -97 18 -126c13 -10 27 -11 64 -15c11 -4 22 -2 32 -5c14 0 19 -24 5 -25c-5 0 -35 -1 -42 -1h-267s-7 -3 -8 4c-1 3 1 5 3 8c5 7 16 7 26 9l28 5c22 4 38 13 55 34c23 29 30 70 36 112l49 337c8 52 22 87 -32 131c-16 13 -32 21 -58 27
c-9 2 -18 5 -30 5c-8 0 -30 -1 -34 8c-3 6 1 11 6 13s98 0 98 0c138 0 118 45 177 -82z" />
    <glyph glyph-name="N" unicode="N" horiz-adv-x="926" 
d="M723 199v22c0 15 3 15 3 23c0 4 2 19 2 24v277c0 24 7 91 -28 111c-5 3 -19 6 -51 9c-14 1 -27 1 -28 1c-7 0 -22 0 -26 7c-3 4 -5 8 -3 14c3 9 11 10 21 10h21h246c12 0 25 1 31 -10c4 -7 2 -10 -1 -15c-3 -6 -21 -6 -21 -6c-15 -4 -79 2 -94 -13
c-17 -17 -20 -68 -20 -91v-480c0 -85 -4 -94 -11 -95c-7 0 -8 1 -18 10l-22 21l-80 91c-11 12 -17 18 -21 23c-1 2 -4 8 -7 12s-9 9 -11 11l-290 311l-6 -300c-1 -29 -7 -99 32 -122c12 -9 27 -9 51 -11c7 0 19 -1 27 -3c11 -3 17 -8 15 -18c-2 -9 -7 -10 -19 -11
c-9 -1 -10 -1 -23 -1h-199h-38h-16c-13 0 -25 0 -32 5c-3 2 -6 3 -6 9s3 9 6 10c9 5 24 5 64 6c23 0 48 3 66 18c26 23 24 58 25 84l6 112c0 3 1 38 1 42v148c0 39 7 70 -24 111c-30 40 -72 81 -107 103c-36 23 -48 17 -96 19c0 0 -10 -2 -10 14c0 14 10 13 10 13h143
c115 0 77 20 165 -80l341 -388c4 -5 24 -27 32 -27z" />
    <glyph glyph-name="O" unicode="O" horiz-adv-x="836" 
d="M370 711c95 12 269 -8 374 -130c74 -85 100 -236 74 -327c-38 -135 -145 -216 -268 -255c-124 -39 -259 -24 -380 74c-107 87 -131 199 -120 304c11 113 78 231 193 292c29 15 86 37 127 42zM265 605c-86 -101 -90 -275 -67 -368c22 -85 66 -170 169 -210
c55 -22 135 -11 189 23c101 63 129 173 134 259c4 79 -19 236 -117 315c-62 50 -150 64 -210 48c-36 -10 -69 -32 -98 -67z" />
    <glyph glyph-name="P" unicode="P" horiz-adv-x="680" 
d="M442 18c2 -4 2 -10 -2 -14c-7 -7 -21 -4 -31 -4h-22h-34h-262c-7 0 -14 -2 -23 0c-4 1 -8 2 -9 6s-1 8 2 12c5 7 19 5 26 8c8 0 19 1 28 1c27 1 48 2 60 12c28 21 30 88 30 110v394c0 20 4 98 -30 115c-4 3 -20 5 -56 5c-11 1 -23 0 -26 0c-9 -3 -25 1 -25 11
c0 11 9 15 21 15c7 2 19 2 28 3h15c8 0 20 1 29 1h233c78 0 183 2 250 -99c38 -58 53 -125 26 -187c-35 -82 -82 -80 -161 -100c-57 -15 -167 8 -183 -4s-9 -88 -9 -100v-81c0 -20 -3 -67 25 -83c8 -6 27 -8 52 -9c14 -1 19 -1 25 -2c11 0 19 -2 23 -10zM326 617l-8 -205
c0 -5 2 -49 4 -71c43 -5 119 -5 151 9c45 20 77 71 84 104c12 51 4 97 -35 143c-73 85 -114 69 -190 64c-4 -23 -5 -20 -6 -44z" />
    <glyph glyph-name="Q" unicode="Q" horiz-adv-x="836" 
d="M512 -23c33 -17 45 -26 75 -60l22 -25c73 -83 76 -100 155 -95c21 1 46 6 67 9c0 0 3 -1 3 -3c0 -3 -3 -4 -3 -4c-48 -23 -138 -37 -157 -38c-64 -2 -90 -2 -155 71l-18 20c-78 87 -81 102 -163 135l-25 10c-144 58 -231 130 -261 267c-25 117 0 227 115 338
c118 113 277 125 390 96c110 -28 221 -117 259 -242c28 -91 14 -242 -64 -329c-73 -82 -161 -127 -240 -150zM335 653c-104 -55 -143 -189 -148 -256c-7 -90 4 -258 119 -344c66 -49 136 -54 199 -30c124 48 158 120 181 231c23 115 0 256 -111 361c-60 58 -128 72 -188 57
c-19 -5 -42 -14 -52 -19z" />
    <glyph glyph-name="R" unicode="R" horiz-adv-x="811" 
d="M485 373c60 -32 98 -84 121 -142l13 -32c27 -66 46 -120 116 -137c44 -11 70 5 113 25c0 0 5 3 6 0s0 -6 0 -6c-46 -66 -126 -95 -181 -85c-111 21 -161 103 -194 216l-10 34c-11 36 -38 105 -88 121c-27 9 -42 3 -69 -3l-2 -35v-185c0 -19 -6 -89 17 -103
c11 -7 21 -5 57 -5c9 0 22 0 28 -1c11 0 23 -1 28 -10c3 -5 2 -13 -1 -17c-7 -10 -35 -8 -37 -8h-261h-27h-15c-9 0 -28 -3 -32 5c-4 9 -1 15 11 19c9 3 16 1 24 2c22 1 33 1 46 6c49 21 47 80 47 118v402c0 25 9 87 -28 108c-6 3 -25 7 -57 6c-9 0 -18 1 -28 2
c-11 1 -17 12 -9 21c7 8 21 7 30 7h56h30h31c3 -1 34 -3 63 -3h52c64 0 208 8 266 -72c21 -29 30 -119 15 -153c-30 -68 -64 -88 -131 -95zM310 598v-133c0 -39 0 -21 7 -59c34 -1 71 -2 100 6c40 11 72 41 84 78c14 41 5 82 -25 122c-53 68 -97 58 -156 54
c-9 -43 -10 -62 -10 -68z" />
    <glyph glyph-name="S" unicode="S" horiz-adv-x="578" 
d="M548 707c9 -3 8 -15 9 -22l3 -23l2 -23v-23v-107c0 -7 4 -34 -6 -37s-11 13 -14 22l-6 17c-18 52 -30 140 -101 163c-35 12 -80 7 -117 -22s-58 -66 -55 -101c5 -53 49 -85 109 -119l46 -26c102 -58 154 -103 155 -202c1 -58 -25 -126 -97 -171
c-120 -74 -236 -52 -358 -9c-16 6 -24 7 -33 3c-3 -2 -12 -7 -16 -10c-5 -5 -10 -9 -16 -9c-4 0 -8 1 -10 5c-5 9 2 16 10 41l39 126c3 9 7 23 7 34c5 14 5 24 13 28c5 3 8 -1 9 -5c15 -56 -6 -131 66 -187c48 -38 148 -28 197 -5c50 24 77 66 77 115c1 72 -52 105 -122 140
l-28 14c-96 48 -127 88 -134 166c-4 48 14 137 86 191c73 56 133 62 232 30c13 -4 20 -6 26 -4c6 3 17 13 27 10z" />
    <glyph glyph-name="T" unicode="T" horiz-adv-x="684" 
d="M115 688l457 8c29 1 30 -1 53 0c9 0 17 -1 28 5c9 7 15 19 26 19c8 1 13 -1 17 -7s1 -86 1 -93v-58c0 -2 -1 -29 -2 -33c0 -7 -7 -8 -9 -3c-21 37 -30 95 -88 118c-39 16 -121 18 -170 12c-6 -4 -7 -23 -7 -31l-3 -33v-425c0 -11 -6 -107 29 -131c13 -9 65 0 86 -6
c6 0 16 0 18 -12c1 -7 -2 -12 -7 -15c-4 -2 -76 -3 -91 -3h-250c-11 0 -30 -2 -38 1c-3 1 -8 5 -8 9c0 6 1 10 4 14c4 5 19 6 19 6c30 9 74 -7 94 11c23 21 24 87 24 108v414c0 12 4 79 -13 89c-14 8 -137 1 -151 -6c-43 -22 -71 -80 -90 -108c-5 -5 -11 -4 -10 4l4 33l5 35
c1 10 10 99 29 111c8 5 18 6 28 -6c3 -4 10 -24 15 -27z" />
    <glyph glyph-name="U" unicode="U" horiz-adv-x="874" 
d="M442 663c-11 -1 -94 2 -107 -10c-15 -13 -15 -55 -15 -79v-284c0 -59 -6 -173 81 -224c44 -26 125 -29 175 -2c110 61 112 144 112 239v213c0 25 2 105 -42 135c-11 7 -22 10 -44 10h-21h-24c-9 0 -15 4 -17 14c-1 5 2 13 10 17c4 2 54 2 60 2c10 0 21 2 31 2
c5 1 20 0 31 3h30c13 0 31 4 52 0c31 -5 30 -6 52 -6h50l27 -2c9 -1 11 -13 7 -20c-4 -8 -30 -5 -30 -5c-2 0 -89 1 -113 -24c-22 -22 -17 -55 -17 -85v-275c0 -110 -11 -199 -128 -268c-69 -41 -196 -55 -274 -10c-98 56 -137 191 -134 285l7 255c0 17 8 88 -21 109
c-20 15 -99 8 -114 12c-8 2 -15 4 -17 11c-2 5 0 12 5 17c7 7 85 5 94 5h122c15 0 46 -5 100 -5h24h27c4 0 18 -2 23 -4c16 -7 7 -26 -2 -26z" />
    <glyph glyph-name="V" unicode="V" horiz-adv-x="925" 
d="M459 670c-2 -8 -19 -10 -19 -10c-12 -6 -81 4 -94 -13c-11 -16 18 -85 25 -100l171 -381l15 23c2 5 10 20 14 25l132 292c10 23 48 112 33 136c-9 14 -23 18 -48 19c-10 1 -24 -1 -34 1c-18 4 -17 17 -10 27c5 7 37 5 47 5h165c5 0 12 -1 20 -1c15 0 39 2 39 2
c9 0 25 1 31 -5s2 -13 -5 -16c-82 -20 -114 3 -165 -113l-225 -508c-3 -8 -29 -84 -45 -84c-10 1 -39 75 -43 84l-213 480c-16 36 -56 120 -114 127c-52 6 -31 -2 -82 9c0 0 -7 3 -7 12c0 5 4 8 7 10c7 5 18 3 25 3l253 -2c5 0 14 -4 21 -3c30 2 70 0 70 0c2 0 24 1 27 -1
c10 -4 11 -10 9 -18z" />
    <glyph glyph-name="W" unicode="W" horiz-adv-x="1013" 
d="M697 -33c-6 0 -10 10 -13 18l-121 379l-3 -3l-2 -4l-2 -4l-94 -244c-7 -18 -11 -33 -12 -36l-27 -88c-1 -9 -4 -21 -11 -22c-4 -1 -7 3 -9 6c-8 13 -14 33 -19 46l-189 536c-18 50 -28 90 -82 103c-2 1 -14 3 -33 4c-8 0 -27 -3 -32 7s-2 21 12 22l31 2c35 2 43 2 63 1
l193 -6c8 0 21 2 33 -3c5 -2 8 -8 6 -13c-5 -13 -27 -10 -39 -12s-28 -2 -38 -18c-15 -23 24 -117 26 -125l94 -255c11 -29 9 -31 18 -66c4 5 9 29 11 35l123 308c3 8 4 15 11 25c8 11 11 15 20 14c8 -1 13 -21 14 -25l71 -242c0 -2 4 -10 5 -14l26 -74c3 -9 7 -31 10 -34
l106 274c10 26 53 160 31 185c-9 11 -20 16 -50 16h-24c-14 0 -21 0 -27 9c-3 5 -4 10 0 15c7 9 20 8 29 8c6 0 17 1 26 1h113c2 0 84 0 90 -4c5 -3 7 -7 3 -17c-4 -9 -16 -9 -31 -12c-39 -7 -58 -71 -72 -106l-222 -564c-5 -12 -7 -23 -13 -23z" />
    <glyph glyph-name="X" unicode="X" horiz-adv-x="847" 
d="M409 667c-24 -5 -35 -3 -47 -6c-3 -1 -7 -2 -8 -7c-3 -13 1 -22 20 -55l92 -161l16 -21l95 145c13 20 30 47 41 86c2 8 -15 11 -35 12c-3 0 -26 0 -33 5c-5 4 -5 15 0 19c11 9 79 7 87 8h77s9 2 15 2c8 0 10 -1 22 -1l57 1c8 0 29 2 33 -9c1 -4 1 -10 -4 -11
c-115 -12 -131 -5 -215 -129l-57 -84c-76 -112 -72 -66 -4 -175l108 -172c28 -45 31 -67 81 -77c13 -2 31 -3 54 -4c6 0 19 -1 27 -2c14 -2 19 -10 15 -22c-3 -10 -9 -7 -23 -9h-24h-284c-14 0 -18 2 -20 3c-5 0 -16 2 -18 10c-1 4 0 11 0 11c5 9 6 9 16 12h21
c23 1 34 2 41 10c10 14 -37 89 -46 103l-76 123c-37 -48 -51 -68 -63 -89l-63 -109c-3 -4 -10 -17 -10 -28c6 -9 16 -9 22 -9c2 0 7 -1 11 -1c6 0 8 0 13 -1c4 -1 19 -1 23 -5c8 -9 7 -17 3 -22c-8 -11 -22 -8 -39 -8h-177c-9 0 -46 -1 -54 0c-2 0 -26 2 -31 5
c-13 7 -6 26 4 27c129 8 128 -8 200 94l71 101c70 100 75 69 11 171l-96 153c-75 119 -52 91 -164 110c-16 3 -23 4 -27 14c-2 4 -2 10 5 15c6 6 52 2 61 2c8 0 19 1 29 1s21 1 30 1h54h66h22c21 0 23 2 48 0c2 0 20 -3 23 -4c14 -4 15 -19 4 -23z" />
    <glyph glyph-name="Y" unicode="Y" horiz-adv-x="771" 
d="M393 665c-6 -3 -23 -3 -42 -3c-22 0 -36 0 -41 -9c-10 -14 33 -94 41 -108l82 -147c7 -10 12 -19 19 -28l63 97c15 24 82 165 81 187c0 1 -4 4 -5 4c-6 3 -14 3 -16 3l-60 5s-14 -1 -17 5c-4 6 -4 20 7 23c6 2 21 2 28 2h224c11 0 36 1 39 -9c2 -7 0 -12 -5 -13
c-81 -16 -106 -16 -149 -76l-38 -53c-48 -67 -109 -176 -121 -245c-7 -44 -9 -175 4 -245c3 -17 3 -21 21 -23c19 -2 28 -2 47 -4c7 -1 18 0 23 -3c12 -5 10 -22 1 -25c-4 -2 -20 -3 -27 -2c0 0 -25 2 -27 2h-267c-5 0 -20 -2 -23 8s-1 18 17 21c11 2 81 -2 94 7
c15 10 16 78 16 91v65c0 97 11 83 -43 180l-106 189c-52 93 -38 95 -132 101c-22 2 -33 4 -36 10s-2 12 3 17c9 9 89 6 99 5h121c5 2 25 -1 30 -1h33l44 -1c2 -1 15 1 22 -5c6 -5 4 -18 -4 -22z" />
    <glyph glyph-name="Z" unicode="Z" horiz-adv-x="785" 
d="M309 721c7 -4 10 -20 10 -20c3 -6 15 -4 22 -5c5 -1 24 -3 42 -3l305 8c6 0 90 2 98 -5c4 -4 8 -7 6 -16c-2 -10 -52 -52 -70 -74l-11 -13c-5 -5 -30 -32 -32 -36l-226 -267c-5 -6 -9 -10 -9 -10c-1 -1 -5 -7 -8 -9c-8 -8 -13 -14 -19 -21l-55 -59
c-14 -16 -31 -40 -44 -57l-67 -89h71c66 0 248 -7 332 85c4 4 16 15 30 36c6 8 13 33 28 30c5 -1 5 -7 5 -7l-47 -138l-8 -20c-2 -6 -7 -15 -9 -21l-5 -14c-4 -8 -4 -20 -13 -28c-9 -7 -23 -7 -28 -1c-7 9 -1 11 -7 30c-2 6 -25 3 -36 3h-472c-5 0 -28 -3 -31 3
c-3 5 0 7 0 7l534 643h-22c-5 2 -15 1 -20 1h-29c-26 0 -123 4 -170 -19c-21 -10 -64 -27 -85 -43c-4 -4 -21 -18 -42 -40c-6 -6 -11 -12 -18 -19c-6 -9 -14 -14 -21 -12c-2 1 -5 2 -6 5c-3 8 0 12 5 22l37 71c16 31 27 56 32 64c9 15 17 27 23 32c8 6 20 12 30 6z" />
    <glyph glyph-name="bracketleft" unicode="[" horiz-adv-x="307" 
d="M69 699c18 2 25 3 31 3h36h17h27c14 0 18 -1 29 -1c16 -1 15 -3 31 -2c36 1 52 3 60 -2c6 -4 9 -12 7 -17c-3 -9 -14 -12 -21 -14c-23 -5 -116 13 -138 -4c-10 -8 -10 -15 -11 -45c0 -5 1 -17 -1 -23c0 -3 -1 -16 -1 -24v-627c0 -15 -5 -100 14 -112c16 -10 91 6 119 1
c14 -3 21 -7 23 -13c3 -8 0 -11 -5 -17c-3 -3 -81 -2 -86 -2h-120s-11 -1 -16 1c-10 4 -9 13 -9 21c0 5 -1 14 -1 21v811c0 9 3 18 3 26c0 12 1 15 12 19z" />
    <glyph glyph-name="backslash" unicode="\" horiz-adv-x="406" 
d="M51 726h61l288 -747h-60z" />
    <glyph glyph-name="bracketright" unicode="]" horiz-adv-x="307" 
d="M57 -186c-1 14 12 18 33 18c5 0 13 -1 19 -1h21c14 0 71 0 78 5c13 8 12 19 13 45c0 7 1 15 1 23c0 13 -1 16 3 24v63l-4 36l6 530c0 8 -1 20 -1 30v29c0 20 0 46 -18 55c-3 2 -71 2 -76 1c-18 -1 -20 -4 -38 -2c-19 0 -26 8 -24 21c2 12 25 11 36 11h42c9 0 18 -1 28 -1
h29c7 0 86 4 93 -3c8 -8 6 -54 6 -79v-728c0 -7 -2 -81 -9 -87c-9 -9 -86 -7 -100 -7h-76h-38c-20 0 -23 6 -24 17z" />
    <glyph glyph-name="asciicircum" unicode="^" horiz-adv-x="272" 
d="M268 376c-3 -2 -4 2 -7 2c-2 0 -4 -2 -6 -2s-4 1 -4 1c-2 0 -11 5 -17 3c-9 -4 -18 6 -32 22l-28 33c-19 22 -12 13 -28 30l-13 -13c-14 -17 -22 -28 -35 -43c-5 -6 -16 -17 -19 -20c-4 -4 -16 -11 -23 -8c-13 6 -2 17 7 28l25 32c9 12 55 87 76 85c15 -2 25 -25 43 -55
c23 -38 19 -23 45 -63l9 -14l3 -4l4 -5l1 -4s0 -4 -1 -5z" />
    <glyph glyph-name="underscore" unicode="_" horiz-adv-x="570" 
d="M57 49h512v-49h-512c-1 12 -1 18 0 49z" />
    <glyph glyph-name="grave" unicode="`" horiz-adv-x="198" 
d="M55 517h9h10h20c5 0 5 -1 9 -1c6 0 5 0 12 -1c6 0 10 -7 14 -16c3 -8 9 -19 12 -29c8 -19 6 -13 16 -31c3 -5 34 -53 38 -60c3 -6 -6 -10 -21 -2c-5 3 -14 9 -22 16c-11 9 -29 25 -41 37c-9 9 -24 25 -40 44c-4 6 -10 13 -17 21c-8 8 -6 17 1 22z" />
    <glyph glyph-name="a" unicode="a" horiz-adv-x="376" 
d="M355 19c1 -4 -13 -13 -18 -16s-13 -7 -21 -9c-14 -5 -31 -6 -42 0c-12 5 -20 14 -36 41c-54 -40 -109 -65 -154 -39c-17 10 -29 27 -26 50c9 58 128 93 166 103l19 5c1 18 7 79 -22 100c-12 9 -33 12 -52 4c-28 -12 -23 -35 -29 -51c-6 -15 -15 -23 -31 -29
c-9 -3 -23 0 -30 11c-4 5 -8 15 -3 28c12 28 65 57 96 64c37 8 87 4 119 -27c30 -30 23 -103 23 -128v-23l3 -57c3 -49 37 -24 38 -27zM154 95c-15 -14 -19 -30 -17 -45c3 -16 12 -25 21 -29c14 -6 31 1 50 14c41 27 34 58 34 92c-40 -8 -69 -15 -88 -32z" />
    <glyph glyph-name="b" unicode="b" horiz-adv-x="450" 
d="M195 717c0 0 6 -1 6 -6c0 -9 -1 -22 -1 -33v-418c63 37 133 38 186 7c51 -31 61 -66 60 -116c-1 -49 -16 -107 -79 -141c-72 -39 -180 -23 -252 22c-2 7 -1 7 -1 13c0 3 3 8 7 14c3 12 2 13 2 27v544c-5 15 1 16 -6 26c-2 0 -17 -5 -21 -7c-8 -3 -16 -8 -22 -2
c-9 8 4 14 22 25c8 4 24 12 32 17c2 1 32 19 67 28zM199 155c1 -47 -5 -84 1 -101c9 -23 31 -36 54 -41c27 -7 56 0 79 22c30 27 33 87 29 110c-6 42 -21 89 -64 110c-25 12 -48 8 -66 -2c-37 -21 -34 -74 -33 -98z" />
    <glyph glyph-name="c" unicode="c" horiz-adv-x="338" 
d="M326 63c0 0 6 3 8 -2s-3 -10 -3 -10c-59 -55 -120 -67 -180 -52c-46 11 -80 52 -93 90c-11 31 -3 100 28 142c38 51 90 63 140 60c26 -1 86 -11 105 -43c6 -10 7 -20 1 -30c-4 -7 -12 -14 -26 -15c-19 -1 -24 8 -48 38c-19 25 -35 31 -58 28c-20 -2 -44 -15 -57 -41
s-13 -103 5 -134c25 -43 40 -58 84 -61c46 -3 56 6 94 30z" />
    <glyph glyph-name="d" unicode="d" horiz-adv-x="446" 
d="M380 716c6 -7 -1 -15 -2 -26l-2 -25v-571c0 -4 -2 -31 2 -33c3 -2 5 0 7 1c14 6 23 12 33 17c3 1 5 3 7 -1c3 -5 -2 -10 -2 -10c-9 -12 -74 -79 -106 -71c-21 6 -24 22 -27 47c-60 -61 -77 -53 -144 -39c-46 10 -73 50 -86 86c-12 35 -5 112 25 150c30 39 118 57 154 53
c19 -2 32 -5 51 -9c8 -2 8 9 8 36v281v26c0 14 -1 23 -10 25c-9 -3 -13 -3 -21 -9c-10 -4 -18 -5 -17 4c1 8 25 21 31 26c6 2 28 15 33 19l34 18c10 5 25 14 32 5zM140 126c5 -35 24 -73 60 -90c19 -9 37 -7 52 3c37 24 42 45 42 84c0 31 9 113 -30 141c-20 14 -45 12 -63 5
c-53 -22 -66 -109 -61 -143z" />
    <glyph glyph-name="e" unicode="e" horiz-adv-x="344" 
d="M340 169c-35 -5 -42 -1 -69 -1h-45h-14h-62l-18 -1c2 -43 1 -97 57 -127c47 -25 80 -26 146 9c0 0 7 3 9 -2c2 -6 -2 -15 -13 -23c-5 -4 -16 -9 -20 -11c-12 -6 -26 -11 -41 -14c-17 -4 -57 -8 -81 -5c-36 5 -96 22 -121 75c-16 35 -21 104 5 147c35 58 69 72 126 74
c42 2 88 -4 123 -54c5 -7 11 -18 17 -33c3 -8 9 -33 1 -34zM158 190c14 0 80 -6 95 6c10 9 6 17 4 26c-3 20 -17 34 -32 41c-19 9 -42 8 -57 0c-30 -17 -30 -41 -32 -73h22z" />
    <glyph glyph-name="f" unicode="f" horiz-adv-x="272" 
d="M215 417c22 3 18 2 42 6c0 1 20 6 22 6c6 1 17 0 20 -9c5 -18 -8 -21 -8 -21l-62 -14s-20 -5 -22 -6v-247c0 -11 -1 -91 17 -102c6 -4 22 -3 28 -3s24 -1 29 -9c2 -4 1 -12 -1 -14c-7 -7 -19 -4 -27 -4h-170c-8 0 -29 -2 -31 10c-1 6 0 10 7 12c22 6 58 6 58 6
c10 35 11 65 11 70v272c-10 -2 -11 1 -26 -4c-6 0 -18 -4 -25 -3c-4 1 -9 1 -10 9c-1 9 6 12 6 12c60 19 61 5 61 69v64c0 16 10 152 78 190c22 12 49 16 72 4c18 -9 27 -20 28 -28c1 -4 -2 -14 -19 -29c-10 -8 -18 -10 -26 -7c-16 7 -15 32 -38 36c-7 1 -17 -3 -27 -16
c-22 -27 -5 -130 -3 -149l5 -46c0 -5 2 -10 2 -15v-23c0 -2 0 -8 9 -17z" />
    <glyph glyph-name="g" unicode="g" horiz-adv-x="406" 
d="M350 250l-9 13c-3 0 -8 10 -14 12c-4 0 -12 -2 -15 -12c36 -44 34 -86 14 -126c-22 -46 -53 -63 -100 -64c-19 0 -46 5 -85 18c-4 -5 -6 -14 -6 -20c0 -12 4 -18 6 -21c12 -16 41 -20 67 -24l20 -3c74 -11 125 -6 163 -87c16 -34 18 -66 -6 -102c-15 -22 -19 -13 -35 -39
l-13 -21c-7 -12 -13 -16 -16 -20c-24 -30 -47 -38 -78 -41c-60 -7 -131 4 -188 73c-23 29 -23 57 -11 92c5 15 11 23 20 35c4 5 19 21 31 27c7 4 9 -1 7 -3c-20 -27 -39 -47 -26 -77c14 -34 102 -72 123 -76c31 -5 102 -6 134 27c17 18 24 37 19 56c-10 37 -92 63 -116 71
l-26 9c-27 9 -107 48 -113 85c-4 22 15 49 24 69c-38 30 -50 46 -48 88c2 28 21 66 53 86c37 23 120 12 165 2c18 20 39 45 59 41c12 -2 25 -9 30 -18c3 -5 5 -14 -3 -27c-13 -13 -12 -17 -27 -23zM145 191c-3 -27 9 -68 28 -84c12 -10 25 -12 41 -7c26 8 48 39 53 60
c9 33 -1 65 -19 85c-15 18 -34 23 -48 21c-37 -6 -52 -47 -55 -75z" />
    <glyph glyph-name="h" unicode="h" horiz-adv-x="486" 
d="M196 720v-18c0 -13 -2 -20 -2 -37c0 0 0 -35 -1 -57c0 -7 -1 -13 -1 -20l-1 -363s-1 -7 1 -8c3 -1 8 2 8 2c62 54 113 94 188 50c53 -30 35 -90 35 -129v-36c0 -9 -8 -71 6 -80c3 -2 22 0 27 -1c9 0 25 1 30 -8c2 -4 1 -7 -1 -10c-6 -8 -26 -5 -35 -5h-125
c-7 0 -29 -3 -34 4c-3 4 -3 6 -1 10c4 10 23 10 31 10c17 0 17 7 22 22c1 5 5 157 -16 182c-11 14 -23 20 -42 16c-14 -3 -82 -39 -90 -62c-2 -6 1 -143 5 -149c5 -8 13 -10 26 -10c11 0 21 -3 20 -14c-1 -9 -13 -6 -21 -9h-25h-85h-18h-17c-8 0 -19 -3 -25 5c-2 3 -2 5 0 9
c5 10 26 10 34 10c2 1 15 2 17 4c5 4 7 14 8 18c2 7 4 36 4 72v358c0 10 -1 23 -1 35v108c0 12 4 42 -5 44c-6 1 -45 -13 -52 -17c-4 -2 -6 1 -7 6c-1 7 23 20 29 22l31 15l28 13l31 17c11 6 23 12 24 1z" />
    <glyph glyph-name="i" unicode="i" horiz-adv-x="268" 
d="M152 521c13 5 30 1 43 -9c11 -8 19 -21 19 -37c-1 -17 -13 -34 -27 -44c-10 -6 -29 -7 -44 0c-20 9 -22 17 -24 35c-3 23 7 46 33 55zM192 285c6 2 6 -5 6 -17v-14v-15l-2 -126c0 -12 -5 -79 9 -89c4 -1 21 -1 25 -1c7 0 22 2 27 -5c3 -4 3 -10 0 -13
c-5 -6 -21 -5 -31 -5h-124c-8 0 -28 -3 -32 3c-2 3 -2 5 -1 8c3 9 21 4 37 9c17 6 15 15 18 31c2 12 1 60 1 74v78v25c0 0 -2 6 -6 7c-5 2 -21 -5 -22 -5c-4 -1 -20 -7 -25 -1c-2 3 1 7 1 7c38 21 79 39 119 49z" />
    <glyph glyph-name="j" unicode="j" horiz-adv-x="268" 
d="M143 522c14 5 32 3 49 -10c13 -10 20 -21 19 -35s-15 -36 -30 -45c-9 -5 -37 -5 -47 0c-13 7 -20 19 -22 38c-2 23 5 43 31 52zM70 -272c-7 5 -9 14 -9 24c0 9 3 18 15 22c31 20 40 14 48 49c1 6 2 34 2 65v275v35c0 5 2 27 -5 34l-36 -18s-7 -2 -9 3s3 9 3 9
c24 21 98 77 117 67c9 -5 11 -14 9 -40c-2 -17 -2 -25 -2 -43l-7 -258c-2 -67 -28 -187 -126 -224z" />
    <glyph glyph-name="k" unicode="k" horiz-adv-x="462" 
d="M204 160l62 71c5 6 16 17 14 23c-16 3 -21 3 -35 4c0 0 -7 1 -9 6c-2 4 2 8 2 8c8 12 24 8 36 8h114c17 0 30 3 33 -6c2 -6 -3 -8 -3 -8c-68 -8 -69 2 -132 -59l16 -22c4 -7 12 -16 19 -25l30 -39c63 -82 45 -79 125 -106c0 0 4 -2 3 -8c-2 -11 -37 -7 -41 -7h-129
c-11 0 -23 0 -25 8c-1 4 -1 7 1 11c4 7 26 3 29 7c2 3 -3 9 -4 11c-20 38 -41 71 -79 108c-25 -28 -27 -25 -28 -56c-1 -8 -1 -25 0 -30c0 -9 -3 -24 2 -31c6 -8 42 1 47 -8c3 -5 4 -10 1 -14c-5 -7 -22 -6 -31 -6h-130c-11 0 -26 -2 -30 7c-2 4 0 6 1 10c3 9 27 8 35 10
c21 5 17 6 22 26c1 6 3 71 3 72v480c0 10 -2 20 -2 30c-3 7 0 26 -8 30c-5 2 -10 -5 -19 -8c0 0 -19 -6 -23 -1c-4 6 2 9 2 9c17 11 104 71 120 60c14 -9 6 -26 5 -37c0 -13 -1 -26 -1 -39v-200v-15z" />
    <glyph glyph-name="l" unicode="l" horiz-adv-x="268" 
d="M203 724c9 2 8 -11 7 -21c-1 -6 -2 -12 -4 -22c-4 -22 -2 -20 -3 -44c0 0 -4 -65 -4 -74v-111c0 -5 2 -13 2 -20v-324c0 -14 3 -67 17 -77c11 -8 15 -4 26 -7c9 -2 17 -1 23 -9c2 -2 2 -8 1 -10c-2 -8 -14 -5 -22 -5h-20h-14h-109h-6h-5c-2 0 -7 -1 -11 -1
c-2 0 -8 1 -12 1h-5s-8 0 -10 7c-1 5 3 10 3 10c5 7 20 3 32 6c20 0 23 3 29 21c3 8 7 45 7 73v367c3 11 -1 11 2 22v36v21l-1 22v31l-3 23c-1 5 1 18 -6 23c-4 4 -49 -10 -49 -10s-4 -1 -6 2c-3 4 1 6 1 6c36 25 98 55 140 64z" />
    <glyph glyph-name="m" unicode="m" horiz-adv-x="657" 
d="M405 230c50 50 86 73 136 48c81 -40 54 -83 54 -139v-21c0 -10 -8 -76 4 -90c5 -6 16 -5 26 -6c9 -1 23 1 19 -14c-2 -7 -11 -8 -21 -8h-123c-4 0 -18 1 -19 9c-2 12 3 12 7 15c7 4 23 0 24 12l5 28c5 30 16 145 -23 175c-11 8 -24 11 -40 4c-8 -4 -27 -18 -36 -29
c-15 -16 -11 -19 -13 -36c-1 -15 -14 -134 5 -147c3 -2 17 -4 20 -4s12 1 21 -4c5 -15 0 -19 -16 -19c-10 -3 -17 -4 -29 -4c0 0 -41 2 -55 2c-15 0 -34 -2 -40 -2h-36c-4 0 -8 3 -6 14c3 12 22 8 31 9c14 2 20 5 20 21c5 16 11 175 -3 192c-8 10 -21 16 -39 13
c-12 -2 -58 -30 -68 -54c-8 -19 -6 -121 8 -169l24 -1s10 -4 8 -11c-4 -15 -20 -15 -35 -15c-7 0 -13 1 -19 1c-1 0 -22 2 -37 2c-25 0 -62 -2 -62 -2h-17s-6 1 -7 6c-1 6 7 8 7 8c30 6 47 -1 49 37c1 10 2 23 2 35c0 10 2 23 2 35v30c0 17 4 30 1 48c0 6 -1 16 -1 24
c0 5 1 24 -8 25c-15 0 -22 -9 -35 -17c0 0 -7 -6 -10 2c-2 5 2 8 2 8c45 36 86 61 115 48c16 -7 14 -12 17 -26c0 -9 -5 -21 0 -32c57 48 84 76 139 56c17 -6 30 -13 37 -19c19 -18 13 -20 15 -38z" />
    <glyph glyph-name="n" unicode="n" horiz-adv-x="477" 
d="M204 230c60 51 107 76 168 45c67 -35 44 -68 44 -127v-30c0 -9 -8 -92 6 -97l4 -2l21 -2c10 0 24 -2 23 -11c0 -3 -2 -6 -8 -6c-64 3 -155 0 -174 0c-6 0 -6 5 -6 9c0 11 21 12 31 12c13 0 20 4 20 19c4 13 13 166 -8 197c-12 18 -16 18 -31 17c-18 -1 -81 -36 -93 -55
c-5 -8 -4 -156 -2 -164c3 -11 9 -16 22 -16c6 0 20 -1 25 -3c2 -1 7 -1 6 -7c-1 -8 -1 -9 -30 -9h-29c-3 0 -22 2 -36 2c-34 0 -84 -4 -87 -2c-7 5 -4 12 0 15s34 6 39 9c17 11 17 86 17 102v64c0 2 2 13 0 26c-1 6 1 19 -6 24h-5l-16 -5l-10 -3c-4 -1 -12 -3 -14 2
c-2 4 2 7 2 7c19 11 98 59 118 48c15 -8 11 -15 12 -26c0 -5 -4 -27 -3 -33z" />
    <glyph glyph-name="o" unicode="o" horiz-adv-x="406" 
d="M202 290c38 7 123 -8 163 -46c38 -37 47 -100 41 -132c-7 -38 -64 -96 -104 -112c-45 -18 -121 -24 -176 14c-49 35 -71 83 -69 132c1 48 34 93 82 122c17 10 43 18 63 22zM144 163c-2 -46 8 -99 57 -132c23 -16 53 -20 77 -9c36 17 43 57 46 83c2 21 -3 113 -46 147
c-24 18 -64 19 -84 12c-40 -15 -49 -70 -50 -101z" />
    <glyph glyph-name="p" unicode="p" horiz-adv-x="456" 
d="M211 9l-3 -36v-135l1 -25c0 -9 1 -17 1 -26c1 -23 2 -39 21 -49c4 -2 13 -4 36 -5c6 0 28 1 36 -4c6 -7 3 -18 -11 -20c-3 0 -20 1 -24 1l-152 4c-10 0 -21 -1 -32 -1c-5 -2 -33 -5 -35 7s8 18 28 18c6 1 33 0 40 3c18 7 16 70 16 85v363c-3 9 2 30 -5 37
c-6 4 -9 1 -20 -4c-7 -4 -16 -10 -21 -5s0 8 2 10c28 21 95 65 113 54c14 -8 8 -66 8 -77v-53c0 -25 -7 -108 30 -132c18 -11 42 -16 72 -4c31 12 57 51 63 79c8 37 6 94 -35 138c-19 19 -36 28 -56 25c-7 -2 -13 -5 -28 -16c-12 -9 -26 -21 -30 -16c-7 7 -4 12 8 23
c5 4 16 13 24 19c15 12 28 19 46 19c30 1 101 -23 134 -70c18 -26 20 -113 9 -139c-21 -48 -85 -78 -125 -85c-43 -8 -69 -2 -111 17z" />
    <glyph glyph-name="q" unicode="q" horiz-adv-x="441" 
d="M376 284c6 -6 2 -23 1 -36c-1 -17 -1 -17 -1 -34v-391c0 -17 -7 -64 15 -78c6 -4 33 -5 39 -5c10 0 33 1 36 -12c0 -2 0 -5 -1 -7c-4 -10 -24 -9 -35 -9h-214c-6 0 -24 -1 -31 2c-5 2 -7 12 -5 17c4 10 13 11 23 11c7 0 18 -1 27 -1c24 -1 48 -3 54 2c14 12 13 85 13 97
v197c-53 -46 -103 -54 -148 -42s-71 41 -87 88c-13 36 -8 97 20 135c44 60 85 70 144 68c29 -1 41 -3 78 -14c19 -5 16 -3 39 3l13 6c7 3 15 8 20 3zM136 130c5 -35 26 -83 65 -100c21 -10 47 -7 65 5c41 27 36 94 36 118c-1 33 0 80 -38 102c-21 13 -46 13 -65 3
c-63 -31 -70 -81 -63 -128z" />
    <glyph glyph-name="r" unicode="r" horiz-adv-x="299" 
d="M194 291c9 -4 10 -20 10 -27c0 0 -3 -27 -3 -29c33 32 51 60 91 51c16 -3 29 -13 35 -29c5 -14 3 -27 -4 -36c-8 -9 -20 -17 -32 -16c-4 1 -11 2 -23 13c-4 3 -14 21 -19 22c-12 3 -17 -8 -27 -18c-29 -32 -26 -42 -26 -82c0 -25 -4 -57 0 -83c2 -15 -1 -23 20 -31
c4 -2 37 -3 48 -4c0 0 7 -5 4 -13c-6 -12 -25 -9 -34 -9h-150c-5 0 -17 -4 -23 3c-4 5 -3 9 0 13c5 6 13 6 28 6c6 0 26 1 30 6c10 9 8 84 8 93v119c-1 6 -13 1 -29 -6c-17 -7 -24 -8 -27 -2s3 8 3 8l36 17c1 0 23 11 27 12l28 13c7 3 22 13 29 9z" />
    <glyph glyph-name="s" unicode="s" horiz-adv-x="274" 
d="M261 207c-1 -5 -14 -8 -28 27c-9 22 -23 31 -34 34c-8 2 -19 0 -33 -14c-9 -9 -15 -22 -10 -37c9 -31 83 -63 96 -76c24 -24 28 -58 21 -83c-8 -32 -36 -55 -71 -64c-28 -8 -112 -14 -132 5c-17 15 -11 87 -9 102c0 7 13 7 20 -9c4 -8 8 -15 12 -24c12 -28 16 -39 27 -49
c13 -11 31 -15 51 -9c17 5 32 16 37 32c4 12 0 26 -11 40c-30 35 -92 53 -102 89c-5 21 5 59 29 86c28 32 68 34 102 30c15 -2 31 -2 39 -19c5 -14 -2 -47 -4 -61z" />
    <glyph glyph-name="t" unicode="t" horiz-adv-x="292" 
d="M206 372c0 0 -1 -35 -1 -58c0 -9 0 -16 1 -23l1 -14c48 0 46 1 90 -3c13 -1 -8 -25 -15 -28c-4 -2 -22 -3 -26 -3h-27c-1 0 -26 0 -28 -2l-3 -46v-64c0 -18 -8 -87 18 -104c17 -11 37 -3 66 14c0 0 4 3 6 0c3 -3 0 -5 -1 -8c-8 -15 -16 -21 -28 -27
c-11 -6 -23 -9 -36 -11c-24 -4 -55 -1 -70 5c-25 10 -28 23 -29 53c0 8 -2 19 -1 29c1 9 1 26 1 31v108c0 2 -3 23 -4 25h-21s-20 -2 -22 3c-2 6 -3 6 -1 11c4 9 13 7 23 8c12 1 23 -4 23 5c4 42 3 67 51 93c14 8 33 15 33 6z" />
    <glyph glyph-name="u" unicode="u" horiz-adv-x="471" 
d="M401 278v-20c0 -6 -2 -22 -2 -30c0 0 -3 -60 -3 -65v-45c0 -33 0 -52 5 -85l24 9c8 3 16 11 22 7c4 -3 2 -8 2 -8c-25 -18 -89 -64 -116 -50c-16 9 -13 13 -14 27v15c0 0 2 11 0 17c-27 -36 -46 -58 -87 -60c-31 -2 -69 -5 -93 20c-27 29 -18 109 -17 118v38
c0 41 2 35 -4 77c-2 7 -15 -2 -22 -6c-5 -3 -17 -6 -22 -6s-4 6 0 9c23 16 89 59 115 42c16 -10 4 -63 4 -77v-54c0 -23 -11 -102 25 -123c15 -9 37 -10 56 2c63 41 49 90 49 144v34c0 27 -11 49 19 67c8 5 18 9 30 10c7 2 30 0 29 -7z" />
    <glyph glyph-name="v" unicode="v" horiz-adv-x="415" 
d="M218 273c5 -8 2 -15 -5 -20c-4 -3 -18 -3 -22 -8l15 -38l8 -16l21 -43c2 -4 3 -8 7 -17l19 -40l19 39c1 3 36 71 43 110c-3 5 -2 9 -9 10l-11 3c-9 2 -11 -1 -22 2c0 0 -6 1 -7 8c-1 6 3 8 6 10c10 7 28 7 36 7h26s10 -2 33 -2h26c3 0 30 2 31 -10c1 -14 -10 -15 -28 -15
c-18 -2 -21 1 -36 -18c-6 -8 -29 -50 -41 -76l-58 -122l-8 -23s-4 -24 -16 -27c-7 -2 -20 3 -27 21c-6 10 -9 23 -14 34l-58 122c-35 74 -21 82 -97 89c0 0 -9 1 -11 10c0 5 5 10 5 10c9 6 23 6 34 5l38 -2h31c1 0 16 2 37 2c9 0 28 8 35 -5z" />
    <glyph glyph-name="w" unicode="w" horiz-adv-x="587" 
d="M45 282h21s17 -1 19 -1c9 0 14 -1 22 -1h38h20h25c8 0 29 4 33 -4c4 -7 0 -11 -4 -14c-6 -5 -24 -7 -24 -7c-6 -10 -1 -17 4 -28l36 -84c4 -9 7 -20 11 -30l10 -19l55 128c5 8 2 10 6 17c0 0 9 23 17 28c4 2 7 2 11 0c4 -3 4 -5 10 -18l75 -157l70 156c3 7 -18 6 -26 6
c-2 0 -21 1 -26 9c-4 6 0 12 5 15s53 1 57 0l57 3h30s9 1 11 -3c5 -10 -4 -11 -4 -11c-74 -16 -67 -20 -103 -101l-41 -93c-4 -8 -33 -86 -47 -86c-11 0 -16 11 -28 39c-6 13 -13 29 -21 45l-44 91c-4 -8 -21 -37 -27 -52l-36 -87c-5 -8 -5 -12 -10 -20
c-5 -9 -9 -14 -17 -13s-16 21 -20 31l-67 146c-41 89 -17 80 -103 99c0 0 -5 0 -4 9c1 7 9 7 9 7z" />
    <glyph glyph-name="x" unicode="x" horiz-adv-x="425" 
d="M225 283c9 -2 12 -7 13 -13c1 -8 -7 -10 -7 -10s-16 -1 -24 -3c-9 -2 -6 -8 -6 -8l47 -62c3 -4 23 22 34 32l20 20l4 2l5 5c5 5 10 11 0 11c0 0 -22 1 -30 4c-5 2 -6 7 -6 11c0 9 12 10 20 10h104c5 0 27 2 31 -10c3 -9 -4 -13 -8 -13c-62 -5 -88 -34 -151 -100
c19 -29 45 -61 69 -88c42 -47 42 -44 89 -53c0 0 7 -1 5 -10c-2 -10 -11 -8 -23 -8h-122c-12 0 -31 -3 -32 5c-1 6 4 9 7 10c8 3 15 0 17 12c2 9 -6 12 -11 19l-16 21c-16 21 -16 17 -35 38c-39 -41 -32 -32 -62 -75c3 -6 18 -6 24 -8c9 0 20 -2 19 -13s-17 -9 -27 -9h-37
h-21h-55c-12 0 -14 24 13 26c14 1 22 3 37 15c0 0 66 65 75 75l15 16c-23 32 -36 49 -68 85c-15 17 -26 29 -38 36c-6 1 -16 6 -21 6c-9 3 -16 8 -15 16c1 14 24 7 34 7c11 0 25 -1 38 -1h27c47 0 56 5 68 2z" />
    <glyph glyph-name="y" unicode="y" horiz-adv-x="471" 
d="M256 275c3 -4 4 -8 2 -12c-3 -6 -8 -8 -20 -8c0 0 -17 2 -24 0c-4 -1 -7 -5 -7 -5l95 -164l10 18c27 49 52 99 46 148c-4 0 -19 0 -24 1c-8 2 -16 6 -14 18c2 10 11 9 24 9c0 0 36 -2 59 -2c18 0 46 2 46 2l24 1c8 0 20 -3 15 -17l-3 -4c-16 -6 -19 -5 -35 -5
c-18 -1 -21 2 -31 -11c-15 -18 -25 -33 -42 -71l-75 -168c-15 -34 -13 -30 -31 -64l-42 -78c-19 -36 -48 -108 -47 -113s22 -4 22 -4h41c5 0 17 -1 21 -2c7 -2 12 -5 10 -13c-1 -6 -7 -9 -7 -9c-58 0 -96 1 -154 -17c0 0 -6 11 -11 15c-3 2 -31 -2 -31 -2
c-11 -1 -29 -4 -31 5c-2 7 0 15 11 15c7 3 17 3 26 4l23 3h11c4 0 8 1 12 1c10 6 25 34 26 36l25 41l20 38l20 43c54 116 56 71 -5 181l-46 83c-54 98 -50 73 -125 96c-8 2 -8 13 2 15s22 2 34 2l48 -2c17 -1 44 -4 68 -2l32 3c11 1 27 3 32 -5z" />
    <glyph glyph-name="z" unicode="z" horiz-adv-x="331" 
d="M347 273c3 -3 2 -6 -1 -9c-12 -14 -30 -33 -30 -33c-22 -24 -17 -20 -40 -46l-19 -21l-35 -34l-68 -70c36 2 49 5 86 3c25 -1 26 -1 44 15c12 10 8 9 22 17c7 5 16 9 23 7c6 -2 4 -7 4 -7c-9 -25 -46 -105 -64 -110c-8 -3 -21 8 -29 11c-10 4 -17 3 -29 3
c0 0 -56 1 -58 1h-49c-6 0 -17 2 -20 -1c-7 -6 -14 -11 -21 -8c-10 4 -7 18 -5 24c4 11 13 16 22 25l50 46l96 85c1 0 10 9 21 20c6 6 16 14 17 22c-45 3 -66 4 -97 3c-17 -1 -35 -2 -47 -11c-9 -5 -15 -14 -23 -23c-5 -8 -13 -17 -21 -16c-7 1 -5 6 -5 6
c26 114 26 104 132 104h129c7 0 13 0 15 -3z" />
    <glyph glyph-name="braceleft" unicode="{" horiz-adv-x="468" 
d="M468 752v-28c-125 -21 -159 -50 -159 -175v-84c0 -53 5 -111 -55 -156c-46 -35 -126 -45 -153 -52c140 -21 207 -51 207 -207v-72c0 -49 -2 -107 52 -147c36 -27 68 -33 108 -39v-29c-41 0 -145 12 -197 61c-49 48 -44 92 -44 150v86c0 55 6 103 -53 140
c-36 23 -96 34 -119 39v45c148 25 173 29 173 179v76c0 70 0 140 88 185c50 25 108 27 152 28z" />
    <glyph glyph-name="bar" unicode="|" horiz-adv-x="109" 
d="M64 864h51v-1028h-51v1028z" />
    <glyph glyph-name="braceright" unicode="}" horiz-adv-x="468" 
d="M206 724c88 -45 88 -115 88 -185v-76c0 -150 25 -154 173 -179v-45c-23 -5 -83 -16 -119 -39c-59 -37 -53 -85 -53 -140v-86c0 -58 5 -102 -44 -150c-52 -49 -156 -61 -197 -61v29c40 6 72 12 108 39c54 40 52 98 52 147v72c0 156 67 186 208 207c-28 7 -107 18 -153 52
c-61 46 -56 103 -56 156v84c0 125 -33 154 -159 175v28c44 -1 102 -3 152 -28z" />
    <glyph glyph-name="asciitilde" unicode="~" horiz-adv-x="282" 
d="M277 494c2 0 8 -1 5 -6c-21 -45 -43 -77 -87 -74c-44 4 -79 39 -106 25c-9 -4 -21 -23 -26 -28c-3 -3 -8 -4 -10 0c-3 6 1 15 4 23s7 16 12 22c13 16 28 31 43 34c28 7 101 -31 110 -31c12 1 20 4 30 12c11 11 18 23 25 23z" />
    <glyph glyph-name="Adieresis" unicode="&#xc4;" horiz-adv-x="806" 
d="M441 705c10 3 15 1 21 -15c0 0 7 -16 10 -25c15 -39 32 -102 32 -102c1 -4 17 -41 21 -52c2 -7 1 -11 4 -20l119 -351c13 -38 33 -99 87 -116c17 -5 41 -5 65 -5c0 0 5 -1 7 -7c1 -4 -1 -9 -1 -9c-4 -7 -12 -8 -22 -9c-3 -1 -11 -2 -24 -2l-158 5l-23 3h-59
c-13 0 -29 -5 -36 -4c-14 0 -27 -2 -27 18c1 7 11 9 23 9h23c29 0 20 4 50 10c0 50 -40 187 -55 201c-10 8 -78 3 -87 3h-14c-9 0 -22 2 -32 2h-68c-37 -56 -59 -139 -65 -195c8 -12 26 -13 34 -14c0 0 25 -1 31 -3c6 0 9 0 16 -1c7 1 30 -1 32 -12c1 -8 -6 -12 -15 -14
c-6 -1 -20 0 -26 0h-205c-4 0 -17 -1 -22 -1c-9 0 -12 -3 -22 5c-6 5 -4 13 3 18c8 6 13 3 20 4c7 0 14 1 21 1c2 0 11 1 20 3c33 5 29 3 52 34c25 34 21 28 32 58l151 413c2 5 20 59 20 66c0 4 -13 56 -11 65c0 6 -1 14 9 18c7 3 11 -13 21 -5c0 0 8 9 15 12c6 3 15 4 21 2
c4 5 8 11 12 12zM379 500l-72 -224c11 -4 28 -3 37 -3h139l-89 260c-8 -11 -11 -20 -15 -33zM329 829c13 5 27 6 39 -2s20 -24 21 -42c0 -15 -6 -28 -21 -38c-12 -7 -26 -11 -41 -5c-13 5 -24 16 -27 32c-4 19 2 44 29 55zM465 829c10 5 29 4 38 -2c11 -7 22 -20 23 -40
c1 -15 -5 -29 -19 -38c-10 -8 -26 -13 -42 -8c-10 4 -24 13 -29 31c-6 20 3 45 29 57z" />
    <glyph glyph-name="Aring" unicode="&#xc5;" horiz-adv-x="806" 
d="M441 705c10 3 15 1 21 -15c0 0 7 -16 10 -25c15 -39 32 -102 32 -102c1 -4 17 -41 21 -52c2 -7 1 -11 4 -20l119 -351c13 -38 33 -99 87 -116c17 -5 41 -5 65 -5c0 0 5 -1 7 -7c1 -4 -1 -9 -1 -9c-4 -7 -12 -8 -22 -9c-3 -1 -11 -2 -24 -2l-158 5l-23 3h-59
c-13 0 -29 -5 -36 -4c-14 0 -27 -2 -27 18c1 7 11 9 23 9h23c29 0 20 4 50 10c0 50 -40 187 -55 201c-10 8 -78 3 -87 3h-14c-9 0 -22 2 -32 2h-68c-37 -56 -59 -139 -65 -195c8 -12 26 -13 34 -14c0 0 25 -1 31 -3c6 0 9 0 16 -1c7 1 30 -1 32 -12c1 -8 -6 -12 -15 -14
c-6 -1 -20 0 -26 0h-205c-4 0 -17 -1 -22 -1c-9 0 -12 -3 -22 5c-6 5 -4 13 3 18c8 6 13 3 20 4c7 0 14 1 21 1c2 0 11 1 20 3c33 5 29 3 52 34c25 34 21 28 32 58l151 413c2 5 20 59 20 66c0 4 -13 56 -11 65c0 6 -1 14 9 18c7 3 11 -13 21 -5c0 0 8 9 15 12c6 3 15 4 21 2
c4 5 8 11 12 12zM379 500l-72 -224c11 -4 28 -3 37 -3h139l-89 260c-8 -11 -11 -20 -15 -33zM396 915c22 6 47 3 68 -17c22 -17 31 -43 28 -66c-3 -21 -16 -44 -45 -59c-18 -9 -43 -10 -66 3c-24 13 -37 35 -39 60c-2 33 14 67 54 79zM367 848c-3 -17 5 -35 20 -46
c15 -12 34 -12 46 -7c19 8 31 25 32 41c2 18 -6 35 -21 47c-16 10 -32 10 -45 5c-19 -7 -30 -25 -32 -40z" />
    <glyph glyph-name="Ccedilla" unicode="&#xc7;" horiz-adv-x="692" 
d="M366 -24c-89 7 -179 42 -253 158c-77 121 -84 286 -8 411c102 169 232 177 358 164c0 0 52 -6 59 -6l41 -7l27 -2c9 -1 11 13 25 22c0 0 11 2 20 -5c8 -7 21 -90 21 -100l15 -116c0 -16 1 -24 1 -30c0 -4 -10 -2 -10 -2c-7 7 -10 11 -10 17l-14 27
c-49 95 -55 145 -161 163c-69 11 -164 2 -233 -72c-80 -86 -60 -240 -44 -327c15 -81 85 -186 180 -226c62 -27 152 -15 214 27c19 13 27 19 46 40c10 10 22 26 32 34c8 6 17 3 17 -6c-33 -107 -162 -154 -236 -162c-15 0 -30 -3 -45 -3l-22 -52c30 0 48 4 70 -3
c29 -10 46 -30 51 -55c6 -29 -5 -54 -27 -73c-45 -38 -144 -31 -203 -7l14 36c31 -10 42 -13 55 -13c23 0 45 3 58 23c5 11 4 23 -1 34c-14 19 -38 16 -62 11l-18 11z" />
    <glyph glyph-name="Eacute" unicode="&#xc9;" horiz-adv-x="666" 
d="M535 536c-1 -5 -5 -8 -11 -4c-7 4 -10 20 -13 37c-5 26 -5 36 -9 43c-15 29 -52 34 -84 37c-18 1 -92 6 -141 2l-5 -5c-3 -9 -4 -16 -4 -23l-6 -191c0 -5 -1 -14 0 -21c1 -9 0 -19 6 -23c4 -3 17 0 17 0c27 0 96 -12 118 18l11 15c5 7 5 7 9 16c6 16 10 26 27 22
c7 -2 7 -9 7 -20c0 -10 -1 -10 -3 -21c-2 -13 -3 -19 -4 -39c-2 -29 -1 -63 -1 -80v-40c0 -5 -1 -18 -6 -20c-11 -4 -12 5 -12 5c-7 29 -12 88 -55 101c-13 4 -52 4 -105 0c-5 -6 -8 -6 -8 -18v-20c0 -15 -2 -23 -2 -40v-24c0 -13 1 -26 1 -39v-50c0 -20 -11 -101 14 -119
c31 -23 202 6 235 18c24 8 60 23 77 39c8 7 18 16 38 39l17 20c3 5 5 6 9 7s6 1 10 -3c7 -7 -1 -23 -4 -28l-10 -17c-5 -9 -12 -18 -17 -29c-7 -14 -12 -21 -19 -37c-11 -23 -23 -57 -23 -57c-2 -6 -7 -21 -17 -21c-5 0 -8 1 -12 4c-6 5 -10 12 -14 21l-3 9h-418h-20h-24
c-13 0 -16 -2 -22 0c-8 2 -8 7 -5 12c4 8 28 9 37 10c23 1 33 3 40 9c13 11 14 54 14 78l5 461c0 21 7 67 -22 88c-7 6 -26 8 -33 11c-5 2 -32 2 -24 19c3 5 13 6 19 6h22h45l28 -1h262c20 0 40 -5 61 -3l31 3c8 3 22 17 32 13c6 -3 10 -11 7 -18c-1 -3 -13 -32 -15 -37
c-4 -11 -7 -22 -12 -39c-10 -30 -13 -45 -16 -76zM431 866c17 -2 -10 -37 -54 -84c-24 -25 -34 -35 -39 -39c-8 -7 -12 -11 -21 -16c-5 -4 -14 -11 -20 -4l8 19c17 40 21 27 35 66l12 34c7 19 3 20 23 26c15 6 42 0 56 -2z" />
    <glyph glyph-name="Ntilde" unicode="&#xd1;" horiz-adv-x="925" 
d="M734 199v22c0 15 3 15 3 23c0 4 2 19 2 24v277c0 24 8 91 -27 111c-5 3 -19 6 -52 9c-13 1 -26 1 -27 1c-7 0 -22 0 -26 7c-3 4 -5 8 -3 14c3 9 11 10 21 10h21h245c13 0 26 1 32 -10c4 -7 2 -10 -1 -15c-3 -6 -21 -6 -21 -6c-16 -5 -79 2 -94 -13
c-17 -17 -20 -68 -20 -91v-480c0 -85 -4 -94 -11 -95c-7 0 -8 1 -18 10l-23 21l-80 91c-10 12 -16 18 -20 23c-1 2 -4 8 -7 12s-9 9 -11 11l-290 311l-6 -300c-1 -29 -7 -98 31 -122c13 -8 28 -9 52 -11c7 0 19 -1 26 -3c12 -3 18 -8 16 -18c-2 -9 -7 -10 -20 -11
c-8 -1 -9 -1 -22 -1h-199h-38h-16c-13 0 -26 0 -33 5c-3 2 -5 3 -5 9s2 9 5 10c10 5 25 5 65 6c23 0 48 2 66 18c25 22 23 58 24 84l6 112c0 3 2 38 2 42v148c0 39 7 70 -24 111c-30 40 -72 81 -107 103c-36 23 -48 17 -96 19c0 0 -11 -2 -11 14c0 14 11 13 11 13h142
c116 0 77 21 166 -80l341 -388c4 -5 24 -27 31 -27zM615 808c2 0 8 -1 5 -6c-22 -45 -43 -77 -87 -74s-79 39 -107 25c-8 -4 -20 -23 -25 -28c-3 -3 -8 -4 -10 0c-3 6 1 15 4 23s7 16 12 22c13 16 27 31 42 34c29 6 102 -31 111 -31c12 1 19 4 29 12c11 11 19 23 26 23z" />
    <glyph glyph-name="Odieresis" unicode="&#xd6;" horiz-adv-x="836" 
d="M377 711c95 12 269 -8 374 -130c74 -85 100 -236 74 -327c-38 -135 -145 -216 -268 -255c-124 -39 -259 -24 -380 74c-107 87 -131 199 -120 304c11 113 78 231 193 292c29 15 86 37 127 42zM271 605c-85 -101 -89 -275 -66 -368c22 -85 65 -169 169 -210
c54 -21 135 -11 189 23c101 63 129 173 134 259c4 79 -19 235 -118 315c-61 49 -150 64 -209 48c-36 -10 -69 -32 -99 -67zM376 832c13 5 28 6 40 -2c11 -8 19 -24 20 -42c0 -15 -6 -28 -20 -38c-12 -7 -27 -11 -42 -5c-13 5 -24 16 -27 32c-3 19 2 44 29 55zM512 832
c10 5 29 4 39 -2c11 -7 22 -21 23 -40c1 -15 -5 -29 -19 -38c-11 -8 -27 -13 -43 -8c-10 4 -23 13 -28 31c-6 20 3 45 28 57z" />
    <glyph glyph-name="Udieresis" unicode="&#xdc;" horiz-adv-x="897" 
d="M448 663c-11 -1 -94 2 -107 -10c-15 -13 -15 -55 -15 -79v-284c0 -59 -6 -173 81 -224c44 -26 125 -29 174 -2c111 61 113 144 113 239v213c0 25 2 105 -42 135c-11 7 -22 10 -44 10h-21h-24c-9 0 -15 4 -17 14c-1 5 2 13 10 17c4 2 54 2 60 2c10 0 21 2 31 2
c5 1 20 0 31 3h30c13 0 31 4 52 0c31 -5 30 -6 51 -6h51l26 -2c10 -1 12 -13 8 -20c-4 -8 -30 -5 -30 -5c-2 0 -88 1 -113 -24c-23 -23 -18 -55 -18 -85v-275c0 -110 -10 -199 -127 -268c-69 -41 -196 -55 -274 -10c-98 56 -137 191 -134 285l7 255c0 17 8 88 -21 109
c-20 15 -99 8 -114 12c-8 2 -15 4 -17 11c-2 5 0 12 5 17c7 7 85 5 94 5h122c15 0 46 -5 100 -5h24h26c5 0 19 -2 24 -4c16 -7 7 -26 -2 -26zM438 829c13 5 28 6 40 -2s20 -24 21 -42c0 -15 -6 -28 -21 -38c-12 -7 -27 -11 -42 -5c-13 5 -23 16 -26 32c-4 19 2 44 28 55z
M575 829c9 4 28 4 38 -2c11 -7 22 -20 23 -40c1 -15 -5 -29 -19 -38c-11 -8 -27 -13 -42 -8c-10 4 -24 13 -29 31c-6 20 3 44 29 57z" />
    <glyph glyph-name="aacute" unicode="&#xe1;" horiz-adv-x="352" 
d="M352 19c1 -4 -13 -13 -18 -16s-13 -7 -21 -9c-14 -5 -31 -6 -42 0c-12 5 -20 14 -36 41c-54 -40 -109 -65 -154 -39c-17 10 -29 27 -26 50c9 58 128 93 166 103l19 5c1 18 7 79 -22 100c-12 9 -33 12 -52 4c-28 -12 -23 -35 -29 -51c-6 -15 -15 -23 -31 -29
c-9 -3 -23 0 -30 11c-4 5 -8 15 -3 28c12 28 65 57 96 64c37 8 87 4 119 -27c30 -30 23 -103 23 -128v-23l3 -57c3 -49 37 -24 38 -27zM151 95c-15 -14 -19 -30 -17 -45c3 -16 12 -25 21 -29c14 -6 31 1 50 14c41 27 34 58 34 92c-40 -8 -69 -15 -88 -32zM286 487
c17 -2 -11 -37 -54 -84c-24 -25 -35 -35 -40 -39c-7 -7 -11 -11 -20 -17c-5 -3 -14 -10 -20 -3l8 19c17 40 19 27 34 66l13 34c7 18 3 20 23 26c15 6 41 0 56 -2z" />
    <glyph glyph-name="agrave" unicode="&#xe0;" horiz-adv-x="352" 
d="M352 19c1 -4 -13 -13 -18 -16s-13 -7 -21 -9c-14 -5 -31 -6 -42 0c-12 5 -20 14 -36 41c-54 -40 -109 -65 -154 -39c-17 10 -29 27 -26 50c9 58 128 93 166 103l19 5c1 18 7 79 -22 100c-12 9 -33 12 -52 4c-28 -12 -23 -35 -29 -51c-6 -15 -15 -23 -31 -29
c-9 -3 -23 0 -30 11c-4 5 -8 15 -3 28c12 28 65 57 96 64c37 8 87 4 119 -27c30 -30 23 -103 23 -128v-23l3 -57c3 -49 37 -24 38 -27zM151 95c-15 -14 -19 -30 -17 -45c3 -16 12 -25 21 -29c14 -6 31 1 50 14c41 27 34 58 34 92c-40 -8 -69 -15 -88 -32zM123 470h9h10h20
c5 0 5 -1 9 -1c6 0 5 0 12 -1c7 0 10 -7 14 -17c3 -8 9 -19 12 -28c8 -19 6 -13 16 -31c3 -5 34 -53 39 -60c3 -6 -7 -10 -22 -2c-5 3 -14 9 -22 16c-11 8 -28 24 -41 37c-9 9 -24 25 -40 43c-4 6 -10 13 -17 21c-7 9 -6 18 1 23z" />
    <glyph glyph-name="acircumflex" unicode="&#xe2;" horiz-adv-x="352" 
d="M352 19c1 -4 -13 -13 -18 -16s-13 -7 -21 -9c-14 -5 -31 -6 -42 0c-12 5 -20 14 -36 41c-54 -40 -109 -65 -154 -39c-17 10 -29 27 -26 50c9 58 128 93 166 103l19 5c1 18 7 79 -22 100c-12 9 -33 12 -52 4c-28 -12 -23 -35 -29 -51c-6 -15 -15 -23 -31 -29
c-9 -3 -23 0 -30 11c-4 5 -8 15 -3 28c12 28 65 57 96 64c37 8 87 4 119 -27c30 -30 23 -103 23 -128v-23l3 -57c3 -49 37 -24 38 -27zM151 95c-15 -14 -19 -30 -17 -45c3 -16 12 -25 21 -29c14 -6 31 1 50 14c41 27 34 58 34 92c-40 -8 -69 -15 -88 -32zM306 344
c-3 -2 -4 2 -7 2c-2 0 -4 -2 -6 -2s-4 1 -4 1c-2 0 -11 4 -17 2c-8 -3 -17 6 -31 22l-29 34c-18 22 -12 13 -27 29l-13 -12l-36 -44c-5 -6 -16 -17 -19 -20c-3 -4 -15 -10 -22 -8c-13 6 -1 17 7 28l24 33c9 12 56 87 76 85c15 -2 25 -25 44 -56c23 -37 18 -22 44 -63l9 -14
l3 -4l4 -5l2 -4s0 -3 -2 -4z" />
    <glyph glyph-name="adieresis" unicode="&#xe4;" horiz-adv-x="352" 
d="M352 19c1 -4 -13 -13 -18 -16s-13 -7 -21 -9c-14 -5 -31 -6 -42 0c-12 5 -20 14 -36 41c-54 -40 -109 -65 -154 -39c-17 10 -29 27 -26 50c9 58 128 93 166 103l19 5c1 18 7 79 -22 100c-12 9 -33 12 -52 4c-28 -12 -23 -35 -29 -51c-6 -15 -15 -23 -31 -29
c-9 -3 -23 0 -30 11c-4 5 -8 15 -3 28c12 28 65 57 96 64c37 8 87 4 119 -27c30 -30 23 -103 23 -128v-23l3 -57c3 -49 37 -24 38 -27zM151 95c-15 -14 -19 -30 -17 -45c3 -16 12 -25 21 -29c14 -6 31 1 50 14c41 27 34 58 34 92c-40 -8 -69 -15 -88 -32zM118 441
c13 5 28 6 40 -2s20 -24 21 -42c0 -15 -6 -28 -21 -38c-12 -7 -27 -11 -42 -5c-12 5 -23 16 -26 32c-4 19 2 44 28 55zM255 441c10 5 28 4 38 -2c11 -7 22 -20 23 -40c1 -15 -5 -29 -19 -38c-11 -8 -27 -13 -42 -8c-10 4 -24 13 -29 31c-6 20 3 45 29 57z" />
    <glyph glyph-name="atilde" unicode="&#xe3;" horiz-adv-x="352" 
d="M352 19c1 -4 -13 -13 -18 -16s-13 -7 -21 -9c-14 -5 -31 -6 -42 0c-12 5 -20 14 -36 41c-54 -40 -109 -65 -154 -39c-17 10 -29 27 -26 50c9 58 128 93 166 103l19 5c1 18 7 79 -22 100c-12 9 -33 12 -52 4c-28 -12 -23 -35 -29 -51c-6 -15 -15 -23 -31 -29
c-9 -3 -23 0 -30 11c-4 5 -8 15 -3 28c12 28 65 57 96 64c37 8 87 4 119 -27c30 -30 23 -103 23 -128v-23l3 -57c3 -49 37 -24 38 -27zM151 95c-15 -14 -19 -30 -17 -45c3 -16 12 -25 21 -29c14 -6 31 1 50 14c41 27 34 58 34 92c-40 -8 -69 -15 -88 -32zM311 445
c2 0 8 -1 5 -6c-22 -44 -44 -77 -87 -74c-44 4 -79 40 -107 26c-8 -4 -20 -24 -25 -29c-3 -3 -8 -4 -10 0c-3 6 1 16 4 24s7 16 12 22c12 15 27 30 42 33c29 7 102 -30 111 -30c12 1 19 4 29 12c11 10 19 22 26 22z" />
    <glyph glyph-name="aring" unicode="&#xe5;" horiz-adv-x="352" 
d="M352 19c1 -4 -13 -13 -18 -16s-13 -7 -21 -9c-14 -5 -31 -6 -42 0c-12 5 -20 14 -36 41c-54 -40 -109 -65 -154 -39c-17 10 -29 27 -26 50c9 58 128 93 166 103l19 5c1 18 7 79 -22 100c-12 9 -33 12 -52 4c-28 -12 -23 -35 -29 -51c-6 -15 -15 -23 -31 -29
c-9 -3 -23 0 -30 11c-4 5 -8 15 -3 28c12 28 65 57 96 64c37 8 87 4 119 -27c30 -30 23 -103 23 -128v-23l3 -57c3 -49 37 -24 38 -27zM151 95c-15 -14 -19 -30 -17 -45c3 -16 12 -25 21 -29c14 -6 31 1 50 14c41 27 34 58 34 92c-40 -8 -69 -15 -88 -32zM179 506
c21 6 47 2 68 -16c22 -19 30 -44 27 -67c-3 -20 -15 -44 -44 -59c-18 -9 -43 -10 -66 3c-24 13 -38 36 -40 60c-2 33 15 68 55 79zM150 439c-3 -16 5 -34 20 -46s33 -12 46 -7c19 8 31 26 32 41c2 18 -6 36 -21 47c-16 12 -33 11 -45 6c-19 -8 -30 -26 -32 -41z" />
    <glyph glyph-name="ccedilla" unicode="&#xe7;" horiz-adv-x="335" 
d="M180 -6c-9 0 -19 5 -29 5c-46 11 -80 52 -93 90c-11 31 -3 100 28 142c38 51 90 60 140 60c26 0 86 -11 105 -43c6 -10 7 -20 1 -30c-4 -7 -12 -15 -26 -15c-19 0 -24 8 -48 38c-19 25 -35 31 -58 28c-20 0 -44 -15 -57 -41s-13 -103 5 -134c25 -43 40 -61 84 -61
c46 0 56 6 94 30c0 0 8 3 8 -2s-3 -10 -3 -10c-36 -33 -72 -51 -110 -56l-22 -53c30 0 49 4 70 -3c29 -10 47 -30 52 -55c6 -29 -5 -54 -28 -74c-44 -37 -144 -30 -202 -6l14 36c30 -10 41 -13 54 -13c24 0 45 3 58 23c5 11 4 23 -1 34c-14 18 -37 15 -62 10l-18 12z" />
    <glyph glyph-name="eacute" unicode="&#xe9;" horiz-adv-x="345" 
d="M340 169c-35 -5 -42 -1 -69 -1h-45h-14h-62l-18 -1c2 -43 1 -97 57 -127c47 -25 80 -26 146 9c0 0 7 3 9 -2c2 -6 -2 -15 -13 -23c-5 -4 -16 -9 -20 -11c-12 -6 -26 -11 -41 -14c-17 -4 -57 -8 -81 -5c-36 5 -96 22 -121 75c-16 35 -21 104 5 147c35 58 69 72 126 74
c42 2 88 -4 123 -54c5 -7 11 -18 17 -33c3 -8 9 -33 1 -34zM158 190c14 0 80 -6 95 6c10 9 6 17 4 26c-3 20 -17 34 -32 41c-19 9 -42 8 -57 0c-30 -17 -30 -41 -32 -73h22zM301 490c17 -2 -11 -37 -54 -84c-24 -25 -35 -35 -40 -39c-8 -7 -12 -11 -20 -17
c-5 -4 -14 -10 -20 -4l8 20c16 40 19 27 34 66l13 34c7 18 3 20 23 26c15 6 41 0 56 -2z" />
    <glyph glyph-name="egrave" unicode="&#xe8;" horiz-adv-x="345" 
d="M340 169c-35 -5 -42 -1 -69 -1h-45h-14h-62l-18 -1c2 -43 1 -97 57 -127c47 -25 80 -26 146 9c0 0 7 3 9 -2c2 -6 -2 -15 -13 -23c-5 -4 -16 -9 -20 -11c-12 -6 -26 -11 -41 -14c-17 -4 -57 -8 -81 -5c-36 5 -96 22 -121 75c-16 35 -21 104 5 147c35 58 69 72 126 74
c42 2 88 -4 123 -54c5 -7 11 -18 17 -33c3 -8 9 -33 1 -34zM158 190c14 0 80 -6 95 6c10 9 6 17 4 26c-3 20 -17 34 -32 41c-19 9 -42 8 -57 0c-30 -17 -30 -41 -32 -73h22zM123 470h9h10h20c5 0 5 -1 9 -1c6 0 5 0 12 -1c7 0 10 -7 14 -17c3 -8 9 -19 12 -28
c8 -19 6 -13 16 -31c3 -5 34 -53 39 -60c3 -6 -7 -10 -22 -2c-5 3 -14 9 -22 16c-11 8 -28 24 -41 37c-9 9 -24 25 -40 43c-4 6 -10 13 -17 21c-7 9 -6 18 1 23z" />
    <glyph glyph-name="ecircumflex" unicode="&#xea;" horiz-adv-x="345" 
d="M340 169c-35 -5 -42 -1 -69 -1h-45h-14h-62l-18 -1c2 -43 1 -97 57 -127c47 -25 80 -26 146 9c0 0 7 3 9 -2c2 -6 -2 -15 -13 -23c-5 -4 -16 -9 -20 -11c-12 -6 -26 -11 -41 -14c-17 -4 -57 -8 -81 -5c-36 5 -96 22 -121 75c-16 35 -21 104 5 147c35 58 69 72 126 74
c42 2 88 -4 123 -54c5 -7 11 -18 17 -33c3 -8 9 -33 1 -34zM158 190c14 0 80 -6 95 6c10 9 6 17 4 26c-3 20 -17 34 -32 41c-19 9 -42 8 -57 0c-30 -17 -30 -41 -32 -73h22zM306 344c-3 -2 -4 2 -7 2c-2 0 -4 -2 -6 -2s-4 1 -4 1c-2 0 -11 4 -17 2c-8 -3 -17 6 -31 22
l-29 34c-18 22 -12 13 -27 29l-13 -12l-36 -44c-5 -6 -16 -17 -19 -20c-3 -4 -15 -10 -22 -8c-13 6 -1 17 7 28l24 33c9 12 56 87 76 85c15 -2 25 -25 44 -56c23 -37 18 -22 44 -63l9 -14l3 -4l4 -5l2 -4s0 -3 -2 -4z" />
    <glyph glyph-name="edieresis" unicode="&#xeb;" horiz-adv-x="345" 
d="M340 169c-35 -5 -42 -1 -69 -1h-45h-14h-62l-18 -1c2 -43 1 -97 57 -127c47 -25 80 -26 146 9c0 0 7 3 9 -2c2 -6 -2 -15 -13 -23c-5 -4 -16 -9 -20 -11c-12 -6 -26 -11 -41 -14c-17 -4 -57 -8 -81 -5c-36 5 -96 22 -121 75c-16 35 -21 104 5 147c35 58 69 72 126 74
c42 2 88 -4 123 -54c5 -7 11 -18 17 -33c3 -8 9 -33 1 -34zM158 190c14 0 80 -6 95 6c10 9 6 17 4 26c-3 20 -17 34 -32 41c-19 9 -42 8 -57 0c-30 -17 -30 -41 -32 -73h22zM118 441c13 5 28 6 40 -2s20 -24 21 -42c0 -15 -6 -28 -21 -38c-12 -7 -27 -11 -42 -5
c-12 5 -23 16 -26 32c-4 19 2 44 28 55zM255 441c10 5 28 4 38 -2c11 -7 22 -20 23 -40c1 -15 -5 -29 -19 -38c-11 -8 -27 -13 -42 -8c-10 4 -24 13 -29 31c-6 20 3 45 29 57z" />
    <glyph glyph-name="iacute" unicode="&#xed;" horiz-adv-x="243" 
d="M176 285c7 2 7 -5 7 -17v-14v-15l-2 -126c0 -12 -6 -79 9 -89c3 -1 20 -1 24 -1c7 0 22 2 27 -5c3 -4 3 -10 0 -13c-5 -6 -21 -5 -31 -5h-124c-8 0 -28 -3 -32 3c-2 3 -2 5 -1 8c3 9 21 4 37 9c18 6 16 15 19 31c2 12 1 60 1 74v78v25c0 0 -2 6 -6 7c-6 2 -22 -5 -23 -5
c-4 -1 -20 -7 -25 -1c-2 3 1 7 1 7c38 21 79 39 119 49zM221 481c17 -2 -11 -37 -54 -84c-24 -25 -35 -35 -40 -39c-8 -7 -12 -11 -20 -16c-5 -4 -14 -11 -20 -4l8 19c17 40 19 27 34 66l13 34c7 18 3 20 23 26c15 6 41 0 56 -2z" />
    <glyph glyph-name="igrave" unicode="&#xec;" horiz-adv-x="243" 
d="M176 285c7 2 7 -5 7 -17v-14v-15l-2 -126c0 -12 -6 -79 9 -89c3 -1 20 -1 24 -1c7 0 22 2 27 -5c3 -4 3 -10 0 -13c-5 -6 -21 -5 -31 -5h-124c-8 0 -28 -3 -32 3c-2 3 -2 5 -1 8c3 9 21 4 37 9c18 6 16 15 19 31c2 12 1 60 1 74v78v25c0 0 -2 6 -6 7c-6 2 -22 -5 -23 -5
c-4 -1 -20 -7 -25 -1c-2 3 1 7 1 7c38 21 79 39 119 49zM54 470h9h10h20c5 0 5 -1 9 -1c6 0 5 0 12 -1c6 0 10 -7 14 -17c3 -8 9 -19 12 -28c8 -19 6 -13 16 -31c3 -5 34 -53 38 -60c3 -6 -6 -10 -21 -2c-5 3 -14 9 -22 16c-11 8 -29 24 -41 37c-9 9 -24 25 -40 43
c-4 6 -10 13 -17 21c-8 9 -6 18 1 23z" />
    <glyph glyph-name="icircumflex" unicode="&#xee;" horiz-adv-x="243" 
d="M176 285c7 2 7 -5 7 -17v-14v-15l-2 -126c0 -12 -6 -79 9 -89c3 -1 20 -1 24 -1c7 0 22 2 27 -5c3 -4 3 -10 0 -13c-5 -6 -21 -5 -31 -5h-124c-8 0 -28 -3 -32 3c-2 3 -2 5 -1 8c3 9 21 4 37 9c18 6 16 15 19 31c2 12 1 60 1 74v78v25c0 0 -2 6 -6 7c-6 2 -22 -5 -23 -5
c-4 -1 -20 -7 -25 -1c-2 3 1 7 1 7c38 21 79 39 119 49zM257 344c-3 -2 -4 2 -7 2c-2 0 -4 -2 -6 -2s-4 1 -4 1c-2 0 -11 4 -17 2c-9 -3 -18 6 -31 22l-29 34c-18 22 -12 13 -28 29l-13 -12l-35 -44c-5 -6 -16 -17 -19 -20c-4 -4 -16 -10 -23 -8c-12 6 -2 17 7 28l25 33
c9 12 55 87 76 85c15 -2 24 -25 43 -56c22 -37 19 -22 45 -63l9 -14l3 -4l4 -5l2 -4s0 -3 -2 -4z" />
    <glyph glyph-name="idieresis" unicode="&#xef;" horiz-adv-x="243" 
d="M176 285c7 2 7 -5 7 -17v-14v-15l-2 -126c0 -12 -6 -79 9 -89c3 -1 20 -1 24 -1c7 0 22 2 27 -5c3 -4 3 -10 0 -13c-5 -6 -21 -5 -31 -5h-124c-8 0 -28 -3 -32 3c-2 3 -2 5 -1 8c3 9 21 4 37 9c18 6 16 15 19 31c2 12 1 60 1 74v78v25c0 0 -2 6 -6 7c-6 2 -22 -5 -23 -5
c-4 -1 -20 -7 -25 -1c-2 3 1 7 1 7c38 21 79 39 119 49zM59 441c13 5 28 6 40 -2s19 -24 20 -42c0 -15 -5 -28 -20 -38c-12 -7 -27 -11 -42 -5c-13 5 -23 16 -26 32c-4 19 2 44 28 55zM195 441c10 5 29 4 39 -2c11 -7 22 -20 23 -40c1 -15 -5 -29 -19 -38
c-11 -8 -27 -13 -43 -8c-9 4 -23 13 -28 31c-6 20 3 45 28 57z" />
    <glyph glyph-name="ntilde" unicode="&#xf1;" horiz-adv-x="457" 
d="M192 230c59 51 106 76 167 45c67 -35 44 -68 44 -127v-30c0 -9 -8 -91 6 -97l5 -2l20 -2c10 0 24 -2 23 -11c0 -3 -2 -6 -8 -6c-64 3 -155 0 -174 0c-6 0 -6 5 -6 9c0 11 21 12 31 12c13 0 20 4 20 19c4 13 13 166 -8 197c-12 18 -16 18 -31 17c-17 -1 -81 -36 -92 -55
c-5 -8 -4 -156 -2 -164c3 -11 8 -16 21 -16c6 0 20 -1 25 -3c2 -1 7 -1 6 -7c-1 -8 -1 -9 -30 -9h-28c-4 0 -23 2 -37 2c-33 0 -84 -4 -87 -2c-7 5 -4 12 0 15s34 6 39 9c18 11 18 86 18 102v64c0 2 1 13 0 26c-1 6 1 19 -6 24h-5l-17 -5l-10 -3c-4 -1 -12 -3 -14 2
c-2 4 2 7 2 7c19 11 98 59 119 48c14 -8 10 -15 11 -26c0 -5 -3 -27 -2 -33zM370 445c2 0 8 -1 5 -6c-22 -44 -43 -77 -87 -74c-44 4 -79 40 -106 26c-9 -4 -21 -24 -26 -29c-3 -3 -8 -4 -10 0c-3 6 1 16 4 24s7 16 12 22c13 15 28 30 42 33c29 7 102 -30 111 -30
c12 1 20 4 30 12c10 10 18 22 25 22z" />
    <glyph glyph-name="oacute" unicode="&#xf3;" horiz-adv-x="406" 
d="M199 290c38 7 123 -8 163 -46c38 -37 47 -100 41 -132c-7 -38 -64 -96 -104 -112c-45 -18 -121 -24 -176 14c-49 35 -71 83 -69 132c1 48 34 93 82 122c17 10 43 18 63 22zM141 163c-2 -46 8 -99 57 -132c23 -16 53 -20 77 -9c36 17 43 57 46 83c2 21 -3 113 -46 147
c-24 18 -64 19 -83 12c-41 -15 -50 -70 -51 -101zM325 478c17 -2 -11 -37 -55 -84c-23 -25 -34 -35 -39 -39c-8 -7 -12 -10 -21 -16c-5 -4 -14 -11 -19 -4l7 19c20 39 19 27 35 67l13 33c7 18 3 20 23 26c14 6 41 0 56 -2z" />
    <glyph glyph-name="ograve" unicode="&#xf2;" horiz-adv-x="406" 
d="M199 290c38 7 123 -8 163 -46c38 -37 47 -100 41 -132c-7 -38 -64 -96 -104 -112c-45 -18 -121 -24 -176 14c-49 35 -71 83 -69 132c1 48 34 93 82 122c17 10 43 18 63 22zM141 163c-2 -46 8 -99 57 -132c23 -16 53 -20 77 -9c36 17 43 57 46 83c2 21 -3 113 -46 147
c-24 18 -64 19 -83 12c-41 -15 -50 -70 -51 -101zM123 470h9h10h20c5 0 5 -1 9 -1c6 0 5 0 12 -1c7 0 10 -7 14 -17c3 -8 9 -19 12 -28c8 -19 6 -13 16 -31c3 -5 34 -53 39 -60c3 -6 -7 -10 -22 -2c-5 3 -14 9 -22 16c-11 8 -28 24 -41 37c-9 9 -24 25 -40 43
c-4 6 -10 13 -17 21c-7 9 -6 18 1 23z" />
    <glyph glyph-name="ocircumflex" unicode="&#xf4;" horiz-adv-x="406" 
d="M199 290c38 7 123 -8 163 -46c38 -37 47 -100 41 -132c-7 -38 -64 -96 -104 -112c-45 -18 -121 -24 -176 14c-49 35 -71 83 -69 132c1 48 34 93 82 122c17 10 43 18 63 22zM141 163c-2 -46 8 -99 57 -132c23 -16 53 -20 77 -9c36 17 43 57 46 83c2 21 -3 113 -46 147
c-24 18 -64 19 -83 12c-41 -15 -50 -70 -51 -101zM336 344c-3 -2 -4 2 -7 2c-2 0 -4 -2 -6 -2s-4 1 -4 1c-2 0 -11 4 -17 2c-9 -3 -17 7 -32 22l-28 34c-18 22 -12 13 -28 29l-13 -12l-35 -44c-5 -6 -16 -17 -19 -20c-4 -4 -16 -10 -23 -8c-12 6 -2 17 7 28l25 33
c9 12 55 87 76 85c15 -2 24 -25 43 -56c22 -37 19 -22 45 -63l9 -14l3 -4l4 -5l2 -4s0 -3 -2 -4z" />
    <glyph glyph-name="odieresis" unicode="&#xf6;" horiz-adv-x="406" 
d="M199 290c38 7 123 -8 163 -46c38 -37 47 -100 41 -132c-7 -38 -64 -96 -104 -112c-45 -18 -121 -24 -176 14c-49 35 -71 83 -69 132c1 48 34 93 82 122c17 10 43 18 63 22zM141 163c-2 -46 8 -99 57 -132c23 -16 53 -20 77 -9c36 17 43 57 46 83c2 21 -3 113 -46 147
c-24 18 -64 19 -83 12c-41 -15 -50 -70 -51 -101zM148 441c13 5 28 6 40 -2c11 -8 19 -24 20 -42c0 -15 -6 -28 -20 -38c-12 -7 -27 -11 -42 -5c-13 5 -24 16 -27 32c-4 19 2 44 29 55zM284 441c10 5 29 4 39 -2c11 -7 22 -20 23 -40c0 -15 -5 -29 -19 -38
c-11 -8 -27 -13 -43 -8c-10 4 -23 13 -28 31c-6 20 3 45 28 57z" />
    <glyph glyph-name="otilde" unicode="&#xf5;" horiz-adv-x="406" 
d="M199 290c38 7 123 -8 163 -46c38 -37 47 -100 41 -132c-7 -38 -64 -96 -104 -112c-45 -18 -121 -24 -176 14c-49 35 -71 83 -69 132c1 48 34 93 82 122c17 10 43 18 63 22zM141 163c-2 -46 8 -99 57 -132c23 -16 53 -20 77 -9c36 17 43 57 46 83c2 21 -3 113 -46 147
c-24 18 -64 19 -83 12c-41 -15 -50 -70 -51 -101zM341 445c2 0 7 -1 5 -6c-22 -44 -44 -77 -87 -74c-45 4 -79 40 -107 26c-9 -4 -21 -24 -26 -29c-3 -3 -8 -4 -10 0c-2 6 1 16 4 24s7 16 12 22c13 15 28 30 43 33c28 7 101 -30 110 -30c12 1 20 4 30 12c11 10 19 22 26 22z
" />
    <glyph glyph-name="uacute" unicode="&#xfa;" horiz-adv-x="429" 
d="M381 278v-20c0 -6 -2 -22 -2 -30c0 0 -3 -60 -3 -65v-45c0 -33 0 -52 5 -85l25 9c8 3 16 11 21 7c4 -3 2 -8 2 -8c-24 -18 -88 -65 -116 -50c-16 9 -13 13 -14 27v15c0 0 2 11 0 17c-27 -36 -45 -58 -87 -60c-30 -2 -69 -5 -93 20c-27 29 -17 109 -16 118v38
c0 41 2 35 -4 77c-2 7 -16 -2 -23 -6c-5 -3 -17 -6 -22 -6s-4 6 0 9c23 16 89 59 115 42c17 -10 5 -63 5 -77v-54c0 -23 -12 -102 24 -123c15 -9 38 -10 57 2c63 41 48 90 48 144v34c0 27 -11 49 19 67c9 5 19 9 30 10c7 2 30 0 29 -7zM340 469c16 -2 -11 -37 -55 -84
c-23 -25 -34 -35 -39 -39c-8 -6 -12 -10 -21 -16c-5 -4 -14 -11 -20 -4l8 20c20 38 19 26 35 66l13 33c7 18 3 19 22 26c15 5 42 0 57 -2z" />
    <glyph glyph-name="ugrave" unicode="&#xf9;" horiz-adv-x="429" 
d="M381 278v-20c0 -6 -2 -22 -2 -30c0 0 -3 -60 -3 -65v-45c0 -33 0 -52 5 -85l25 9c8 3 16 11 21 7c4 -3 2 -8 2 -8c-24 -18 -88 -65 -116 -50c-16 9 -13 13 -14 27v15c0 0 2 11 0 17c-27 -36 -45 -58 -87 -60c-30 -2 -69 -5 -93 20c-27 29 -17 109 -16 118v38
c0 41 2 35 -4 77c-2 7 -16 -2 -23 -6c-5 -3 -17 -6 -22 -6s-4 6 0 9c23 16 89 59 115 42c17 -10 5 -63 5 -77v-54c0 -23 -12 -102 24 -123c15 -9 38 -10 57 2c63 41 48 90 48 144v34c0 27 -11 49 19 67c9 5 19 9 30 10c7 2 30 0 29 -7zM123 470h9h10h20c5 0 5 -1 9 -1
c6 0 5 0 12 -1c7 0 10 -7 14 -17c3 -8 9 -19 12 -28c8 -19 6 -13 16 -31c3 -5 34 -53 39 -60c3 -6 -7 -10 -22 -2c-5 3 -14 9 -22 16c-11 8 -28 24 -41 37c-9 9 -24 25 -40 43c-4 6 -10 13 -17 21c-7 9 -6 18 1 23z" />
    <glyph glyph-name="ucircumflex" unicode="&#xfb;" horiz-adv-x="429" 
d="M381 278v-20c0 -6 -2 -22 -2 -30c0 0 -3 -60 -3 -65v-45c0 -33 0 -52 5 -85l25 9c8 3 16 11 21 7c4 -3 2 -8 2 -8c-24 -18 -88 -65 -116 -50c-16 9 -13 13 -14 27v15c0 0 2 11 0 17c-27 -36 -45 -58 -87 -60c-30 -2 -69 -5 -93 20c-27 29 -17 109 -16 118v38
c0 41 2 35 -4 77c-2 7 -16 -2 -23 -6c-5 -3 -17 -6 -22 -6s-4 6 0 9c23 16 89 59 115 42c17 -10 5 -63 5 -77v-54c0 -23 -12 -102 24 -123c15 -9 38 -10 57 2c63 41 48 90 48 144v34c0 27 -11 49 19 67c9 5 19 9 30 10c7 2 30 0 29 -7zM346 344c-3 -2 -4 2 -7 2
c-2 0 -4 -2 -6 -2s-4 1 -4 1c-2 0 -11 4 -17 2c-9 -3 -17 7 -32 22l-28 34c-18 22 -12 13 -28 29l-13 -12l-35 -44c-5 -6 -16 -17 -19 -20c-4 -4 -16 -10 -23 -8c-13 6 -2 17 7 28l25 33c9 12 55 87 76 85c15 -2 24 -25 43 -56c22 -37 19 -22 45 -63l9 -14l3 -4l4 -5l1 -4
s0 -3 -1 -4z" />
    <glyph glyph-name="udieresis" unicode="&#xfc;" horiz-adv-x="429" 
d="M381 278v-20c0 -6 -2 -22 -2 -30c0 0 -3 -60 -3 -65v-45c0 -33 0 -52 5 -85l25 9c8 3 16 11 21 7c4 -3 2 -8 2 -8c-24 -18 -88 -65 -116 -50c-16 9 -13 13 -14 27v15c0 0 2 11 0 17c-27 -36 -45 -58 -87 -60c-30 -2 -69 -5 -93 20c-27 29 -17 109 -16 118v38
c0 41 2 35 -4 77c-2 7 -16 -2 -23 -6c-5 -3 -17 -6 -22 -6s-4 6 0 9c23 16 89 59 115 42c17 -10 5 -63 5 -77v-54c0 -23 -12 -102 24 -123c15 -9 38 -10 57 2c63 41 48 90 48 144v34c0 27 -11 49 19 67c9 5 19 9 30 10c7 2 30 0 29 -7zM148 441c13 5 28 6 40 -2
c11 -8 19 -24 20 -42c0 -15 -6 -28 -20 -38c-12 -7 -27 -11 -42 -5c-13 5 -24 16 -27 32c-4 19 2 44 29 55zM284 441c10 5 29 4 39 -2c11 -7 22 -20 23 -40c0 -15 -5 -29 -19 -38c-11 -8 -27 -13 -43 -8c-10 4 -23 13 -28 31c-6 20 3 45 28 57z" />
    <glyph glyph-name="dagger" unicode="&#x2020;" horiz-adv-x="493" 
d="M293 444c22 0 33 2 57 6h14c24 6 88 36 113 15c12 -9 20 -23 19 -38c0 -12 -9 -28 -25 -38c-29 -19 -71 4 -110 15c-16 5 -27 7 -36 8c-3 1 -33 3 -36 -1l32 -396c2 -24 18 -122 -20 -145c-13 -7 -35 -8 -52 4c-38 28 -19 116 -16 136l5 40c5 41 6 58 6 77v69
c0 14 4 26 4 26c0 8 2 21 4 27l10 108c1 16 2 24 2 28c0 3 0 25 -3 29c-35 1 -48 -2 -84 -14c-26 -9 -58 -26 -84 -16c-15 5 -31 17 -35 37c-3 15 2 30 16 41c23 19 99 -7 109 -9h18c42 -9 22 -8 64 -6c-3 34 -5 50 -13 84l-9 39c-3 13 -32 95 -8 126c10 12 27 19 45 18
c16 0 32 -6 41 -20c19 -28 1 -63 -9 -114l-15 -74c-1 -7 -4 -23 -4 -62z" />
    <glyph glyph-name="degree" unicode="&#xb0;" horiz-adv-x="331" 
d="M195 771c81 2 150 -62 151 -142s-60 -146 -141 -149c-80 -2 -149 61 -151 142c-1 79 62 148 141 149zM76 622c2 -69 61 -123 129 -122s122 61 121 129c-1 70 -60 123 -131 121c-68 -2 -121 -60 -119 -128z" />
    <glyph glyph-name="cent" unicode="&#xa2;" horiz-adv-x="339" 
d="M199 342c3 4 8 4 12 4c12 0 10 -13 12 -29c1 -5 -3 -24 0 -28c28 -3 96 -11 113 -49c5 -11 4 -21 -4 -30c-6 -7 -18 -13 -32 -10c-13 3 -18 11 -38 36c-5 7 -9 15 -18 21s-22 7 -22 7v-113v-116c27 -1 39 -1 53 4l26 13c12 6 23 19 27 9c1 -3 -2 -8 -2 -8
s-20 -24 -42 -35c-33 -17 -63 -23 -63 -23v-28s1 -18 -1 -30c-1 -7 -11 -9 -15 -6c-7 5 -7 21 -7 31c0 4 0 27 -1 32c-56 2 -82 3 -123 65c-25 39 -25 86 -10 127c25 68 69 92 132 104v26c0 3 -1 20 3 26zM185 262c-2 -1 -9 -3 -13 -5c-11 -5 -17 -13 -23 -22
c-9 -14 -13 -34 -14 -52c-4 -59 -10 -98 62 -144v6l1 56v163s-8 0 -13 -2z" />
    <glyph glyph-name="sterling" unicode="&#xa3;" horiz-adv-x="561" 
d="M320 320c4 -4 11 -3 16 -3h17c7 0 15 1 23 1l29 -1c6 0 27 0 35 -3c3 -1 8 -2 8 -10s-5 -9 -8 -10c-25 -5 -83 -5 -90 -5h-22c5 -73 6 -85 -31 -162c55 -30 157 -73 209 -37c13 9 21 18 29 35c2 5 5 11 7 19c0 2 1 14 11 14c7 -1 5 -21 2 -33c-1 -5 -5 -20 -11 -35
c-10 -25 -27 -51 -48 -68c-37 -31 -103 -44 -145 -34c-32 7 -55 25 -96 58c-56 -49 -94 -74 -145 -58c-27 8 -49 27 -56 57c-6 23 -1 61 23 86c33 34 75 34 119 24c8 0 17 -4 19 -5c5 -2 11 -8 16 -6c3 1 3 3 3 5c4 52 -10 80 -33 138h-23c-34 0 -45 -4 -79 3
c0 0 -7 2 -6 10c1 11 10 15 26 16c9 1 14 -1 23 -2c14 -1 18 -1 23 -1c3 0 20 -1 24 3c-36 107 -68 220 12 318c61 74 137 88 207 78c48 -6 92 -22 118 -82c10 -22 12 -47 2 -60c-7 -11 -19 -18 -36 -17c-13 1 -27 8 -37 27c-4 8 -6 17 -5 37c0 12 6 27 0 39
c-9 18 -32 27 -56 28c-36 2 -87 -14 -118 -58c-44 -63 -22 -113 7 -197c0 0 31 -103 37 -109zM82 49c5 -20 20 -33 34 -37c19 -6 39 -1 61 18s36 39 36 47c-1 8 -12 17 -31 26c-28 13 -57 16 -76 5c-25 -15 -29 -41 -24 -59z" />
    <glyph glyph-name="section" unicode="&#xa7;" horiz-adv-x="435" 
d="M367 143c39 -51 64 -111 41 -165c-32 -74 -87 -101 -153 -109c-47 -6 -113 -2 -159 59c-20 27 -29 56 -19 80c7 16 22 30 41 32c15 1 33 -3 45 -21c6 -9 11 -24 12 -40l-6 -41c4 -16 23 -31 45 -37c16 -4 87 -5 116 25c23 24 28 73 21 100c-18 64 -77 86 -137 109l-21 8
c-65 25 -119 72 -129 146c-8 66 11 97 86 150c-53 56 -69 93 -54 157c11 48 43 85 101 105c53 19 118 18 169 -21c35 -27 57 -72 55 -100c-1 -14 -9 -34 -27 -44c-10 -5 -24 -6 -41 3c-12 8 -24 21 -24 39c-1 22 23 40 14 65c-8 22 -37 39 -64 45c-28 7 -64 6 -94 -23
c-27 -26 -35 -61 -30 -90c11 -57 51 -67 113 -101l36 -20c68 -38 138 -95 140 -170c1 -37 -26 -102 -77 -141zM139 386c-18 -21 -24 -46 -18 -68c20 -69 105 -101 154 -122l23 -10c3 -2 10 -7 24 -13l23 -13c36 35 50 67 48 93c-6 78 -105 109 -177 147l-40 21
c-12 -11 -28 -23 -37 -35z" />
    <glyph glyph-name="bullet" unicode="&#x2022;" horiz-adv-x="158" 
d="M97 375c17 5 38 4 56 -11c17 -13 26 -32 24 -52c-1 -16 -11 -37 -33 -49c-17 -9 -39 -10 -55 -1c-17 9 -31 26 -34 49c-3 26 12 54 42 64z" />
    <glyph glyph-name="paragraph" unicode="&#xb6;" horiz-adv-x="485" 
d="M485 711v-24h-70v-776h-31v776h-98v-776h-33v411c-57 3 -136 17 -175 90c-29 55 -32 158 3 214c58 92 162 85 223 85h181z" />
    <glyph glyph-name="germandbls" unicode="&#xdf;" horiz-adv-x="413" 
d="M299 630c-9 9 -10 21 -14 27c-7 13 -10 15 -24 18c-10 2 -25 1 -39 -10c-29 -23 -27 -98 -27 -109l-8 -258c1 -9 1 -19 2 -23c0 -6 2 -18 3 -23c57 32 113 52 171 23c23 -12 35 -29 37 -52c2 -19 -3 -41 -25 -59c-11 -9 -21 -12 -41 -19c31 -9 65 -23 75 -59
c10 -35 6 -83 -26 -122c-54 -64 -159 -86 -216 -82c-12 3 0 15 19 19c5 1 26 4 32 5c19 4 48 14 64 25c42 27 48 69 48 109c0 20 1 64 -24 79c-14 8 -28 7 -53 4c0 0 -7 0 -6 10s12 10 23 13c8 3 11 2 21 7c17 7 29 18 34 34c4 16 1 34 -13 49c-18 19 -43 22 -64 18
c-20 -4 -46 -19 -57 -47c-6 -16 -9 -159 4 -175c9 -11 32 -10 48 -19c4 -2 5 -5 4 -9c-1 -6 -17 -4 -34 -4c0 0 -138 -1 -152 0c-2 0 -7 1 -7 6c0 11 16 9 29 13c17 6 19 1 27 22c1 2 3 33 3 66v288c0 76 8 241 123 303c26 14 67 19 93 3c18 -12 30 -29 29 -47
c-1 -10 -9 -20 -19 -24c-6 -2 -12 -3 -19 -3c-12 0 -10 0 -21 3z" />
    <glyph glyph-name="registered" unicode="&#xae;" horiz-adv-x="741" 
d="M354 667c85 11 218 -15 306 -118c83 -98 97 -221 69 -319c-34 -115 -108 -192 -228 -229c-89 -27 -223 -18 -320 63c-105 88 -134 209 -123 303c12 99 63 204 184 266c34 17 76 30 112 34zM253 597c-107 -59 -151 -156 -158 -249c-7 -86 22 -190 118 -263
c83 -64 204 -73 288 -44c108 38 171 117 195 213c22 89 1 202 -75 282c-83 89 -198 107 -276 93c-26 -5 -62 -15 -92 -32zM205 535h157c47 0 158 0 196 -63c13 -22 14 -54 3 -75c-26 -50 -87 -61 -127 -68c64 -29 86 -63 99 -126c4 -21 6 -42 20 -48c5 -3 12 -3 22 3
c17 12 19 42 22 67h23c-3 -33 -8 -79 -51 -97c-26 -10 -64 -8 -84 8c-34 27 -23 107 -32 135c-9 25 -27 43 -55 49c-25 5 -31 1 -58 1v-64v-49c0 -21 -2 -37 13 -48c9 -6 21 -5 55 -7v-24h-204v25c22 0 51 0 63 12c5 7 5 73 5 83v169c0 17 6 75 -15 87c-7 4 -19 6 -52 6v24z
M459 363c28 22 30 58 27 80c-3 29 -18 49 -42 58c-21 11 -70 14 -87 2c-22 -11 -17 -84 -17 -103v-52c46 0 97 -3 119 15z" />
    <glyph glyph-name="copyright" unicode="&#xa9;" horiz-adv-x="738" 
d="M350 667c82 11 217 -12 304 -114c80 -92 100 -225 73 -321c-32 -110 -104 -190 -225 -228c-91 -28 -226 -19 -320 59c-107 89 -136 210 -125 303c10 93 60 202 180 265c37 19 81 32 113 36zM254 598c-110 -59 -154 -158 -162 -246c-8 -84 23 -191 117 -265
c87 -68 206 -75 290 -47c105 36 170 115 194 212c22 85 4 200 -72 282c-85 92 -198 109 -278 95c-24 -4 -59 -15 -89 -31zM530 548h21v-167h-18c-10 45 -33 116 -94 140c-30 12 -66 13 -98 -8c-55 -37 -66 -117 -67 -172c0 -38 11 -132 66 -170c28 -19 80 -24 113 -11
c40 16 59 35 89 82l20 -11c-53 -85 -99 -111 -176 -110c-58 1 -122 30 -161 95c-40 66 -43 161 -9 226c37 72 101 107 164 112c14 1 40 -3 62 -10c26 -8 59 -28 63 -28c23 1 21 16 25 32z" />
    <glyph glyph-name="trademark" unicode="&#x2122;" horiz-adv-x="718" 
d="M526 443l51 153c0 6 6 35 16 39c0 1 11 -2 30 -2c15 0 13 0 31 2h7c8 1 13 2 14 -2c1 -5 -5 -6 -11 -8l-10 -2c-1 0 -13 -4 -13 -4l-17 -7c-1 -15 -1 -22 2 -35l37 -165c2 -10 5 -36 22 -44c4 -1 10 -2 18 -3c2 0 6 -1 9 -1c5 0 8 1 9 -2c2 -3 1 -6 -3 -6h-125
c-2 0 -9 -1 -12 0c-6 1 -6 2 -6 6c1 3 10 4 10 4h13c7 1 21 1 24 5c7 7 -2 32 -3 39l-32 132c-1 1 -4 9 -4 10l-62 -174c-1 -3 -3 -9 -7 -11h-2c-3 2 -8 11 -8 15l-79 178c-1 1 -3 7 -4 9c-1 -6 -1 -4 -2 -10l-16 -134c-1 -4 -7 -39 7 -50c6 -5 11 -5 25 -7c4 -1 9 0 13 -2
c6 0 8 -9 2 -10h-17h-106s-3 -1 -3 2c-1 1 0 2 1 3c2 3 6 3 10 3l11 2c9 2 15 6 22 14c9 12 13 29 15 45l19 135c3 20 10 35 -12 52c-7 5 -14 9 -24 11c-4 1 -7 2 -12 2c-3 0 -11 0 -13 4c-1 2 0 4 2 5s39 0 39 0c55 0 47 18 71 -33zM88 630l182 3c12 0 12 -1 21 0
c4 0 7 -1 12 2c4 3 6 7 10 7c4 1 6 0 7 -2c2 -3 1 -35 1 -38v-24s-1 -10 -1 -12c0 -3 -3 -3 -4 -1c-8 14 -12 37 -35 47c-15 6 -49 7 -68 5c-3 -2 -3 -10 -3 -13l-2 -13v-170c0 -4 -2 -43 12 -53c6 -3 27 0 35 -2c3 0 7 0 7 -5c1 -3 0 -5 -2 -6s-31 -1 -37 -1h-100
c-5 0 -12 -1 -15 0c-1 1 -3 2 -3 4s0 4 1 5c2 2 8 3 8 3c11 4 29 -3 37 5c10 8 10 35 10 43v165c0 5 2 32 -5 36c-6 3 -55 0 -60 -3c-18 -8 -29 -32 -37 -42c-2 -2 -5 -2 -4 1c0 4 2 13 2 13l2 14c0 4 4 40 11 45c4 2 8 2 12 -3c1 -1 4 -9 6 -10z" />
    <glyph glyph-name="acute" unicode="&#xb4;" horiz-adv-x="190" 
d="M189 516c16 -2 -11 -36 -55 -84c-23 -24 -34 -34 -39 -38c-8 -7 -12 -11 -21 -17c-5 -4 -14 -11 -20 -4l8 20c20 38 20 27 35 66l13 34c7 17 3 18 22 25c15 5 42 0 57 -2z" />
    <glyph glyph-name="dieresis" unicode="&#xa8;" horiz-adv-x="281" 
d="M83 518c13 5 28 6 39 -2c12 -8 20 -24 21 -42c0 -15 -6 -28 -21 -38c-11 -7 -26 -11 -41 -5c-13 5 -24 16 -27 32c-4 19 2 44 29 55zM219 518c10 5 29 4 39 -2c11 -7 21 -20 22 -40c1 -15 -5 -29 -18 -38c-11 -8 -27 -13 -43 -8c-10 4 -23 13 -28 31c-5 20 2 45 28 57z
" />
    <glyph glyph-name="notequal" unicode="&#x2260;" horiz-adv-x="551" 
d="M482 521l-76 -136h165v-55h-195l-78 -138h273v-56h-303l-90 -162l-50 29l74 133h-156v56h188l77 138h-265v55h296l90 164z" />
    <glyph glyph-name="AE" unicode="&#xc6;" 
 />
    <glyph glyph-name="Oslash" unicode="&#xd8;" horiz-adv-x="836" 
d="M698 629c17 16 22 23 37 36c6 5 14 13 20 15c9 3 13 0 17 -9c0 -15 -4 -12 -18 -31c-12 -12 -21 -20 -31 -33c101 -105 125 -262 100 -352c-38 -139 -145 -222 -274 -260c-117 -34 -241 -16 -363 68l-66 -58h-9c-8 5 -9 6 -9 18c2 6 12 15 16 21l41 41
c-107 114 -123 231 -98 340c24 108 102 211 229 260c128 50 279 31 408 -56zM395 676c-77 -9 -122 -54 -164 -128c-61 -107 -47 -283 2 -390l399 405c-77 100 -155 123 -237 113zM249 128c64 -83 119 -116 187 -116c71 -1 153 34 210 124c72 113 58 285 3 397z" />
    <glyph glyph-name="infinity" unicode="&#x221e;" horiz-adv-x="449" 
d="M216 275c3 -4 4 -8 2 -12c-3 -6 -8 -8 -20 -8c0 0 -16 2 -23 0c-4 -1 -7 -5 -7 -5l95 -164l9 18c25 50 53 99 47 148c-4 0 -20 0 -25 1c-8 2 -16 6 -14 18c2 10 11 9 24 9c0 0 37 -2 59 -2c18 0 47 2 47 2l23 1c8 0 20 -3 15 -17l-3 -4c-16 -6 -19 -5 -34 -5
c-18 -1 -21 2 -32 -11c-15 -18 -24 -34 -41 -71l-75 -168c-15 -34 -13 -30 -31 -64l-42 -78c-19 -36 -49 -108 -48 -113s23 -4 23 -4h40c5 0 17 -1 21 -2c8 -2 13 -5 11 -13c-1 -6 -7 -9 -7 -9c-58 0 -97 1 -155 -17c0 0 -6 11 -11 15c-3 2 -30 -2 -30 -2
c-11 -1 -29 -4 -31 5c-2 7 0 15 11 15c7 3 17 3 25 4l23 3h11c5 0 9 1 13 1c10 6 25 34 26 36l24 41l21 38l20 43c54 116 57 72 -5 181l-47 83c-55 97 -49 74 -124 96c-9 3 -9 13 2 15c10 2 22 2 34 2l48 -2c17 -1 43 -4 67 -2l33 3c10 1 26 3 31 -5zM343 487
c16 -2 -11 -37 -55 -84c-23 -25 -34 -35 -39 -39c-8 -7 -12 -11 -21 -17c-5 -3 -14 -10 -20 -3l8 19c17 40 20 27 35 66l13 34c7 18 3 19 22 26c15 5 42 0 57 -2z" />
    <glyph glyph-name="plusminus" unicode="&#xb1;" horiz-adv-x="641" 
d="M328 589h44v-165h269v-49h-269v-165h-45v166h-272v48h273v165zM57 103h584v-49h-584v49z" />
    <glyph glyph-name="lessequal" unicode="&#x2264;" horiz-adv-x="549" 
d="M56 55h498v-55h-498v55zM56 410l498 229v-62l-433 -199l433 -198v-64l-498 230v64z" />
    <glyph glyph-name="greaterequal" unicode="&#x2265;" horiz-adv-x="549" 
d="M554 0h-498v55h498v-55zM554 346l-498 -230v64l434 198l-434 199v62l498 -229v-64z" />
    <glyph glyph-name="yen" unicode="&#xa5;" horiz-adv-x="771" 
d="M482 104c-3 -19 5 -36 8 -49c5 -17 2 -19 21 -25c19 -7 28 -3 47 -4c7 -1 17 1 23 -4c9 -7 7 -14 2 -19c-6 -6 -53 -3 -55 -3h-267c-5 0 -20 -1 -23 7c-6 14 2 22 17 23c11 1 81 -2 94 6c10 7 14 43 14 68v32v45h-293v32h293v65s2 -18 0 0c-4 14 -6 25 -15 42
c-1 3 -278 0 -278 0v32h264s4 -9 0 -3c-5 14 -11 20 -12 23l-106 189c-52 93 -38 95 -132 101c-22 2 -32 4 -36 10c-3 5 -2 12 3 17c9 9 89 6 99 5h120h31l77 -1c10 0 19 -2 22 -6c4 -6 3 -18 -4 -22s-23 -3 -42 -3c-22 0 -36 0 -41 -9c-10 -14 33 -93 41 -108l82 -147
c7 -10 12 -19 19 -28l63 97c15 24 79 133 81 187l-5 4c-5 2 -14 3 -17 3l-59 5s-14 0 -17 5c-4 7 -4 16 4 22c7 5 24 3 31 3h224c11 0 34 1 39 -8c4 -6 1 -13 -5 -14c-88 -13 -100 -7 -149 -76l-38 -53c-38 -53 -86 -134 -107 -193c-2 -4 0 0 0 0h242v-32v0h-251
s-7 -29 -9 -42c-1 -19 0 0 0 0v0v-65h260v-32h-260s-3 -47 0 -77z" />
    <glyph glyph-name="mu" unicode="&#xb5;" horiz-adv-x="606" 
d="M80 430h84v-209c0 -56 -17 -113 53 -152c23 -13 69 -15 94 0c52 31 45 136 45 174v186h88v-239c0 -3 -8 -99 35 -124c16 -9 44 -11 60 -2c18 10 26 25 32 48c4 10 4 12 7 25c0 7 2 20 8 26h10c12 -37 17 -96 -16 -135c-24 -29 -61 -34 -87 -31c-34 4 -59 19 -78 60
c-7 14 -12 31 -16 44c-31 -74 -46 -100 -121 -104c-66 -4 -90 25 -135 93l5 -135c1 -25 9 -136 -27 -154c-13 -7 -32 -6 -44 1c-31 20 -19 131 -19 132z" />
    <glyph glyph-name="mu" unicode="&#x3bc;" horiz-adv-x="606" 
d="M80 430h84v-209c0 -56 -17 -113 53 -152c23 -13 69 -15 94 0c52 31 45 136 45 174v186h88v-239c0 -3 -8 -99 35 -124c16 -9 44 -11 60 -2c18 10 26 25 32 48c4 10 4 12 7 25c0 7 2 20 8 26h10c12 -37 17 -96 -16 -135c-24 -29 -61 -34 -87 -31c-34 4 -59 19 -78 60
c-7 14 -12 31 -16 44c-31 -74 -46 -100 -121 -104c-66 -4 -90 25 -135 93l5 -135c1 -25 9 -136 -27 -154c-13 -7 -32 -6 -44 1c-31 20 -19 131 -19 132z" />
    <glyph glyph-name="partialdiff" unicode="&#x2202;" horiz-adv-x="667" 
d="M567 556c8 3 13 4 18 1c2 -1 8 -5 9 -14c2 -11 -50 -71 -60 -84l-392 -517c-7 -10 -54 -82 -70 -81c-5 1 -14 9 -15 13c-2 6 52 84 57 91l392 512c1 2 50 73 61 79zM212 308l1 -6l-4 -4c-4 0 -8 -3 -12 -3h-77c-2 0 -56 0 -59 3c-1 2 -4 5 -3 10c4 4 6 6 12 6
c4 0 35 1 40 6c7 7 5 55 5 63v26c0 13 -2 19 -3 32l-48 -18c-4 0 -6 -2 -12 -2l-4 4v3l41 20c10 5 57 30 68 23c10 -6 8 -46 8 -53v-58c0 -9 -2 -39 11 -46c0 -1 35 -6 36 -6zM448 45c5 0 11 -1 15 -1c2 0 15 -2 18 -2h13h24h31l1 4c14 54 -1 72 8 96c6 6 15 16 35 30
c5 3 6 1 6 -10v-243c0 -10 2 -38 -10 -48c-1 0 -15 -6 -17 -8c-6 -1 -14 -5 -19 -3c-4 3 -3 9 -3 15v72l1 16v38h-31h-14h-22c-2 0 -21 1 -24 2h-23c-2 0 -44 -4 -47 -2c0 0 -6 -2 -7 3c-1 2 1 5 1 5c1 3 41 44 43 47l163 166c7 7 44 51 56 48c4 0 8 -2 10 -10
c3 -10 -37 -45 -48 -56z" />
    <glyph glyph-name="summation" unicode="&#x2211;" horiz-adv-x="612" 
d="M494 42h10c8 0 39 0 46 1c2 1 8 2 11 3c7 5 9 6 12 8c5 6 15 13 23 9l-10 -21c-5 -8 -7 -16 -10 -24l-4 -12c-2 -3 -2 -7 -6 -11c-3 0 -10 -2 -14 0v7l-4 3c-23 2 -51 0 -76 -3h-19l-18 -1c-10 -3 -7 1 -17 -2c-6 -1 -10 -3 -17 2c-7 6 -5 10 -5 16c45 22 109 40 127 104
c3 12 3 26 -7 35c-9 9 -21 12 -35 9c-10 -2 -20 -7 -22 -13s3 -10 4 -16c2 -7 2 -12 0 -16c-4 -11 -10 -14 -22 -16c-10 -1 -18 1 -23 7c-6 4 -8 11 -6 21c6 19 29 33 53 40c35 10 77 7 101 -11c15 -12 19 -25 17 -40c-5 -33 -83 -76 -89 -79zM561 556c8 3 14 4 18 1
c2 -1 8 -5 9 -14c2 -11 -50 -71 -60 -84l-392 -517c-7 -10 -54 -82 -70 -81c-5 1 -14 9 -15 13c-2 6 52 84 57 91l392 512c1 2 50 73 61 79zM206 308l1 -6l-4 -4c-4 0 -8 -3 -11 -3h-77c-2 0 -57 0 -60 3c-1 2 -4 5 -3 10c4 4 6 6 12 6c4 0 35 1 40 6c8 7 6 55 6 63v26
c0 13 -3 19 -4 32l-48 -18c-4 0 -6 -2 -12 -2l-4 4v3l41 20c10 5 57 30 68 23c10 -6 8 -46 8 -53v-58c0 -9 -2 -39 11 -46c0 -1 35 -6 36 -6z" />
    <glyph glyph-name="integral" unicode="&#x222b;" horiz-adv-x="761" 
d="M291 625c0 0 2 0 2 -2c0 -3 -2 -5 -2 -5l-142 -153c35 4 94 0 121 -30c17 -20 20 -58 11 -81c-16 -38 -56 -58 -98 -65c-22 -3 -84 -1 -111 27c-9 10 -13 21 -9 30c2 5 8 11 16 13c9 1 18 -3 28 -13c20 -22 29 -44 62 -43c19 0 38 9 52 31c11 17 13 57 0 76
c-17 26 -45 35 -73 35c-11 0 -17 0 -23 -2c-1 -1 -19 -9 -21 -9c-3 1 -7 3 -7 9s42 45 49 53l82 84h-25c-10 0 -11 -1 -22 -1h-23c-17 1 -31 3 -43 -12c-6 -6 -4 -6 -9 -14c-2 -2 -5 -10 -11 -12c-2 -1 -6 -1 -7 3s-1 6 1 12c0 0 8 18 12 28l6 21c2 4 8 20 14 20h170z
M666 556c8 3 14 4 19 1c2 -1 8 -5 9 -14c2 -11 -50 -71 -60 -84l-392 -517c-7 -10 -54 -82 -70 -81c-5 1 -14 9 -15 13c-2 6 51 84 56 91l393 512c1 2 49 73 60 79zM548 45c5 0 11 -1 15 -1c2 0 14 -2 17 -2h13h25h31l1 4c8 55 -1 72 7 96c6 6 15 16 36 30c5 3 6 1 6 -10
v-243c0 -10 2 -38 -10 -48c-1 0 -16 -6 -18 -8c-6 -1 -14 -5 -18 -3c-4 3 -3 9 -3 15v72l1 16v38h-31h-14h-23c-2 0 -20 1 -23 2h-23c-2 0 -44 -4 -47 -2c0 0 -6 -2 -7 3c-1 2 1 5 1 5c1 3 41 44 43 47l163 166c7 7 43 51 55 48c4 0 9 -2 11 -10c3 -10 -37 -45 -48 -56z" />
    <glyph glyph-name="ordfeminine" unicode="&#xaa;" horiz-adv-x="177" 
d="M198 474c0 -2 -6 -7 -9 -8c-2 -2 -6 -4 -10 -5c-7 -3 -16 -3 -21 0c-7 2 -11 7 -19 21c-26 -21 -54 -33 -77 -20c-8 5 -14 14 -13 26c5 28 65 47 83 51l10 2c0 9 3 39 -11 50c-6 4 -16 6 -26 2c-14 -6 -11 -17 -14 -25c-3 -7 -8 -12 -16 -15c-5 -1 -12 0 -15 6
c-2 3 -4 8 -2 14c6 13 33 28 49 32c18 4 43 2 59 -14c15 -14 12 -51 12 -64v-12l1 -27c1 -26 18 -13 19 -14zM98 511c-8 -7 -10 -14 -9 -21c1 -9 6 -13 11 -15c7 -3 15 0 24 7c21 14 17 28 17 46c-20 -4 -34 -8 -43 -17z" />
    <glyph glyph-name="ordmasculine" unicode="&#xba;" horiz-adv-x="203" 
d="M124 609c19 4 62 -4 82 -23c19 -18 23 -50 20 -66c-3 -19 -32 -48 -51 -56c-23 -9 -61 -12 -88 7c-25 18 -36 41 -35 66c0 25 17 47 41 61c9 6 22 9 31 11zM96 546c-1 -23 4 -49 28 -66c11 -8 26 -10 39 -5c18 9 21 28 23 41c1 11 -2 58 -23 74c-13 9 -33 10 -43 6
c-19 -8 -24 -34 -24 -50z" />
    <glyph glyph-name="Omega" unicode="&#x3a9;" horiz-adv-x="768" 
d="M356 0h-294v162h15c11 -48 24 -60 66 -60h157l-2 26c-77 24 -125 51 -166 110c-70 103 -58 220 -17 294c40 74 87 96 115 112c45 27 112 44 183 44s136 -17 182 -44c28 -16 75 -38 115 -112c41 -74 54 -191 -17 -294c-40 -59 -89 -86 -166 -110l-2 -26h157
c44 0 54 12 66 60h16v-162h-295l15 152c33 14 80 24 119 115c33 76 44 248 -45 337c-41 41 -95 51 -145 51c-51 0 -105 -10 -145 -51c-89 -89 -79 -261 -46 -337c39 -91 86 -101 120 -115z" />
    <glyph glyph-name="Omega" unicode="&#x2126;" horiz-adv-x="768" 
d="M356 0h-294v162h15c11 -48 24 -60 66 -60h157l-2 26c-77 24 -125 51 -166 110c-70 103 -58 220 -17 294c40 74 87 96 115 112c45 27 112 44 183 44s136 -17 182 -44c28 -16 75 -38 115 -112c41 -74 54 -191 -17 -294c-40 -59 -89 -86 -166 -110l-2 -26h157
c44 0 54 12 66 60h16v-162h-295l15 152c33 14 80 24 119 115c33 76 44 248 -45 337c-41 41 -95 51 -145 51c-51 0 -105 -10 -145 -51c-89 -89 -79 -261 -46 -337c39 -91 86 -101 120 -115z" />
    <glyph glyph-name="ae" unicode="&#xe6;" horiz-adv-x="495" 
d="M287 244c59 47 89 61 150 34c35 -15 62 -45 63 -82c1 -16 -1 -30 -13 -37h-90c-6 0 -43 -2 -91 -9c-4 -6 -5 -7 -2 -14c0 -1 0 -6 2 -14c3 -14 7 -25 9 -30c9 -19 21 -37 47 -50c22 -11 44 -12 69 -7c12 2 22 5 34 11c10 6 27 21 35 12c-41 -54 -98 -68 -151 -67
c-35 1 -61 9 -104 50c-49 -43 -90 -62 -140 -46c-17 5 -38 21 -44 45c-5 22 0 54 23 77c26 26 122 41 126 45c11 9 9 29 5 55c-3 18 -2 30 -27 40c-12 4 -30 3 -42 -7c-6 -4 -11 -12 -15 -27c0 -3 -4 -23 -11 -29c-8 -2 -16 -5 -43 -8c-9 6 -15 17 -12 26c1 7 5 18 13 28
c30 38 89 51 136 44c30 -5 46 -16 73 -40zM417 213c-1 8 -4 15 -8 22c-15 25 -33 25 -60 24c-46 -26 -44 -40 -46 -83c6 -5 26 4 33 4h14l35 5l27 5c6 7 5 16 5 23zM151 118c-19 -15 -24 -36 -22 -51c3 -17 16 -31 31 -37c27 -10 54 13 77 32l-17 75c-17 -2 -51 -4 -69 -19z
" />
    <glyph glyph-name="oslash" unicode="&#xf8;" horiz-adv-x="406" 
d="M338 263c7 2 21 17 25 22c13 9 15 15 28 5c4 -8 0 -13 -10 -23c-6 -6 -13 -14 -20 -22c40 -45 52 -96 41 -141c-10 -40 -74 -93 -108 -105c-46 -17 -109 -19 -168 13c-7 -4 -12 -9 -27 -25c-5 -5 -20 -18 -28 -18c-15 9 -9 15 1 31c4 5 23 23 31 30
c-47 56 -58 100 -45 144s65 94 115 110c37 11 113 8 165 -21zM223 268c-24 1 -45 -5 -61 -28c-26 -36 -24 -108 -7 -158l144 141c-32 40 -48 44 -76 45zM169 58c33 -33 48 -41 68 -43c23 -3 44 4 61 22c31 35 24 106 11 157z" />
    <glyph glyph-name="questiondown" unicode="&#xbf;" horiz-adv-x="353" 
d="M171 287c12 5 28 5 46 -7c15 -11 24 -25 25 -43c0 -14 -7 -31 -25 -44c-12 -8 -28 -13 -46 -6c-16 6 -28 21 -32 39c-4 22 4 50 32 61zM189 146c90 -82 45 -186 4 -268l-21 -42c-39 -78 -68 -141 -29 -208c16 -27 36 -40 61 -40c17 0 38 4 50 23c16 24 -4 37 -9 63
c-2 14 2 28 19 42c11 9 25 15 38 10c12 -3 25 -15 29 -35c6 -25 -3 -52 -32 -81c-37 -36 -100 -49 -142 -39c-45 11 -94 32 -114 90c-24 72 17 142 73 232l34 54c60 95 61 97 39 199z" />
    <glyph glyph-name="exclamdown" unicode="&#xa1;" horiz-adv-x="191" 
d="M89 287c12 4 30 3 47 -10c14 -10 23 -26 22 -44c-1 -14 -10 -31 -28 -42c-16 -9 -32 -11 -47 -4c-14 6 -27 22 -29 43c-2 20 7 47 35 57zM103 163c27 -54 41 -123 41 -167v-307c0 -27 -1 -60 7 -69c11 -10 14 -8 21 -8h10h5l5 -2v-8c-36 -20 -96 -45 -116 -32
c-26 16 -18 87 -16 107l40 364c6 57 -2 74 -6 115z" />
    <glyph glyph-name="logicalnot" unicode="&#xac;" horiz-adv-x="190" 
d="M197 440h-20l-72 149c-3 5 -54 93 -33 121c10 12 27 20 45 15c37 -10 42 -80 47 -105z" />
    <glyph glyph-name="radical" unicode="&#x221a;" horiz-adv-x="273" 
d="M58 516l5 -1c6 0 6 0 10 -2c5 -2 5 -2 10 -2c2 0 7 2 11 2c8 -3 20 -16 27 -23l15 -18l21 -22l20 -21c3 2 23 23 24 25c7 7 18 20 22 26c4 4 23 25 26 27c13 5 18 9 24 -1c0 -6 -4 -14 -6 -17l-32 -39c-11 -14 -53 -84 -75 -83c-16 1 -28 28 -45 55c-22 37 -19 28 -46 64
l-15 26z" />
    <glyph glyph-name="florin" unicode="&#x192;" horiz-adv-x="507" 
d="M410 689c-31 -39 -33 -62 -37 -105l-26 -270h29h20h31c13 0 23 0 33 -3v-20l-119 -7l-45 -376c-9 -72 -15 -154 -107 -189c-24 -9 -94 -13 -119 6c-13 10 -21 27 -19 43c1 11 9 23 19 27c6 2 25 -1 31 -6c10 -10 14 -12 14 -25c1 -5 5 -21 14 -26c2 -1 11 -5 23 4
c22 15 30 115 32 132l21 190c1 5 2 13 4 19l20 176c0 5 4 26 0 31h-37h-15h-37c-11 0 -18 -1 -25 4l-3 10c5 7 10 9 22 9c8 0 16 1 23 1h48h28l23 162c8 56 22 193 121 231c25 10 83 7 109 -15c12 -10 20 -22 17 -35c-3 -8 -11 -18 -22 -20c-10 -3 -24 -1 -35 12
c-6 8 -4 18 -10 27c-4 12 -12 13 -26 13z" />
    <glyph glyph-name="Delta" unicode="&#x394;" horiz-adv-x="632" 
d="M645 0h-603l320 688zM108 49h412l-193 468z" />
    <glyph glyph-name="Delta" unicode="&#x2206;" horiz-adv-x="632" 
d="M645 0h-603l320 688zM108 49h412l-193 468z" />
    <glyph glyph-name="guillemotleft" unicode="&#xab;" horiz-adv-x="311" 
d="M189 268c0 -8 -11 -27 -14 -31c-3 -5 -7 -10 -11 -15l-3 -4l-2 -4l-3 -4l-2 -5c-10 -15 -33 -48 -29 -64c2 -7 15 -26 35 -58c2 -3 7 -9 10 -14l3 -6l4 -4l2 -4c5 -8 17 -20 7 -28l-22 15c-17 11 -115 82 -112 109c2 16 41 51 63 70c13 14 24 19 36 32c10 7 29 25 38 15z
M306 268c0 -10 -2 -12 -14 -31c-7 -9 -17 -24 -20 -32c-10 -15 -33 -49 -30 -62c1 -6 11 -23 36 -60l4 -6l4 -4l1 -4l1 -3l3 -4s4 -4 6 -8c5 -7 18 -22 6 -27l-24 17c-17 12 -113 80 -110 107c2 15 44 54 63 71c10 9 19 18 37 31l18 13c4 3 11 11 19 2z" />
    <glyph glyph-name="guillemotright" unicode="&#xbb;" horiz-adv-x="307" 
d="M58 271l5 -2l5 -3l4 -3l18 -15c6 -5 33 -25 37 -27c22 -18 62 -53 64 -67c4 -30 -106 -112 -125 -127l-12 5l12 26c75 118 73 68 2 181l-14 28zM187 263c7 -5 12 -8 18 -14c7 -5 33 -24 38 -28c18 -15 62 -54 64 -67c4 -30 -103 -109 -126 -127l-9 1c-6 13 10 31 10 31
c8 10 15 21 22 31c2 5 15 25 19 31c6 9 11 22 14 29l-10 21l-58 96c7 9 16 -1 18 -4z" />
    <glyph glyph-name="ellipsis" unicode="&#x2026;" 
 />
    <glyph glyph-name="nbspace" unicode="&#xa0;" 
 />
    <glyph glyph-name="Agrave" unicode="&#xc0;" horiz-adv-x="806" 
d="M441 705c10 3 15 1 21 -15c0 0 7 -16 10 -25c15 -39 32 -102 32 -102c1 -4 17 -41 21 -52c2 -7 1 -11 4 -20l119 -351c13 -38 33 -99 87 -116c17 -5 41 -5 65 -5c0 0 5 -1 7 -7c1 -4 -1 -9 -1 -9c-4 -7 -12 -8 -22 -9c-3 -1 -11 -2 -24 -2l-158 5l-23 3h-59
c-13 0 -29 -5 -36 -4c-14 0 -27 -2 -27 18c1 7 11 9 23 9h23c29 0 20 4 50 10c0 50 -40 187 -55 201c-10 8 -78 3 -87 3h-14c-9 0 -22 2 -32 2h-68c-37 -56 -59 -139 -65 -195c8 -12 26 -13 34 -14c0 0 25 -1 31 -3c6 0 9 0 16 -1c7 1 30 -1 32 -12c1 -8 -6 -12 -15 -14
c-6 -1 -20 0 -26 0h-205c-4 0 -17 -1 -22 -1c-9 0 -12 -3 -22 5c-6 5 -4 13 3 18c8 6 13 3 20 4c7 0 14 1 21 1c2 0 11 1 20 3c33 5 29 3 52 34c25 34 21 28 32 58l151 413c2 5 20 59 20 66c0 4 -13 56 -11 65c0 6 -1 14 9 18c7 3 11 -13 21 -5c0 0 8 9 15 12c6 3 15 4 21 2
c4 5 8 11 12 12zM379 500l-72 -224c11 -4 28 -3 37 -3h139l-89 260c-8 -11 -11 -20 -15 -33zM337 905h9h9h20c5 0 5 -1 9 -1c6 0 5 0 12 -1c7 0 11 -7 15 -17c3 -7 9 -18 12 -28c7 -19 5 -13 15 -31c3 -5 34 -53 39 -60c3 -6 -7 -10 -22 -2c-5 3 -14 9 -22 16l-41 37
c-9 9 -24 25 -40 44c-4 6 -9 13 -16 21c-8 8 -6 17 1 22z" />
    <glyph glyph-name="Atilde" unicode="&#xc3;" horiz-adv-x="806" 
d="M441 705c10 3 15 1 21 -15c0 0 7 -16 10 -25c15 -39 32 -102 32 -102c1 -4 17 -41 21 -52c2 -7 1 -11 4 -20l119 -351c13 -38 33 -99 87 -116c17 -5 41 -5 65 -5c0 0 5 -1 7 -7c1 -4 -1 -9 -1 -9c-4 -7 -12 -8 -22 -9c-3 -1 -11 -2 -24 -2l-158 5l-23 3h-59
c-13 0 -29 -5 -36 -4c-14 0 -27 -2 -27 18c1 7 11 9 23 9h23c29 0 20 4 50 10c0 50 -40 187 -55 201c-10 8 -78 3 -87 3h-14c-9 0 -22 2 -32 2h-68c-37 -56 -59 -139 -65 -195c8 -12 26 -13 34 -14c0 0 25 -1 31 -3c6 0 9 0 16 -1c7 1 30 -1 32 -12c1 -8 -6 -12 -15 -14
c-6 -1 -20 0 -26 0h-205c-4 0 -17 -1 -22 -1c-9 0 -12 -3 -22 5c-6 5 -4 13 3 18c8 6 13 3 20 4c7 0 14 1 21 1c2 0 11 1 20 3c33 5 29 3 52 34c25 34 21 28 32 58l151 413c2 5 20 59 20 66c0 4 -13 56 -11 65c0 6 -1 14 9 18c7 3 11 -13 21 -5c0 0 8 9 15 12c6 3 15 4 21 2
c4 5 8 11 12 12zM379 500l-72 -224c11 -4 28 -3 37 -3h139l-89 260c-8 -11 -11 -20 -15 -33zM536 827c2 0 8 -1 5 -6c-22 -44 -43 -77 -87 -74c-44 4 -79 40 -107 26c-8 -4 -20 -24 -25 -29c-3 -3 -8 -4 -10 0c-3 6 1 16 4 24s7 16 12 22c13 16 27 30 42 33
c29 7 102 -30 111 -30c12 1 19 4 29 12c11 10 19 22 26 22z" />
    <glyph glyph-name="Otilde" unicode="&#xd5;" horiz-adv-x="836" 
d="M377 711c95 12 269 -8 374 -130c74 -85 100 -236 74 -327c-38 -135 -145 -216 -268 -255c-124 -39 -259 -24 -380 74c-107 87 -131 199 -120 304c11 113 78 231 193 292c29 15 86 37 127 42zM271 605c-85 -101 -89 -275 -66 -368c22 -85 65 -169 169 -210
c54 -21 135 -11 189 23c101 63 129 173 134 259c4 79 -19 235 -118 315c-61 49 -150 64 -209 48c-36 -10 -69 -32 -99 -67zM546 827c2 0 8 -1 5 -6c-22 -44 -44 -77 -87 -74c-44 4 -79 40 -107 26c-9 -4 -20 -24 -25 -29c-3 -3 -8 -4 -10 0c-3 6 1 16 4 24s7 16 12 22
c12 16 27 30 42 33c29 7 102 -30 111 -30c11 1 19 4 29 12c11 10 19 22 26 22z" />
    <glyph glyph-name="OE" unicode="&#x152;" horiz-adv-x="993" 
d="M871 549l-5 -4h-7c-12 44 -21 83 -80 99c-11 3 -88 10 -150 8l-5 -59v-207h49h53c22 0 34 -3 50 20c8 13 9 11 17 30c3 5 14 26 27 21l5 -9v-22c-6 -39 -9 -60 -11 -97c-1 -26 -2 -36 -2 -49c0 -7 2 -17 2 -25c2 -4 -1 -20 -5 -25c-12 0 -11 3 -17 18l-5 25
c-4 21 -11 40 -23 53c-31 31 -113 21 -144 18v-170c0 -17 -4 -114 22 -128c15 -8 167 -2 218 27c90 52 60 30 123 114h5c12 -7 1 -25 -2 -33l-12 -24c-1 -4 -14 -33 -17 -38l-9 -23c-3 -9 -27 -81 -41 -87c-9 -4 -15 -3 -21 1c-8 8 -8 13 -15 20c-3 2 -17 3 -21 3
c-6 0 -15 -1 -22 -1h-22h-228c-12 0 -65 -2 -79 -5l-41 -8c-126 -25 -240 -7 -335 127c-73 104 -102 261 -27 390c104 177 255 197 383 188l124 -9h20h169s30 1 54 4c10 1 15 0 27 5c8 8 13 10 28 10c7 -4 14 -8 10 -18c0 0 -17 -42 -25 -69c-10 -31 -14 -66 -15 -71z
M321 642c-110 -58 -134 -226 -135 -281c-2 -85 19 -248 134 -317c45 -27 100 -32 138 -11c51 29 46 116 46 138v363c0 9 -1 96 -18 113c-16 16 -54 20 -74 19c-27 -1 -63 -9 -91 -24z" />
    <glyph glyph-name="oe" unicode="&#x153;" horiz-adv-x="585" 
d="M359 235c50 49 68 53 116 50c29 -2 65 -11 91 -46c7 -9 13 -22 17 -39c2 -11 2 -17 2 -19c0 -4 2 -11 -5 -21c-2 -1 -28 -2 -31 -1h-102c-6 -2 -23 0 -29 0h-38c3 -32 11 -95 55 -119c17 -9 47 -12 74 -9c12 2 21 4 38 11c7 3 28 19 36 8v-5c-63 -56 -142 -60 -194 -44
c-28 9 -44 18 -66 54c-24 -54 -50 -62 -98 -67c-45 -4 -94 -8 -139 53c-33 46 -42 91 -22 140c19 46 94 98 134 103c50 7 97 0 161 -49zM140 135c3 -26 22 -94 58 -112c19 -9 53 -8 75 5c30 18 35 43 36 71c2 38 -13 116 -54 146c-22 17 -58 17 -73 12
c-66 -24 -46 -90 -42 -122zM474 254c-18 11 -38 10 -57 0c-31 -16 -36 -36 -37 -68c5 -3 19 -3 22 -3c7 0 16 2 21 2h15c7 0 16 1 21 1l21 4h24c-2 24 3 44 -30 64z" />
    <glyph glyph-name="endash" unicode="&#x2013;" horiz-adv-x="445" 
d="M444 187c3 -10 0 -20 0 -30c0 -13 5 -23 -4 -31h-340c-5 0 -13 -1 -19 -1c0 0 -7 0 -21 1c-5 5 -6 22 -6 29c0 14 2 18 4 31c5 3 8 4 16 4h47c2 -1 28 2 30 2h242h25c11 0 15 2 26 -5z" />
    <glyph glyph-name="emdash" unicode="&#x2014;" horiz-adv-x="785" 
d="M195 189c8 0 16 3 24 3h559v-67h-61c-8 0 -16 1 -23 1h-414c-7 0 -12 -1 -20 -1h-212c2 19 2 50 1 64h146z" />
    <glyph glyph-name="quotedblleft" unicode="&#x201c;" horiz-adv-x="323" 
d="M181 706c-41 -45 -75 -69 -64 -121c3 -17 15 -40 32 -46c9 -3 6 0 17 0c7 2 10 5 16 -3c0 -3 -3 -19 -19 -30c-7 -6 -19 -11 -35 -13c-19 -2 -50 3 -64 18c-13 14 -13 32 -6 61c6 28 20 60 41 85c7 9 21 26 41 37c5 4 11 7 20 11c3 0 15 7 21 1zM320 706
c-43 -47 -73 -66 -66 -116c3 -21 13 -42 27 -50c9 -5 8 -1 19 -1l4 1h5h5l6 -2c0 -7 -8 -25 -17 -31c-8 -7 -19 -12 -33 -14c-18 -3 -53 2 -67 16c-13 14 -14 31 -8 60c7 31 19 60 41 87c11 14 27 29 41 38c5 3 11 7 21 11c7 3 16 6 22 1z" />
    <glyph glyph-name="quotedblright" unicode="&#x201d;" horiz-adv-x="323" 
d="M55 492v7c52 50 76 66 64 117c-4 19 -12 34 -23 41c-5 4 -15 5 -20 4c-7 0 -14 -5 -22 1c0 15 9 25 20 34c10 6 22 10 38 11c18 1 52 -5 65 -26c14 -23 -5 -84 -17 -105c-23 -42 -52 -71 -105 -84zM194 494c44 48 78 72 64 123c-5 18 -13 33 -24 40c-9 5 -13 4 -21 4
c-6 -2 -14 -5 -21 1c9 18 1 21 25 36c6 4 19 9 38 9c18 0 51 -5 63 -29c13 -25 -11 -92 -29 -118c-11 -17 -28 -37 -45 -49c-13 -10 -21 -14 -26 -16c-8 0 -18 -9 -24 -1z" />
    <glyph glyph-name="quoteleft" unicode="&#x2018;" horiz-adv-x="185" 
d="M181 706c-41 -45 -75 -69 -64 -121c3 -17 15 -40 32 -46c9 -3 6 0 17 0c7 2 10 5 16 -3c0 -3 -3 -19 -19 -30c-7 -6 -19 -11 -35 -13c-19 -2 -50 3 -64 18c-13 14 -13 32 -6 61c6 28 20 60 41 85c7 9 21 26 41 37c5 4 11 7 20 11c3 0 15 7 21 1z" />
    <glyph glyph-name="quoteright" unicode="&#x2019;" horiz-adv-x="185" 
d="M55 492v7c52 50 76 66 64 117c-4 19 -12 34 -23 41c-5 4 -15 5 -20 4c-7 0 -14 -5 -22 1c0 15 9 25 20 34c10 6 22 10 38 11c18 1 52 -5 65 -26c14 -23 -5 -84 -17 -105c-23 -42 -52 -71 -105 -84z" />
    <glyph glyph-name="divide" unicode="&#xf7;" horiz-adv-x="397" 
d="M367 698l-8 -33c-2 -7 -7 -23 -12 -32l-6 -20c1 -11 -8 -36 -10 -38l-165 -487c-7 -21 -24 -95 -54 -101c-15 -3 -22 0 -25 4c-5 7 21 82 24 92l185 552c3 8 20 69 41 74c2 0 23 2 30 -11z" />
    <glyph glyph-name="ydieresis" unicode="&#xff;" horiz-adv-x="449" 
d="M216 275c3 -4 4 -8 2 -12c-3 -6 -8 -8 -20 -8c0 0 -16 2 -23 0c-4 -1 -7 -5 -7 -5l95 -164l9 18c25 50 53 99 47 148c-4 0 -20 0 -25 1c-8 2 -16 6 -14 18c2 10 11 9 24 9c0 0 37 -2 59 -2c18 0 47 2 47 2l23 1c8 0 20 -3 15 -17l-3 -4c-16 -6 -19 -5 -34 -5
c-18 -1 -21 2 -32 -11c-15 -18 -24 -34 -41 -71l-75 -168c-15 -34 -13 -30 -31 -64l-42 -78c-19 -36 -49 -108 -48 -113s23 -4 23 -4h40c5 0 17 -1 21 -2c8 -2 13 -5 11 -13c-1 -6 -7 -9 -7 -9c-58 0 -97 1 -155 -17c0 0 -6 11 -11 15c-3 2 -30 -2 -30 -2
c-11 -1 -29 -4 -31 5c-2 7 0 15 11 15c7 3 17 3 25 4l23 3h11c5 0 9 1 13 1c10 6 25 34 26 36l24 41l21 38l20 43c54 116 57 72 -5 181l-47 83c-55 97 -49 74 -124 96c-9 3 -9 13 2 15c10 2 22 2 34 2l48 -2c17 -1 43 -4 67 -2l33 3c10 1 26 3 31 -5zM168 441
c13 5 27 6 39 -2s20 -24 21 -42c0 -15 -6 -28 -21 -38c-12 -7 -26 -11 -41 -5c-13 5 -24 16 -27 32c-4 19 2 44 29 55zM304 441c10 5 29 4 39 -2c10 -7 21 -20 22 -40c1 -15 -5 -29 -19 -38c-10 -8 -26 -13 -42 -8c-10 4 -24 13 -29 31c-6 20 3 45 29 57z" />
    <glyph glyph-name="Ydieresis" unicode="&#x178;" horiz-adv-x="803" 
d="M403 665c-6 -3 -23 -3 -42 -3c-22 0 -36 0 -41 -9c-10 -14 33 -93 41 -108l82 -147c7 -10 12 -19 19 -28l63 97c15 24 82 165 81 187c0 1 -4 4 -5 4c-6 3 -14 3 -17 3l-59 5s-14 -1 -18 5s-4 20 8 23c6 2 21 2 28 2h224c11 0 36 1 39 -9c2 -7 0 -12 -5 -13
c-81 -16 -106 -16 -149 -76l-38 -53c-48 -67 -110 -176 -121 -245c-7 -44 -9 -175 4 -245c3 -17 3 -21 21 -23c19 -2 28 -2 47 -4c7 -1 17 0 23 -3c12 -5 10 -22 1 -25c-5 -2 -20 -3 -27 -2c0 0 -25 2 -27 2h-267c-5 0 -20 -2 -23 8s-1 18 17 21c10 2 81 -2 94 7
c15 10 16 78 16 91v65c0 97 11 83 -43 180l-106 189c-52 93 -38 95 -132 101c-22 2 -33 4 -36 10s-2 12 3 17c9 9 89 6 99 5h120c6 2 26 -1 31 -1h33l44 -1c2 -1 15 1 22 -5c6 -5 4 -18 -4 -22zM553 895c17 -2 -10 -37 -54 -84c-23 -25 -35 -34 -40 -38
c-8 -7 -12 -11 -21 -17c-5 -4 -14 -11 -19 -4l7 20c20 38 20 27 35 66l13 34c7 18 3 19 23 25c14 6 41 0 56 -2z" />
    <glyph glyph-name="fraction" unicode="&#x2044;" horiz-adv-x="803" 
d="M403 665c-6 -3 -23 -3 -42 -3c-22 0 -36 0 -41 -9c-10 -14 33 -93 41 -108l82 -147c7 -10 12 -19 19 -28l63 97c15 24 82 165 81 187c0 1 -4 4 -5 4c-6 3 -14 3 -17 3l-59 5s-14 -1 -18 5s-4 20 8 23c6 2 21 2 28 2h224c11 0 36 1 39 -9c2 -7 0 -12 -5 -13
c-81 -16 -106 -16 -149 -76l-38 -53c-48 -67 -110 -176 -121 -245c-7 -44 -9 -175 4 -245c3 -17 3 -21 21 -23c19 -2 28 -2 47 -4c7 -1 17 0 23 -3c12 -5 10 -22 1 -25c-5 -2 -20 -3 -27 -2c0 0 -25 2 -27 2h-267c-5 0 -20 -2 -23 8s-1 18 17 21c10 2 81 -2 94 7
c15 10 16 78 16 91v65c0 97 11 83 -43 180l-106 189c-52 93 -38 95 -132 101c-22 2 -33 4 -36 10s-2 12 3 17c9 9 89 6 99 5h120c6 2 26 -1 31 -1h33l44 -1c2 -1 15 1 22 -5c6 -5 4 -18 -4 -22zM348 829c13 5 28 6 40 -2s20 -24 21 -42c0 -15 -6 -28 -21 -38
c-12 -7 -27 -11 -42 -5c-12 5 -23 16 -26 32c-4 19 2 44 28 55zM485 829c10 5 28 4 38 -2c11 -7 22 -20 23 -40c1 -15 -5 -29 -19 -38c-11 -8 -27 -13 -42 -8c-10 4 -24 13 -29 31c-6 20 3 45 29 57z" />
    <glyph glyph-name="currency" unicode="&#xa4;" 
 />
    <glyph glyph-name="guilsinglleft" unicode="&#x2039;" horiz-adv-x="194" 
d="M194 267c0 -7 -1 -10 -5 -18l-10 -15c-3 -5 -10 -16 -14 -22l-21 -32c-7 -11 -15 -22 -15 -35l10 -18l12 -19l10 -16l23 -37c7 -7 13 -18 9 -27h-7l-19 16c-17 15 -112 79 -109 107c2 17 41 52 62 70c10 9 22 19 37 31c11 6 28 25 37 15z" />
    <glyph glyph-name="guilsinglright" unicode="&#x203a;" horiz-adv-x="191" 
d="M66 273l23 -16c36 -25 69 -50 107 -97c-9 -46 -87 -104 -124 -132l-11 5c0 7 5 15 5 16l9 14c72 111 63 65 0 178l-15 27z" />
    <glyph glyph-name="fi" unicode="&#xfb01;" horiz-adv-x="459" 
d="M202 420h18c7 0 18 -1 35 5c1 0 27 8 32 -5l-7 -21l-85 -19v-253c1 -10 1 -87 18 -99l24 -2c8 -1 14 2 24 -8v-10l-10 -8h-177c-8 -2 -15 -4 -25 3l2 12l58 13c11 47 10 28 10 75v267l-48 -7l-6 8v5c54 26 55 14 60 77l5 64c2 29 8 154 72 189c21 11 48 15 73 2
c15 -8 25 -18 26 -25c0 -5 -3 -16 -18 -29c-12 -9 -20 -10 -25 -8c-8 3 -10 13 -16 20c-7 7 -10 15 -21 17c-4 1 -13 0 -26 -13c-27 -29 -6 -147 -5 -152zM357 521c8 2 36 -7 45 -15c9 -9 15 -24 12 -39c-3 -14 -16 -32 -32 -38c-10 -4 -31 -5 -47 6c-11 8 -17 20 -16 37
c1 22 15 44 38 49zM391 285c8 -5 9 -11 9 -21l-6 -202v-21c3 -8 2 -13 14 -18c25 0 30 -1 39 -1l5 -13c-3 -8 -20 -9 -28 -9h-123c-13 0 -23 -4 -31 1l-1 8c4 7 28 10 36 10c17 8 17 19 19 34c3 22 2 40 2 77v79v18l-6 7c-5 0 -18 -3 -23 -4c-4 -2 -19 -5 -24 -3v8
c36 21 77 38 118 50z" />
    <glyph glyph-name="fl" unicode="&#xfb02;" horiz-adv-x="493" 
d="M429 723c9 -7 9 -27 6 -35c-2 -6 -6 -30 -6 -37v-54c0 -10 -4 -19 -4 -28v-456c0 -12 1 -72 19 -85c4 -2 19 -3 23 -4c10 -3 13 0 25 -9l1 -9c-6 -8 -16 -6 -23 -6h-144c-12 0 -19 -2 -32 -1l-5 7v8l5 5c18 2 27 3 32 5c16 0 18 14 18 27c3 14 5 51 5 67v427
c0 4 4 17 3 22v22v34c0 8 -3 30 -8 38l-33 -7c-7 -2 -15 -3 -21 -1l-14 -7c-31 -2 -13 20 -42 34c-7 3 -17 4 -29 -6c-30 -26 -13 -126 -10 -152l6 -51c1 -4 1 -7 2 -14l7 -37h20l31 5c8 1 23 6 32 0c2 -7 1 -16 -4 -23c-7 -7 -16 -5 -23 -7c-6 -1 -26 -6 -31 -6
c-1 0 -31 -9 -31 -9v-245c0 -16 -5 -96 19 -108c4 -2 19 -1 25 -1c3 0 19 -2 24 -5v-21h-190c-7 0 -21 -6 -28 3v10c7 7 21 8 28 8c6 2 22 2 30 5c6 5 9 12 9 22c1 9 2 17 2 23v283c-1 4 1 11 -1 17c-3 0 -17 -2 -23 -4c-7 0 -16 -3 -25 -3l-5 8v5c69 33 63 28 63 97v51
c4 42 12 149 80 182c24 12 53 15 76 -1c16 -11 17 -12 23 -31c41 21 76 39 118 48z" />
    <glyph glyph-name="daggerdbl" unicode="&#x2021;" horiz-adv-x="497" 
d="M293 476c46 4 55 4 90 14c34 10 68 23 91 10c12 -7 22 -20 23 -35c0 -12 -3 -24 -18 -35c-29 -21 -69 -2 -102 8c-21 7 -46 13 -89 12c3 -51 5 -67 19 -109c3 -8 18 -45 18 -54c0 0 -20 -50 -21 -55c-10 -26 -13 -60 -15 -114c40 3 54 5 91 17c38 12 64 25 91 13
c21 -10 20 -12 22 -31c1 -14 3 -25 -16 -40c-25 -20 -102 3 -112 6l-22 6c-4 0 -15 2 -26 3c-4 0 -22 4 -26 -1c3 -22 2 -31 8 -55l7 -28c5 -22 29 -101 8 -129c-8 -11 -23 -19 -39 -19c-13 0 -28 5 -39 19c-18 25 1 90 10 127l7 30c7 30 3 26 5 58c-29 -2 -37 -3 -50 -5
h-22c-28 -6 -92 -36 -120 -4c-7 9 -11 12 -8 20v22c5 14 18 23 41 24c24 2 38 -7 82 -20c17 -5 40 -11 82 -12c-2 38 -8 89 -18 121c-26 79 -17 41 7 122c4 14 9 43 10 90c-36 0 -54 -3 -89 -14c-26 -9 -66 -26 -88 -16c-12 5 -28 17 -30 36c-2 15 4 30 17 40
c26 20 69 -1 111 -12h15c36 -7 24 -6 63 -9c-3 25 -4 34 -8 52l-8 32c-5 21 -33 103 -11 133c9 12 27 19 45 18c16 0 32 -6 42 -22c18 -28 -2 -82 -14 -127l-8 -30c-1 -3 -5 -25 -6 -29c0 -10 -4 -17 0 -28z" />
    <glyph glyph-name="periodcentered" unicode="&#xb7;" horiz-adv-x="286" 
d="M148 -2h41l-25 -60c29 3 48 4 70 -3c29 -10 46 -30 51 -55c6 -29 -5 -54 -27 -73c-45 -38 -144 -31 -203 -7l14 36c31 -10 42 -12 54 -13c24 -1 46 3 59 23c5 11 4 23 -1 34c-14 18 -38 15 -63 10l-17 12z" />
    <glyph glyph-name="quotesinglbase" unicode="&#x201a;" horiz-adv-x="185" 
d="M55 -122v4c55 55 77 65 64 118c-4 18 -16 40 -34 45c-6 0 -26 -7 -31 1c0 10 6 23 24 35c12 7 27 10 40 10c16 0 48 -5 60 -31c13 -26 -12 -94 -34 -124c-10 -13 -27 -33 -43 -44c-5 -3 -13 -9 -24 -13c-4 -1 -19 -8 -22 -1z" />
    <glyph glyph-name="quotedblbase" unicode="&#x201e;" horiz-adv-x="321" 
d="M49 -122v4c55 55 78 65 65 118c-4 18 -17 40 -35 45c-6 0 -26 -7 -31 1c0 10 6 23 24 35c12 7 27 10 41 10c15 0 47 -5 59 -31c13 -26 -12 -94 -34 -124c-10 -13 -26 -33 -43 -44c-5 -3 -13 -9 -24 -13c-4 -1 -19 -8 -22 -1zM186 -122c39 43 73 66 66 116
c-3 18 -12 40 -30 48c-11 7 -21 0 -33 0c-6 14 3 24 6 29c5 4 13 11 30 16c19 6 54 3 71 -9c11 -8 19 -21 18 -42c-1 -44 -27 -105 -80 -144c-3 -2 -11 -8 -24 -13c-5 -2 -18 -8 -24 -1z" />
    <glyph glyph-name="perthousand" unicode="&#x2030;" horiz-adv-x="956" 
d="M231 694c41 7 112 -16 148 -54c26 -28 33 -83 25 -115c-8 -34 -62 -82 -96 -94c-41 -14 -107 -19 -153 16c-52 39 -64 78 -61 120c3 44 29 78 84 109c21 12 38 16 53 18zM637 681c0 -7 -11 -21 -14 -27l-532 -646c-6 -6 -9 -11 -17 -13c-5 0 -20 2 -20 17
c-1 9 9 19 15 27l419 515c4 7 8 9 14 16l13 15l73 81c3 3 16 20 23 23c12 9 17 4 26 -8zM414 271c48 11 120 -4 166 -53c26 -27 32 -93 22 -122c-17 -49 -73 -86 -126 -95c-51 -8 -101 -6 -156 61c-27 33 -32 84 -18 118c15 38 72 81 112 91zM765 271c48 11 120 -4 164 -52
c25 -26 32 -93 23 -121c-15 -46 -72 -87 -120 -95c-48 -9 -104 -9 -158 55c-27 32 -37 85 -23 119c16 40 71 84 114 94zM177 517c14 -40 38 -61 75 -70c23 -6 45 -4 57 7c31 29 28 90 21 131c-7 40 -13 66 -53 84c-25 11 -66 5 -74 0c-42 -27 -35 -125 -26 -152zM386 74
c19 -33 53 -50 80 -52c22 -2 35 2 47 18c32 40 21 118 11 152c-9 33 -26 51 -54 60c-18 6 -61 1 -71 -7c-37 -30 -34 -133 -13 -171zM737 74c18 -33 52 -50 79 -52c22 -2 36 2 48 18c32 41 20 118 10 152c-9 32 -25 50 -54 60c-17 5 -61 1 -71 -7c-38 -31 -33 -134 -12 -171
z" />
    <glyph glyph-name="Acircumflex" unicode="&#xc2;" horiz-adv-x="806" 
d="M441 705c10 3 15 1 21 -15c0 0 7 -16 10 -25c15 -39 32 -102 32 -102c1 -4 17 -41 21 -52c2 -7 1 -11 4 -20l119 -351c13 -38 33 -99 87 -116c17 -5 41 -5 65 -5c0 0 5 -1 7 -7c1 -4 -1 -9 -1 -9c-4 -7 -12 -8 -22 -9c-3 -1 -11 -2 -24 -2l-158 5l-23 3h-59
c-13 0 -29 -5 -36 -4c-14 0 -27 -2 -27 18c1 7 11 9 23 9h23c29 0 20 4 50 10c0 50 -40 187 -55 201c-10 8 -78 3 -87 3h-14c-9 0 -22 2 -32 2h-68c-37 -56 -59 -139 -65 -195c8 -12 26 -13 34 -14c0 0 25 -1 31 -3c6 0 9 0 16 -1c7 1 30 -1 32 -12c1 -8 -6 -12 -15 -14
c-6 -1 -20 0 -26 0h-205c-4 0 -17 -1 -22 -1c-9 0 -12 -3 -22 5c-6 5 -4 13 3 18c8 6 13 3 20 4c7 0 14 1 21 1c2 0 11 1 20 3c33 5 29 3 52 34c25 34 21 28 32 58l151 413c2 5 20 59 20 66c0 4 -13 56 -11 65c0 6 -1 14 9 18c7 3 11 -13 21 -5c0 0 8 9 15 12c6 3 15 4 21 2
c4 5 8 11 12 12zM379 500l-72 -224c11 -4 28 -3 37 -3h139l-89 260c-8 -11 -11 -20 -15 -33zM536 746c-3 -2 -4 2 -7 2c-2 0 -4 -2 -6 -2s-4 1 -4 1c-2 0 -11 5 -17 3c-8 -4 -17 6 -31 22l-29 34c-18 22 -12 12 -27 29l-13 -13c-15 -15 -23 -27 -36 -43
c-5 -6 -16 -17 -19 -20c-3 -4 -15 -11 -22 -8c-13 6 -2 17 7 28l24 32c9 12 56 87 76 85c15 -2 25 -24 44 -55c23 -37 18 -23 44 -63l9 -14l3 -4l4 -5l2 -4s0 -4 -2 -5z" />
    <glyph glyph-name="Ecircumflex" unicode="&#xca;" horiz-adv-x="666" 
d="M535 536c-1 -5 -5 -8 -11 -4c-7 4 -10 20 -13 37c-5 26 -5 36 -9 43c-15 29 -52 34 -84 37c-18 1 -92 6 -141 2l-5 -5c-3 -9 -4 -16 -4 -23l-6 -191c0 -5 -1 -14 0 -21c1 -9 0 -19 6 -23c4 -3 17 0 17 0c27 0 96 -12 118 18l11 15c5 7 5 7 9 16c6 16 10 26 27 22
c7 -2 7 -9 7 -20c0 -10 -1 -10 -3 -21c-2 -13 -3 -19 -4 -39c-2 -29 -1 -63 -1 -80v-40c0 -5 -1 -18 -6 -20c-11 -4 -12 5 -12 5c-7 29 -12 88 -55 101c-13 4 -52 4 -105 0c-5 -6 -8 -6 -8 -18v-20c0 -15 -2 -23 -2 -40v-24c0 -13 1 -26 1 -39v-50c0 -20 -11 -101 14 -119
c31 -23 202 6 235 18c24 8 60 23 77 39c8 7 18 16 38 39l17 20c3 5 5 6 9 7s6 1 10 -3c7 -7 -1 -23 -4 -28l-10 -17c-5 -9 -12 -18 -17 -29c-7 -14 -12 -21 -19 -37c-11 -23 -23 -57 -23 -57c-2 -6 -7 -21 -17 -21c-5 0 -8 1 -12 4c-6 5 -10 12 -14 21l-3 9h-418h-20h-24
c-13 0 -16 -2 -22 0c-8 2 -8 7 -5 12c4 8 28 9 37 10c23 1 33 3 40 9c13 11 14 54 14 78l5 461c0 21 7 67 -22 88c-7 6 -26 8 -33 11c-5 2 -32 2 -24 19c3 5 13 6 19 6h22h45l28 -1h262c20 0 40 -5 61 -3l31 3c8 3 22 17 32 13c6 -3 10 -11 7 -18c-1 -3 -13 -32 -15 -37
c-4 -11 -7 -22 -12 -39c-10 -30 -13 -45 -16 -76zM447 746c-3 -2 -4 2 -7 2c-2 0 -4 -2 -6 -2s-4 1 -4 1c-2 0 -10 5 -16 3c-9 -4 -18 6 -32 22l-29 34c-18 21 -11 12 -27 29l-13 -13c-15 -15 -23 -27 -36 -43c-5 -6 -15 -17 -18 -20c-4 -4 -16 -11 -23 -8c-13 6 -2 17 7 28
l25 32c9 11 55 87 76 85c14 -2 24 -24 43 -55c23 -37 18 -23 44 -63l9 -14l3 -4l4 -5l2 -4s0 -4 -2 -5z" />
    <glyph glyph-name="Aacute" unicode="&#xc1;" horiz-adv-x="806" 
d="M441 705c10 3 15 1 21 -15c0 0 7 -16 10 -25c15 -39 32 -102 32 -102c1 -4 17 -41 21 -52c2 -7 1 -11 4 -20l119 -351c13 -38 33 -99 87 -116c17 -5 41 -5 65 -5c0 0 5 -1 7 -7c1 -4 -1 -9 -1 -9c-4 -7 -12 -8 -22 -9c-3 -1 -11 -2 -24 -2l-158 5l-23 3h-59
c-13 0 -29 -5 -36 -4c-14 0 -27 -2 -27 18c1 7 11 9 23 9h23c29 0 20 4 50 10c0 50 -40 187 -55 201c-10 8 -78 3 -87 3h-14c-9 0 -22 2 -32 2h-68c-37 -56 -59 -139 -65 -195c8 -12 26 -13 34 -14c0 0 25 -1 31 -3c6 0 9 0 16 -1c7 1 30 -1 32 -12c1 -8 -6 -12 -15 -14
c-6 -1 -20 0 -26 0h-205c-4 0 -17 -1 -22 -1c-9 0 -12 -3 -22 5c-6 5 -4 13 3 18c8 6 13 3 20 4c7 0 14 1 21 1c2 0 11 1 20 3c33 5 29 3 52 34c25 34 21 28 32 58l151 413c2 5 20 59 20 66c0 4 -13 56 -11 65c0 6 -1 14 9 18c7 3 11 -13 21 -5c0 0 8 9 15 12c6 3 15 4 21 2
c4 5 8 11 12 12zM379 500l-72 -224c11 -4 28 -3 37 -3h139l-89 260c-8 -11 -11 -20 -15 -33zM505 895c17 -2 -9 -37 -54 -84c-23 -25 -34 -34 -39 -38c-8 -7 -12 -11 -21 -17c-5 -4 -14 -11 -20 -4l8 20c20 38 21 27 35 66l12 34c8 17 3 19 23 25c15 6 42 0 56 -2z" />
    <glyph glyph-name="Edieresis" unicode="&#xcb;" horiz-adv-x="666" 
d="M535 536c-1 -5 -5 -8 -11 -4c-7 4 -10 20 -13 37c-5 26 -5 36 -9 43c-15 29 -52 34 -84 37c-18 1 -92 6 -141 2l-5 -5c-3 -9 -4 -16 -4 -23l-6 -191c0 -5 -1 -14 0 -21c1 -9 0 -19 6 -23c4 -3 17 0 17 0c27 0 96 -12 118 18l11 15c5 7 5 7 9 16c6 16 10 26 27 22
c7 -2 7 -9 7 -20c0 -10 -1 -10 -3 -21c-2 -13 -3 -19 -4 -39c-2 -29 -1 -63 -1 -80v-40c0 -5 -1 -18 -6 -20c-11 -4 -12 5 -12 5c-7 29 -12 88 -55 101c-13 4 -52 4 -105 0c-5 -6 -8 -6 -8 -18v-20c0 -15 -2 -23 -2 -40v-24c0 -13 1 -26 1 -39v-50c0 -20 -11 -101 14 -119
c31 -23 202 6 235 18c24 8 60 23 77 39c8 7 18 16 38 39l17 20c3 5 5 6 9 7s6 1 10 -3c7 -7 -1 -23 -4 -28l-10 -17c-5 -9 -12 -18 -17 -29c-7 -14 -12 -21 -19 -37c-11 -23 -23 -57 -23 -57c-2 -6 -7 -21 -17 -21c-5 0 -8 1 -12 4c-6 5 -10 12 -14 21l-3 9h-418h-20h-24
c-13 0 -16 -2 -22 0c-8 2 -8 7 -5 12c4 8 28 9 37 10c23 1 33 3 40 9c13 11 14 54 14 78l5 461c0 21 7 67 -22 88c-7 6 -26 8 -33 11c-5 2 -32 2 -24 19c3 5 13 6 19 6h22h45l28 -1h262c20 0 40 -5 61 -3l31 3c8 3 22 17 32 13c6 -3 10 -11 7 -18c-1 -3 -13 -32 -15 -37
c-4 -11 -7 -22 -12 -39c-10 -30 -13 -45 -16 -76zM279 829c13 5 28 6 40 -2s20 -24 21 -42c0 -15 -6 -28 -21 -38c-12 -7 -27 -11 -42 -5c-12 5 -23 16 -26 32c-4 19 2 44 28 55zM416 829c9 4 28 4 38 -2c11 -7 22 -20 23 -40c1 -15 -5 -29 -19 -38c-11 -8 -27 -13 -42 -8
c-10 4 -24 13 -29 31c-6 20 3 44 29 57z" />
    <glyph glyph-name="Egrave" unicode="&#xc8;" horiz-adv-x="666" 
d="M535 536c-1 -5 -5 -8 -11 -4c-7 4 -10 20 -13 37c-5 26 -5 36 -9 43c-15 29 -52 34 -84 37c-18 1 -92 6 -141 2l-5 -5c-3 -9 -4 -16 -4 -23l-6 -191c0 -5 -1 -14 0 -21c1 -9 0 -19 6 -23c4 -3 17 0 17 0c27 0 96 -12 118 18l11 15c5 7 5 7 9 16c6 16 10 26 27 22
c7 -2 7 -9 7 -20c0 -10 -1 -10 -3 -21c-2 -13 -3 -19 -4 -39c-2 -29 -1 -63 -1 -80v-40c0 -5 -1 -18 -6 -20c-11 -4 -12 5 -12 5c-7 29 -12 88 -55 101c-13 4 -52 4 -105 0c-5 -6 -8 -6 -8 -18v-20c0 -15 -2 -23 -2 -40v-24c0 -13 1 -26 1 -39v-50c0 -20 -11 -101 14 -119
c31 -23 202 6 235 18c24 8 60 23 77 39c8 7 18 16 38 39l17 20c3 5 5 6 9 7s6 1 10 -3c7 -7 -1 -23 -4 -28l-10 -17c-5 -9 -12 -18 -17 -29c-7 -14 -12 -21 -19 -37c-11 -23 -23 -57 -23 -57c-2 -6 -7 -21 -17 -21c-5 0 -8 1 -12 4c-6 5 -10 12 -14 21l-3 9h-418h-20h-24
c-13 0 -16 -2 -22 0c-8 2 -8 7 -5 12c4 8 28 9 37 10c23 1 33 3 40 9c13 11 14 54 14 78l5 461c0 21 7 67 -22 88c-7 6 -26 8 -33 11c-5 2 -32 2 -24 19c3 5 13 6 19 6h22h45l28 -1h262c20 0 40 -5 61 -3l31 3c8 3 22 17 32 13c6 -3 10 -11 7 -18c-1 -3 -13 -32 -15 -37
c-4 -11 -7 -22 -12 -39c-10 -30 -13 -45 -16 -76zM236 876h9h10h19c5 0 5 -1 9 -1c6 0 5 0 12 -1c7 0 11 -7 15 -17c3 -8 9 -19 12 -29c8 -19 6 -13 16 -30c3 -5 33 -54 38 -61c3 -6 -7 -9 -22 -2c-5 3 -13 9 -21 16c-11 9 -29 25 -42 38c-9 9 -23 24 -39 43
c-4 6 -10 13 -17 21c-8 9 -6 18 1 23z" />
    <glyph glyph-name="Iacute" unicode="&#xcd;" horiz-adv-x="466" 
d="M461 684c4 -3 4 -14 0 -18c-6 -5 -22 -5 -32 -4c-5 1 -27 0 -31 0c-22 0 -47 3 -62 -11c-14 -13 -19 -42 -18 -70c0 0 3 -45 2 -75c-1 -44 -2 -380 -2 -380c0 -21 -2 -73 30 -91c10 -6 28 -8 58 -8h29c4 0 23 2 30 -5c3 -3 3 -10 1 -14c-5 -12 -28 -8 -37 -8h-335
c-7 0 -17 0 -25 1c-7 1 -11 1 -13 9c-1 4 3 9 7 11c40 14 86 -3 110 15c25 18 25 88 26 99v298c0 7 4 33 1 45c-4 17 0 92 0 92c0 16 -3 68 -28 86c-15 10 -67 9 -87 10c-15 1 -16 25 0 26c2 0 26 1 28 1h239c5 0 23 -1 28 -1l50 -2c6 0 22 2 31 -6zM357 872
c17 -2 -11 -37 -54 -84c-24 -25 -34 -35 -39 -39c-8 -7 -12 -11 -21 -17c-5 -3 -14 -10 -20 -3l8 19c17 40 21 27 35 66l12 34c7 19 3 20 23 26c15 6 42 0 56 -2z" />
    <glyph glyph-name="Icircumflex" unicode="&#xce;" horiz-adv-x="466" 
d="M461 684c4 -3 4 -14 0 -18c-6 -5 -22 -5 -32 -4c-5 1 -27 0 -31 0c-22 0 -47 3 -62 -11c-14 -13 -19 -42 -18 -70c0 0 3 -45 2 -75c-1 -44 -2 -380 -2 -380c0 -21 -2 -73 30 -91c10 -6 28 -8 58 -8h29c4 0 23 2 30 -5c3 -3 3 -10 1 -14c-5 -12 -28 -8 -37 -8h-335
c-7 0 -17 0 -25 1c-7 1 -11 1 -13 9c-1 4 3 9 7 11c40 14 86 -3 110 15c25 18 25 88 26 99v298c0 7 4 33 1 45c-4 17 0 92 0 92c0 16 -3 68 -28 86c-15 10 -67 9 -87 10c-15 1 -16 25 0 26c2 0 26 1 28 1h239c5 0 23 -1 28 -1l50 -2c6 0 22 2 31 -6zM373 746
c-3 -2 -4 2 -7 2c-2 0 -4 -2 -6 -2s-4 1 -4 1c-2 0 -10 5 -16 3c-9 -4 -18 6 -32 22l-29 34c-18 21 -11 12 -27 29l-13 -13c-15 -15 -23 -27 -36 -43c-5 -6 -15 -17 -18 -20c-4 -4 -16 -11 -23 -8c-13 6 -2 17 7 28l24 32c9 12 56 87 76 85c15 -2 25 -24 44 -55
c23 -37 18 -23 44 -63l9 -14l3 -4l4 -5l2 -4s0 -4 -2 -5z" />
    <glyph glyph-name="Idieresis" unicode="&#xcf;" horiz-adv-x="466" 
d="M461 684c4 -3 4 -14 0 -18c-6 -5 -22 -5 -32 -4c-5 1 -27 0 -31 0c-22 0 -47 3 -62 -11c-14 -13 -19 -42 -18 -70c0 0 3 -45 2 -75c-1 -44 -2 -380 -2 -380c0 -21 -2 -73 30 -91c10 -6 28 -8 58 -8h29c4 0 23 2 30 -5c3 -3 3 -10 1 -14c-5 -12 -28 -8 -37 -8h-335
c-7 0 -17 0 -25 1c-7 1 -11 1 -13 9c-1 4 3 9 7 11c40 14 86 -3 110 15c25 18 25 88 26 99v298c0 7 4 33 1 45c-4 17 0 92 0 92c0 16 -3 68 -28 86c-15 10 -67 9 -87 10c-15 1 -16 25 0 26c2 0 26 1 28 1h239c5 0 23 -1 28 -1l50 -2c6 0 22 2 31 -6zM181 835
c12 6 27 6 39 -2s20 -25 21 -42c0 -15 -6 -28 -21 -38c-12 -7 -27 -11 -41 -5c-13 5 -24 16 -27 32c-4 19 2 45 29 55zM317 835c10 5 29 4 38 -2c11 -7 22 -21 23 -40c1 -15 -5 -29 -19 -38c-11 -8 -26 -13 -42 -8c-10 4 -24 13 -29 31c-6 20 3 45 29 57z" />
    <glyph glyph-name="Igrave" unicode="&#xcc;" horiz-adv-x="466" 
d="M461 684c4 -3 4 -14 0 -18c-6 -5 -22 -5 -32 -4c-5 1 -27 0 -31 0c-22 0 -47 3 -62 -11c-14 -13 -19 -42 -18 -70c0 0 3 -45 2 -75c-1 -44 -2 -380 -2 -380c0 -21 -2 -73 30 -91c10 -6 28 -8 58 -8h29c4 0 23 2 30 -5c3 -3 3 -10 1 -14c-5 -12 -28 -8 -37 -8h-335
c-7 0 -17 0 -25 1c-7 1 -11 1 -13 9c-1 4 3 9 7 11c40 14 86 -3 110 15c25 18 25 88 26 99v298c0 7 4 33 1 45c-4 17 0 92 0 92c0 16 -3 68 -28 86c-15 10 -67 9 -87 10c-15 1 -16 25 0 26c2 0 26 1 28 1h239c5 0 23 -1 28 -1l50 -2c6 0 22 2 31 -6zM179 905h9h9h20
c5 0 5 -1 9 -1c6 0 5 0 12 -1c7 0 11 -7 15 -17c3 -7 9 -18 12 -28c7 -19 5 -13 15 -31c3 -5 34 -53 39 -60c3 -6 -7 -10 -22 -2c-5 3 -14 9 -22 16l-41 37c-9 9 -24 25 -40 44c-3 6 -9 13 -16 21c-8 8 -6 17 1 22z" />
    <glyph glyph-name="Oacute" unicode="&#xd3;" horiz-adv-x="836" 
d="M377 711c95 12 269 -8 374 -130c74 -85 100 -236 74 -327c-38 -135 -145 -216 -268 -255c-124 -39 -259 -24 -380 74c-107 87 -131 199 -120 304c11 113 78 231 193 292c29 15 86 37 127 42zM271 605c-85 -101 -89 -275 -66 -368c22 -85 65 -169 169 -210
c54 -21 135 -11 189 23c101 63 129 173 134 259c4 79 -19 235 -118 315c-61 49 -150 64 -209 48c-36 -10 -69 -32 -99 -67zM514 892c17 -2 -10 -37 -54 -84c-23 -25 -35 -34 -39 -38c-8 -7 -12 -11 -21 -17c-5 -4 -14 -11 -20 -4l8 20c20 39 21 27 35 66l12 34
c8 17 3 19 23 25c15 6 42 0 56 -2z" />
    <glyph glyph-name="Ocircumflex" unicode="&#xd4;" horiz-adv-x="836" 
d="M377 711c95 12 269 -8 374 -130c74 -85 100 -236 74 -327c-38 -135 -145 -216 -268 -255c-124 -39 -259 -24 -380 74c-107 87 -131 199 -120 304c11 113 78 231 193 292c29 15 86 37 127 42zM271 605c-85 -101 -89 -275 -66 -368c22 -85 65 -169 169 -210
c54 -21 135 -11 189 23c101 63 129 173 134 259c4 79 -19 235 -118 315c-61 49 -150 64 -209 48c-36 -10 -69 -32 -99 -67zM566 746c-3 -2 -4 2 -7 2c-2 0 -4 -2 -6 -2s-4 1 -4 1c-2 0 -11 5 -17 3c-9 -4 -17 7 -32 22l-28 34c-18 22 -12 12 -28 29l-13 -13l-35 -43
c-5 -6 -16 -17 -19 -20c-4 -4 -16 -11 -23 -8c-12 6 -2 17 7 28l25 32c9 12 55 87 76 85c15 -2 24 -24 43 -55c22 -37 19 -23 45 -63l9 -14l3 -4l4 -5l2 -4s0 -4 -2 -5z" />
    <glyph glyph-name="Ograve" unicode="&#xd2;" horiz-adv-x="836" 
d="M377 711c95 12 269 -8 374 -130c74 -85 100 -236 74 -327c-38 -135 -145 -216 -268 -255c-124 -39 -259 -24 -380 74c-107 87 -131 199 -120 304c11 113 78 231 193 292c29 15 86 37 127 42zM271 605c-85 -101 -89 -275 -66 -368c22 -85 65 -169 169 -210
c54 -21 135 -11 189 23c101 63 129 173 134 259c4 79 -19 235 -118 315c-61 49 -150 64 -209 48c-36 -10 -69 -32 -99 -67zM337 905h9h9h20c5 0 5 -1 9 -1c6 0 5 0 12 -1c7 0 11 -7 15 -17c3 -7 9 -18 12 -28c7 -19 5 -13 15 -31c3 -5 34 -53 39 -60c3 -6 -7 -10 -22 -2
c-5 3 -14 9 -22 16l-41 37c-9 9 -24 25 -40 44c-4 6 -9 13 -16 21c-8 8 -6 17 1 22z" />
    <glyph glyph-name="Uacute" unicode="&#xda;" horiz-adv-x="897" 
d="M448 663c-11 -1 -94 2 -107 -10c-15 -13 -15 -55 -15 -79v-284c0 -59 -6 -173 81 -224c44 -26 125 -29 174 -2c111 61 113 144 113 239v213c0 25 2 105 -42 135c-11 7 -22 10 -44 10h-21h-24c-9 0 -15 4 -17 14c-1 5 2 13 10 17c4 2 54 2 60 2c10 0 21 2 31 2
c5 1 20 0 31 3h30c13 0 31 4 52 0c31 -5 30 -6 51 -6h51l26 -2c10 -1 12 -13 8 -20c-4 -8 -30 -5 -30 -5c-2 0 -88 1 -113 -24c-23 -23 -18 -55 -18 -85v-275c0 -110 -10 -199 -127 -268c-69 -41 -196 -55 -274 -10c-98 56 -137 191 -134 285l7 255c0 17 8 88 -21 109
c-20 15 -99 8 -114 12c-8 2 -15 4 -17 11c-2 5 0 12 5 17c7 7 85 5 94 5h122c15 0 46 -5 100 -5h24h26c5 0 19 -2 24 -4c16 -7 7 -26 -2 -26zM574 901c16 -2 -11 -36 -55 -84c-23 -24 -34 -34 -39 -38c-8 -7 -12 -11 -21 -17c-5 -4 -14 -11 -20 -4l8 20c20 38 20 27 35 66
l13 34c7 17 3 18 22 25c15 5 42 0 57 -2z" />
    <glyph glyph-name="Ucircumflex" unicode="&#xdb;" horiz-adv-x="897" 
d="M448 663c-11 -1 -94 2 -107 -10c-15 -13 -15 -55 -15 -79v-284c0 -59 -6 -173 81 -224c44 -26 125 -29 174 -2c111 61 113 144 113 239v213c0 25 2 105 -42 135c-11 7 -22 10 -44 10h-21h-24c-9 0 -15 4 -17 14c-1 5 2 13 10 17c4 2 54 2 60 2c10 0 21 2 31 2
c5 1 20 0 31 3h30c13 0 31 4 52 0c31 -5 30 -6 51 -6h51l26 -2c10 -1 12 -13 8 -20c-4 -8 -30 -5 -30 -5c-2 0 -88 1 -113 -24c-23 -23 -18 -55 -18 -85v-275c0 -110 -10 -199 -127 -268c-69 -41 -196 -55 -274 -10c-98 56 -137 191 -134 285l7 255c0 17 8 88 -21 109
c-20 15 -99 8 -114 12c-8 2 -15 4 -17 11c-2 5 0 12 5 17c7 7 85 5 94 5h122c15 0 46 -5 100 -5h24h26c5 0 19 -2 24 -4c16 -7 7 -26 -2 -26zM601 758c-3 -2 -4 2 -7 2c-2 0 -4 -2 -6 -2s-4 1 -4 1c-2 0 -10 5 -16 3c-9 -4 -18 6 -32 22l-29 33l-27 30l-13 -13l-36 -43
c-5 -6 -15 -17 -18 -20c-4 -4 -16 -11 -23 -8c-13 6 -2 17 7 28l25 32c9 11 55 87 76 85c14 -2 24 -24 43 -55c23 -38 18 -23 44 -63l9 -14l3 -4l4 -5l2 -4s0 -4 -2 -5z" />
    <glyph glyph-name="Ugrave" unicode="&#xd9;" horiz-adv-x="897" 
d="M448 663c-11 -1 -94 2 -107 -10c-15 -13 -15 -55 -15 -79v-284c0 -59 -6 -173 81 -224c44 -26 125 -29 174 -2c111 61 113 144 113 239v213c0 25 2 105 -42 135c-11 7 -22 10 -44 10h-21h-24c-9 0 -15 4 -17 14c-1 5 2 13 10 17c4 2 54 2 60 2c10 0 21 2 31 2
c5 1 20 0 31 3h30c13 0 31 4 52 0c31 -5 30 -6 51 -6h51l26 -2c10 -1 12 -13 8 -20c-4 -8 -30 -5 -30 -5c-2 0 -88 1 -113 -24c-23 -23 -18 -55 -18 -85v-275c0 -110 -10 -199 -127 -268c-69 -41 -196 -55 -274 -10c-98 56 -137 191 -134 285l7 255c0 17 8 88 -21 109
c-20 15 -99 8 -114 12c-8 2 -15 4 -17 11c-2 5 0 12 5 17c7 7 85 5 94 5h122c15 0 46 -5 100 -5h24h26c5 0 19 -2 24 -4c16 -7 7 -26 -2 -26zM387 905h9h10h19c5 0 5 -1 9 -1c6 0 5 0 12 -1c7 0 11 -7 15 -17c3 -7 9 -18 12 -28c8 -19 6 -13 16 -31c3 -5 33 -53 38 -60
c3 -6 -7 -10 -22 -2c-5 3 -13 9 -21 16c-11 9 -29 25 -42 37c-9 9 -23 25 -39 44c-4 6 -10 13 -17 21c-8 8 -6 17 1 22z" />
    <glyph glyph-name="dotlessi" unicode="&#x131;" horiz-adv-x="268" 
d="M192 285c6 2 6 -5 6 -17v-14v-15l-2 -126c0 -12 -5 -79 9 -89c4 -1 21 -1 25 -1c7 0 22 2 27 -5c3 -4 3 -10 0 -13c-5 -6 -21 -5 -31 -5h-124c-8 0 -28 -3 -32 3c-2 3 -2 5 -1 8c3 9 21 4 37 9c17 6 15 15 18 31c2 12 1 60 1 74v78v25c0 0 -2 6 -6 7c-5 2 -21 -5 -22 -5
c-4 -1 -20 -7 -25 -1c-2 3 1 7 1 7c38 21 79 39 119 49z" />
    <glyph glyph-name="circumflex" unicode="&#x2c6;" horiz-adv-x="272" 
d="M276 376l-5 1h-3l-4 -1l-4 1c-2 1 -11 5 -17 3c-9 -4 -18 6 -32 22l-28 33c-19 22 -12 13 -28 30l-13 -13l-35 -43c-5 -6 -15 -18 -19 -20c-3 -2 -17 -10 -23 -8c-11 8 -2 17 7 28l25 32c9 12 55 87 76 85c15 -2 24 -25 43 -55c23 -38 17 -24 45 -63l8 -14l3 -4l4 -5
l2 -4z" />
    <glyph glyph-name="tilde" unicode="&#x2dc;" horiz-adv-x="282" 
d="M282 494l6 -6c-20 -44 -43 -77 -87 -74c-44 4 -79 39 -106 25c-9 -4 -14 -10 -26 -28l-8 1c-2 5 2 21 3 22c4 10 7 15 11 22c11 15 28 31 42 34c29 7 102 -31 111 -31c12 1 20 4 30 12c11 11 10 23 24 23z" />
    <glyph glyph-name="macron" unicode="&#xaf;" horiz-adv-x="275" 
d="M273 465c0 -25 0 -30 2 -40c-6 -9 -20 -7 -27 -7h-189c-5 7 -4 10 -4 22c0 7 -1 14 -1 21c9 2 20 5 35 5h154c5 0 25 2 30 -1z" />
    <glyph glyph-name="breve" unicode="&#x2d8;" horiz-adv-x="293" 
d="M239 545h8c9 -8 4 -25 0 -36c-4 -9 -12 -21 -28 -34c-24 -19 -67 -27 -90 -18c-36 13 -54 37 -63 80c6 4 14 5 22 2h21c8 -21 19 -48 52 -54c15 -2 40 4 58 22c6 7 7 11 11 20c2 5 2 12 9 18z" />
    <glyph glyph-name="dotaccent" unicode="&#x2d9;" horiz-adv-x="190" 
d="M78 438h-21l35 179c5 25 10 99 48 108c15 4 33 -1 44 -15c19 -25 -29 -112 -35 -125z" />
    <glyph glyph-name="ring" unicode="&#x2da;" horiz-adv-x="204" 
d="M112 515c21 6 47 3 68 -16c21 -18 30 -44 27 -67c-3 -20 -15 -44 -44 -59c-18 -9 -44 -10 -66 3c-24 13 -38 36 -40 60c-2 33 15 67 55 79zM83 448c-3 -17 5 -34 20 -46c14 -12 33 -12 46 -7c19 8 31 26 32 41c2 18 -6 36 -21 47c-16 12 -33 11 -45 6
c-19 -8 -30 -26 -32 -41z" />
    <glyph glyph-name="cedilla" unicode="&#xb8;" 
 />
    <glyph glyph-name="Eth" unicode="&#xd0;" 
 />
    </font>
</defs>
</svg>
